<svg
   version="1.1"
   viewBox="0 0 100 21"
   id="layer"
   x="0px"
   y="0px"
   width="100"
   height="21">

  <path
     id="logo"
     d="m 10.149918,0.3528015 v 4.2013081 c 7.07e-4,0.012071 0.0017,0.023748 0.0033,0.035984 0.0032,0.024472 0.009,0.049135 0.01547,0.07406 0.0065,0.02494 0.01455,0.050224 0.02384,0.075314 0.0093,0.025084 0.01941,0.049939 0.03138,0.074896 0.01197,0.024942 0.0254,0.050376 0.03975,0.074897 0.01435,0.024506 0.02991,0.048177 0.04644,0.071968 0.01654,0.023788 0.03385,0.047535 0.0523,0.070294 0.01846,0.022779 0.03757,0.044683 0.05774,0.06611 0.02017,0.021406 0.04153,0.041715 0.06318,0.061507 0.02163,0.019786 0.04407,0.039455 0.06694,0.057322 0.02289,0.017878 0.04642,0.034139 0.07029,0.049791 0.02389,0.015641 0.04815,0.0304 0.0728,0.043515 0.02465,0.013118 0.04929,0.024875 0.07448,0.035147 0.02519,0.010268 0.05107,0.018803 0.07657,0.025942 0.01276,0.00361 0.0253,0.0073 0.03808,0.010036 0.01279,0.00289 0.02572,0.0044 0.03849,0.00628 0.01279,0.0018 0.02574,0.00366 0.03849,0.0046 0.01276,0.00107 0.02497,0.00211 0.03765,0.00211 0.01769,0 0.03469,-0.00157 0.05188,-0.00335 0.01719,-0.0018 0.03433,-0.00419 0.05105,-0.00753 0.01672,-0.00324 0.03354,-0.00769 0.0498,-0.012552 0.01626,-0.00487 0.03268,-0.010466 0.04853,-0.016735 0.01586,-0.00628 0.03099,-0.012969 0.04644,-0.020501 0.01546,-0.00753 0.03138,-0.015967 0.04644,-0.024686 0.0151,-0.00871 0.02959,-0.018302 0.04435,-0.028034 0.01474,-0.0098 0.02947,-0.019808 0.04394,-0.030546 0.02891,-0.02148 0.05706,-0.044852 0.08494,-0.069456 0.02786,-0.024617 0.05534,-0.050564 0.08243,-0.077406 0.02707,-0.026851 0.05382,-0.054241 0.08033,-0.082428 0.02652,-0.028182 0.05287,-0.057142 0.07909,-0.085775 0.02619,-0.028617 0.05212,-0.057173 0.07825,-0.085357 0.02614,-0.028182 0.05196,-0.056005 0.07824,-0.082847 0.02627,-0.026851 0.05324,-0.052798 0.07991,-0.077406 0.02667,-0.024616 0.05345,-0.047566 0.08075,-0.069039 0.01367,-0.010742 0.02756,-0.02116 0.04141,-0.030962 0.01388,-0.0098 0.02774,-0.018894 0.04184,-0.027615 0.0141,-0.00871 0.02832,-0.0167 0.04268,-0.024269 0.01434,-0.00753 0.02845,-0.014653 0.0431,-0.020922 0.01464,-0.00628 0.0298,-0.012293 0.04477,-0.017155 0.01493,-0.00487 0.02988,-0.00878 0.0452,-0.012134 0.01532,-0.00324 0.03074,-0.00538 0.04644,-0.00711 0.01571,-0.0018 0.03161,-0.00292 0.0477,-0.00292 0.02294,0 0.04548,-2.571e-4 0.06778,0.00127 0.02231,0.00107 0.04486,0.00352 0.06653,0.00586 0.02165,0.00251 0.043,0.00525 0.06402,0.00879 0.02101,0.00361 0.04116,0.00748 0.06151,0.012134 0.02035,0.00465 0.04098,0.010169 0.06067,0.0159 0.01966,0.00572 0.0383,0.012436 0.05733,0.019247 0.01902,0.00682 0.03772,0.013933 0.05607,0.021758 0.01834,0.00782 0.03674,0.015857 0.05439,0.024686 0.01766,0.00882 0.03488,0.018267 0.05189,0.028034 0.01696,0.00984 0.03391,0.019769 0.05022,0.030544 0.01628,0.010775 0.03212,0.022215 0.0477,0.033892 0.01559,0.011677 0.0307,0.023843 0.0456,0.036403 0.01491,0.01258 0.02973,0.025473 0.04394,0.038913 0.0142,0.013445 0.02792,0.027595 0.04142,0.041841 0.01351,0.014237 0.02655,0.028893 0.03934,0.043933 0.01282,0.015065 0.02517,0.030626 0.03725,0.046444 0.01209,0.015821 0.02379,0.031539 0.03515,0.048118 0.01136,0.01658 0.02285,0.033763 0.03347,0.051047 0.01059,0.017265 0.02066,0.034773 0.03054,0.05272 0.0099,0.017947 0.01966,0.036201 0.02887,0.054812 0.0092,0.018595 0.01793,0.03767 0.02636,0.056905 0.0084,0.019246 0.01617,0.038749 0.02384,0.058578 0.0076,0.019823 0.01484,0.039856 0.02176,0.060252 0.0069,0.020399 0.01386,0.04099 0.02007,0.061926 0.0062,0.020938 0.01175,0.042159 0.01716,0.063599 0.0054,0.021442 0.01081,0.043352 0.01548,0.065272 0.0046,0.021912 0.009,0.044162 0.01296,0.066527 0.0039,0.02238 0.0073,0.044576 0.01048,0.067364 0.0032,0.022779 0.0056,0.045861 0.0079,0.069039 0.0025,0.023173 0.0043,0.046752 0.0058,0.070294 0.0032,0.047083 0.0054,0.094743 0.0054,0.1430981 0,0.04835 -0.0023,0.096019 -0.0054,0.1430978 -0.0014,0.023533 -0.0035,0.046699 -0.0058,0.069876 -0.0025,0.023173 -0.0049,0.046251 -0.0079,0.069038 -0.0032,0.022779 -0.0065,0.045835 -0.01048,0.068201 -0.0039,0.02238 -0.0083,0.044191 -0.01296,0.06611 -0.0047,0.021912 -0.01004,0.043833 -0.01548,0.065273 -0.0054,0.021445 -0.01092,0.042248 -0.01716,0.06318 -0.0062,0.020938 -0.01317,0.041948 -0.02007,0.062343 -0.0069,0.020401 -0.01407,0.040422 -0.02176,0.060252 -0.0076,0.019822 -0.01543,0.039343 -0.02384,0.058578 -0.0084,0.019243 -0.01717,0.038711 -0.02636,0.057324 -0.0092,0.018595 -0.01896,0.036438 -0.02887,0.054393 -0.0099,0.017947 -0.0199,0.035854 -0.03054,0.053139 -0.01059,0.017265 -0.02208,0.03363 -0.03347,0.05021 -0.01136,0.016579 -0.02307,0.033147 -0.03515,0.048955 -0.01206,0.01582 -0.02445,0.030965 -0.03725,0.046026 -0.01278,0.015066 -0.02583,0.030107 -0.03934,0.044352 -0.01351,0.014237 -0.02721,0.027996 -0.04142,0.041423 -0.01421,0.013443 -0.02904,0.026339 -0.04394,0.038913 -0.01491,0.01258 -0.03002,0.024741 -0.0456,0.036402 -0.01559,0.011676 -0.03138,0.023116 -0.0477,0.033892 -0.01628,0.010775 -0.03322,0.021122 -0.05022,0.030962 -0.01696,0.0098 -0.0342,0.01879 -0.05189,0.027615 -0.01766,0.00882 -0.03606,0.017287 -0.05439,0.025105 -0.01836,0.00786 -0.03705,0.015366 -0.05607,0.022176 -0.01902,0.00682 -0.03764,0.012685 -0.05733,0.01841 -0.01966,0.00572 -0.04031,0.011252 -0.06067,0.015899 -0.02035,0.00465 -0.0405,0.0086 -0.06151,0.012134 -0.02101,0.00361 -0.04235,0.00683 -0.06402,0.00921 -0.02165,0.00251 -0.0442,0.00383 -0.06653,0.00502 -0.02231,0.00107 -0.04482,0.00211 -0.06778,0.00211 -0.0161,0 -0.03199,-6.856e-4 -0.0477,-0.00251 -0.01571,-0.0018 -0.03114,-0.0046 -0.04644,-0.00795 -0.01532,-0.00324 -0.03023,-0.00769 -0.0452,-0.012552 -0.01497,-0.00486 -0.03011,-0.010047 -0.04477,-0.016317 -0.01464,-0.00628 -0.02873,-0.012935 -0.0431,-0.020502 -0.01435,-0.00753 -0.02861,-0.015962 -0.04268,-0.024686 -0.01409,-0.00871 -0.02799,-0.017888 -0.04184,-0.027615 -0.01386,-0.0098 -0.02778,-0.020642 -0.04141,-0.03138 -0.02732,-0.02148 -0.05408,-0.044852 -0.08075,-0.069457 -0.02667,-0.024616 -0.05364,-0.050564 -0.07991,-0.077406 -0.02627,-0.02685 -0.05213,-0.054241 -0.07824,-0.082427 -0.02614,-0.028182 -0.05203,-0.056727 -0.07825,-0.085357 -0.02619,-0.028652 -0.05256,-0.057592 -0.07909,-0.085775 -0.02654,-0.028182 -0.05326,-0.055589 -0.08033,-0.082428 -0.02707,-0.026851 -0.05456,-0.052799 -0.08243,-0.077406 -0.02789,-0.024616 -0.05603,-0.047984 -0.08494,-0.069457 -0.01446,-0.010742 -0.02918,-0.021161 -0.04394,-0.030962 -0.01478,-0.0098 -0.02926,-0.018893 -0.04435,-0.027615 -0.0151,-0.00871 -0.03101,-0.016701 -0.04644,-0.024269 -0.01546,-0.00753 -0.03059,-0.014651 -0.04644,-0.020922 -0.01586,-0.00628 -0.03228,-0.011873 -0.04853,-0.016738 -0.01626,-0.00486 -0.03308,-0.0092 -0.0498,-0.012552 -0.01672,-0.00324 -0.03383,-0.0058 -0.05105,-0.00753 -0.01719,-0.0018 -0.03418,-0.00292 -0.05188,-0.00292 -0.01268,0 -0.0249,5.784e-4 -0.03765,0.00167 -0.01276,0.00107 -0.02571,0.00219 -0.03849,0.00419 -0.01279,0.0018 -0.02572,0.00437 -0.03849,0.00711 -0.01279,0.00289 -0.02533,0.00607 -0.03808,0.00963 -0.02548,0.00714 -0.05138,0.015671 -0.07657,0.025942 -0.02519,0.010268 -0.04983,0.0221 -0.07448,0.035147 -0.02465,0.013118 -0.04892,0.02746 -0.0728,0.043098 -0.02389,0.01564 -0.04741,0.032752 -0.07029,0.050628 -0.02288,0.017878 -0.04531,0.03669 -0.06694,0.056485 -0.02163,0.019786 -0.043,0.040918 -0.06318,0.062343 -0.02018,0.021406 -0.03927,0.043355 -0.05774,0.06611 -0.01845,0.022744 -0.03578,0.046082 -0.0523,0.069876 -0.01654,0.023788 -0.0321,0.047861 -0.04644,0.072386 -0.01435,0.024506 -0.02781,0.049102 -0.03975,0.07406 -0.01197,0.024977 -0.02205,0.050638 -0.03138,0.075733 -0.0093,0.025084 -0.01747,0.049554 -0.02384,0.074478 -0.0065,0.024941 -0.01213,0.050014 -0.01547,0.074478 -0.0019,0.01222 -0.0024,0.024776 -0.0033,0.036821 V 10.501477 H 6.8820952 c -0.011856,0 -0.023911,5.58e-4 -0.035987,0.0013 -0.012033,0.0011 -0.024594,0.0025 -0.036825,0.0042 -0.024473,0.0032 -0.049123,0.0082 -0.074059,0.01464 -0.024936,0.0065 -0.050225,0.01455 -0.075316,0.02384 -0.02508,0.0094 -0.049917,0.01983 -0.074897,0.0318 -0.02498,0.01193 -0.049553,0.02498 -0.074059,0.03933 -0.024539,0.01435 -0.049023,0.02991 -0.072802,0.04644 -0.023789,0.01654 -0.047137,0.03427 -0.069879,0.05272 -0.022741,0.01845 -0.045119,0.03798 -0.066526,0.05817 -0.02144,0.02017 -0.041722,0.04072 -0.061508,0.06235 -0.019786,0.02162 -0.038612,0.04406 -0.05649,0.06695 -0.017878,0.02288 -0.034984,0.0464 -0.050622,0.0703 -0.015639,0.02389 -0.030396,0.04815 -0.04352,0.0728 -0.01308,0.02465 -0.024495,0.04929 -0.03473,0.07448 -0.010257,0.02519 -0.019223,0.05109 -0.026359,0.07657 -0.00364,0.01276 -0.00629,0.02572 -0.00915,0.03849 -0.00287,0.01279 -0.00529,0.0253 -0.00706,0.03808 -0.00221,0.01276 -0.0032,0.02575 -0.00419,0.03849 -0.00107,0.01276 -0.00165,0.0254 -0.00165,0.03808 0,0.01769 6.64e-4,0.0351 0.00254,0.05231 0.00176,0.01723 0.00474,0.03433 0.00794,0.05105 0.0032,0.01672 0.00772,0.0327 0.012551,0.04896 0.00485,0.01626 0.010477,0.03268 0.016742,0.04853 0.00629,0.01586 0.01297,0.03142 0.020503,0.04686 0.00761,0.01542 0.015551,0.03091 0.024263,0.04602 0.00871,0.0151 0.018231,0.02959 0.028035,0.04435 0.00982,0.01475 0.020227,0.02947 0.030958,0.04394 0.021484,0.02891 0.044424,0.05704 0.069041,0.08494 0.024616,0.02786 0.050556,0.05578 0.077412,0.08285 0.026855,0.02706 0.054659,0.05381 0.082849,0.08033 0.028179,0.02654 0.057119,0.05246 0.085772,0.07866 0.028653,0.02619 0.057174,0.05211 0.085352,0.07825 0.028179,0.02614 0.055575,0.05281 0.08243,0.07909 0.026855,0.02627 0.052795,0.05241 0.077412,0.07909 0.024616,0.02667 0.047976,0.05344 0.06946,0.08075 0.010698,0.01366 0.020745,0.02802 0.03055,0.04184 0.00982,0.01384 0.019731,0.02732 0.028454,0.04141 0.00871,0.0141 0.01715,0.02834 0.024683,0.04267 0.0075,0.01438 0.013775,0.0289 0.020084,0.04351 0.00629,0.01467 0.011867,0.02982 0.016742,0.04477 0.00485,0.01496 0.00926,0.02988 0.012551,0.0452 0.0032,0.01532 0.00618,0.03073 0.00794,0.04644 0.00176,0.01571 0.0021,0.0316 0.0021,0.0477 0,0.02296 -1.621e-4,0.04589 -0.00121,0.0682 -0.00107,0.0223 -0.00276,0.04403 -0.0054,0.06569 -0.00254,0.02166 -0.00518,0.043 -0.00882,0.06402 -0.00364,0.02101 -0.00794,0.04157 -0.012551,0.06193 -0.00463,0.02036 -0.00971,0.04058 -0.015485,0.06025 -0.00574,0.01968 -0.012021,0.03913 -0.018826,0.05817 -0.00684,0.01902 -0.013896,0.03772 -0.02176,0.05607 -0.00783,0.01835 -0.016698,0.0359 -0.025521,0.05356 -0.00882,0.01769 -0.018231,0.03493 -0.028035,0.05188 -0.00982,0.01697 -0.020194,0.03432 -0.030958,0.05062 -0.010808,0.01632 -0.022212,0.03212 -0.033892,0.0477 -0.01168,0.0156 -0.023414,0.0307 -0.035987,0.0456 -0.012584,0.01488 -0.025477,0.02972 -0.03891,0.04394 -0.013444,0.01424 -0.027208,0.02793 -0.041424,0.04141 -0.014238,0.01351 -0.028863,0.02656 -0.043939,0.03933 -0.015066,0.01279 -0.030627,0.02518 -0.046443,0.03725 -0.015815,0.01208 -0.031973,0.02422 -0.048538,0.03556 -0.016576,0.01139 -0.033792,0.02204 -0.051042,0.03263 -0.017304,0.01059 -0.034785,0.02064 -0.052718,0.03054 -0.017944,0.0099 -0.036219,0.01971 -0.054813,0.02887 -0.018595,0.0093 -0.037244,0.01792 -0.05649,0.02636 -0.019245,0.0084 -0.038756,0.01701 -0.058574,0.02468 -0.019819,0.0076 -0.040686,0.01441 -0.061089,0.02134 -0.020403,0.0069 -0.040564,0.01347 -0.061508,0.01966 -0.020933,0.0062 -0.042152,0.01213 -0.063604,0.01757 -0.02144,0.0054 -0.043365,0.01037 -0.065269,0.01506 -0.021914,0.0047 -0.043729,0.009 -0.066107,0.01297 -0.022378,0.0039 -0.045009,0.0072 -0.067783,0.01048 -0.022775,0.0032 -0.045869,0.0058 -0.069041,0.0084 -0.023172,0.0022 -0.046343,0.0044 -0.069879,0.0058 -0.047082,0.0029 -0.094749,0.005 -0.1430974,0.005 -0.048351,0 -0.096436,-0.002 -0.1435164,-0.005 -0.023536,-0.0014 -0.047115,-0.0032 -0.070298,-0.0058 -0.023172,-0.0022 -0.045847,-0.0052 -0.068622,-0.0084 -0.022775,-0.0032 -0.045406,-0.0065 -0.067783,-0.01048 -0.022378,-0.004 -0.044612,-0.0083 -0.066526,-0.01297 -0.021914,-0.0047 -0.043829,-0.0096 -0.065269,-0.01506 -0.02144,-0.0054 -0.042241,-0.01137 -0.063184,-0.01757 -0.020944,-0.0062 -0.041524,-0.01271 -0.061927,-0.01966 -0.020392,-0.0069 -0.040432,-0.01366 -0.060251,-0.02134 -0.019819,-0.0076 -0.039748,-0.01626 -0.058993,-0.02468 -0.019245,-0.0084 -0.037884,-0.0172 -0.05649,-0.02636 -0.018595,-0.0093 -0.037289,-0.01896 -0.055233,-0.02887 -0.017944,-0.0099 -0.035458,-0.01992 -0.052718,-0.03054 -0.017304,-0.0107 -0.034057,-0.02128 -0.050623,-0.03263 -0.016576,-0.01136 -0.032723,-0.02349 -0.048538,-0.03556 -0.015826,-0.01208 -0.031377,-0.02445 -0.046443,-0.03725 -0.015032,-0.01279 -0.02969,-0.02584 -0.043939,-0.03933 -0.014238,-0.01351 -0.028388,-0.02724 -0.041843,-0.04141 -0.013444,-0.01419 -0.026337,-0.02901 -0.03891,-0.04394 -0.012584,-0.01491 -0.02433,-0.03002 -0.035987,-0.0456 -0.01168,-0.01559 -0.023116,-0.03143 -0.033892,-0.0477 -0.010808,-0.01629 -0.020701,-0.03364 -0.03055,-0.05062 -0.00982,-0.01701 -0.019201,-0.03424 -0.028035,-0.05188 -0.00882,-0.01766 -0.017701,-0.03523 -0.025521,-0.05356 -0.00783,-0.01835 -0.014944,-0.03703 -0.02176,-0.05607 -0.00684,-0.01904 -0.013102,-0.03849 -0.018826,-0.05817 -0.00574,-0.01967 -0.010808,-0.03989 -0.015485,-0.06025 -0.00463,-0.02037 -0.00893,-0.04092 -0.012551,-0.06193 -0.00364,-0.02101 -0.00629,-0.04236 -0.00882,-0.06402 -0.00254,-0.02166 -0.0043,-0.04339 -0.0054,-0.06569 -0.00143,-0.0223 -0.00165,-0.04525 -0.00165,-0.0682 0,-0.0161 6.639e-4,-0.03201 0.00254,-0.0477 0.00176,-0.01571 0.0043,-0.03112 0.0075,-0.04644 0.0032,-0.01531 0.00772,-0.03024 0.012551,-0.0452 0.00485,-0.01499 0.010477,-0.03015 0.016742,-0.04477 0.00629,-0.01464 0.013389,-0.02918 0.020922,-0.04351 0.00761,-0.01438 0.015551,-0.02861 0.024263,-0.04267 0.00871,-0.01409 0.018231,-0.02754 0.028035,-0.04141 0.00982,-0.01388 0.019808,-0.0282 0.03055,-0.04184 0.021473,-0.02732 0.044843,-0.05409 0.06946,-0.08075 0.024616,-0.02667 0.050137,-0.05281 0.076993,-0.07909 0.026855,-0.02627 0.054659,-0.05295 0.082849,-0.07909 0.028179,-0.02614 0.057163,-0.05204 0.085771,-0.07825 0.028653,-0.02619 0.057174,-0.05214 0.085352,-0.07866 0.028179,-0.02652 0.055994,-0.05327 0.082849,-0.08033 0.026855,-0.02707 0.052795,-0.05499 0.077412,-0.08285 0.024616,-0.02786 0.047556,-0.05603 0.069041,-0.08494 0.010698,-0.01446 0.021164,-0.02918 0.030958,-0.04394 0.00982,-0.01478 0.019312,-0.02927 0.028035,-0.04435 0.00871,-0.01507 0.016312,-0.03055 0.023855,-0.04602 0.0075,-0.01546 0.014657,-0.03102 0.020922,-0.04686 0.00629,-0.01586 0.012297,-0.03228 0.017161,-0.04853 0.00485,-0.01626 0.00893,-0.03224 0.012132,-0.04896 0.0032,-0.01672 0.00573,-0.03386 0.0075,-0.05105 0.00176,-0.01718 0.00254,-0.0346 0.00254,-0.05231 0,-0.01268 -1.202e-4,-0.02532 -0.00121,-0.03808 -0.00107,-0.01272 -0.00254,-0.02572 -0.00419,-0.03849 -0.00176,-0.01279 -0.00419,-0.02529 -0.00706,-0.03808 -0.00287,-0.01279 -0.00607,-0.02575 -0.0096,-0.03849 -0.00717,-0.02548 -0.015672,-0.05138 -0.02594,-0.07657 -0.010257,-0.02519 -0.022025,-0.04982 -0.035149,-0.07448 -0.013113,-0.02465 -0.027462,-0.04891 -0.043101,-0.0728 -0.015639,-0.02389 -0.032745,-0.0474 -0.050623,-0.0703 -0.017878,-0.02289 -0.036704,-0.04532 -0.05649,-0.06695 -0.019786,-0.02163 -0.040101,-0.04216 -0.061508,-0.06235 -0.021407,-0.02018 -0.044171,-0.0397 -0.066945,-0.05817 -0.022775,-0.01845 -0.045671,-0.03618 -0.06946,-0.05272 -0.023789,-0.01654 -0.048295,-0.0321 -0.072802,-0.04644 -0.024506,-0.01435 -0.049542,-0.02736 -0.074478,-0.03933 -0.024936,-0.01197 -0.049398,-0.0225 -0.074478,-0.0318 -0.02508,-0.0093 -0.050799,-0.01739 -0.075735,-0.02384 -0.024947,-0.0065 -0.049586,-0.0114 -0.074059,-0.01464 -0.012253,-0.0019 -0.024308,-0.0036 -0.036406,-0.0042 -0.012077,-7.06e-4 -0.023712,-0.0013 -0.035568,-0.0013 H 0 A 10.147174,10.147174 0 0 0 10.147408,20.647198 10.147174,10.147174 0 0 0 20.294398,10.49979 10.147174,10.147174 0 0 0 10.150337,0.3528015 Z M 5.7163904,3.8716742 c -0.4244691,0 -0.7936946,0.085905 -1.1079643,0.2573254 -0.3101891,0.17142 -0.551183,0.4040536 -0.7226036,0.6979167 -0.1673377,0.2938629 -0.2506299,0.6265103 -0.2506299,0.9979204 0,0.2530485 0.032601,0.4874588 0.097914,0.7037745 0.069383,0.2122344 0.1689799,0.4043191 0.2995859,0.5757394 0.1346867,0.1673384 0.2981367,0.3100961 0.489964,0.4284573 H 3.5987952 V 8.3106422 H 5.3862655 V 7.4779956 C 5.1862703,7.367797 5.0272098,7.2307873 4.908848,7.0675303 4.794568,6.9042732 4.7126345,6.7271332 4.6636575,6.5353059 4.6146805,6.3434789 4.5904347,6.1513939 4.5904347,5.9595664 c 0,-0.2734556 0.044523,-0.5078661 0.1343106,-0.7037745 0.089786,-0.1959084 0.218441,-0.347445 0.3857798,-0.4535621 0.1714195,-0.1061175 0.3732235,-0.1585795 0.6058653,-0.1585795 0.2326406,0 0.433087,0.052462 0.6004258,0.1585795 0.1673387,0.1061176 0.2955691,0.2576537 0.3853607,0.4535621 0.093878,0.191827 0.1410051,0.4244615 0.1410051,0.6979168 0,0.1918277 -0.020271,0.3856885 -0.061089,0.5815972 C 6.7412753,6.7271332 6.6615399,6.906468 6.5431781,7.0738064 6.4288981,7.2370638 6.259283,7.3718784 6.0348036,7.4779956 V 8.3106422 H 7.834827 V 7.5328079 H 6.8984135 C 7.0943214,7.4144467 7.2595482,7.271689 7.3942349,7.1043506 7.5289227,6.9329303 7.6285178,6.7408456 7.6938208,6.5286112 7.7632034,6.3163766 7.7984186,6.0837431 7.7984186,5.8306946 7.7984186,5.4592848 7.7125147,5.1270557 7.5410931,4.8331925 7.3737609,4.5352482 7.1349606,4.3004196 6.8247726,4.1289996 6.5145836,3.9575793 6.1449401,3.8716742 5.7163904,3.8716742 Z m 34.4230256,0.53599 c -0.347884,0 -0.64751,0.1183761 -0.899173,0.3552345 -0.251663,0.2331575 -0.377412,0.5124056 -0.377412,0.8380858 0,0.3293813 0.125751,0.6125247 0.377412,0.8493832 0.251663,0.2331574 0.553026,0.3497952 0.904612,0.3497952 0.351588,0 0.651631,-0.1166378 0.899593,-0.3497952 0.251663,-0.2368585 0.37741,-0.5200019 0.37741,-0.8493832 0,-0.3256802 -0.125747,-0.6049283 -0.37741,-0.8380858 C 40.796486,4.5260403 40.494702,4.4076642 40.139416,4.4076642 Z m 13.345775,0 c -0.347886,0 -0.647931,0.1183761 -0.899592,0.3552345 -0.251664,0.2331575 -0.377412,0.5124056 -0.377412,0.8380858 0,0.3293813 0.125748,0.6125247 0.377412,0.8493832 0.251661,0.2331574 0.553443,0.3497952 0.905032,0.3497952 0.351585,0 0.651212,-0.1166378 0.899173,-0.3497952 0.251663,-0.2368585 0.377411,-0.5200019 0.377411,-0.8493832 0,-0.3256802 -0.125745,-0.6049283 -0.377411,-0.8380858 C 54.141843,4.5260403 53.840478,4.4076642 53.485191,4.4076642 Z M 43.203889,5.0570447 V 16.426225 h 2.364884 v -2.707148 l 0.641012,-0.731808 2.323462,3.438956 h 2.769909 l -3.323055,-4.833116 3.162384,-3.6937692 h -2.71468 L 45.696391,11.135782 H 45.568773 V 5.0570447 Z m 13.389711,0 V 16.426225 h 2.403797 V 9.2704869 h 0.08326 l 4.946506,7.1557381 h 2.076178 V 5.0570447 h -2.392916 v 7.1502983 h -0.09958 L 58.703248,5.0570447 Z M 77.949937,5.8562179 V 7.8993398 H 76.78423 v 1.7765915 h 1.165707 v 4.4410597 c -0.0036,0.558837 0.112935,1.021493 0.349794,1.387883 0.236858,0.366391 0.568128,0.636527 0.993736,0.81047 0.429306,0.173944 0.928823,0.249824 1.49876,0.227619 0.307176,-0.0111 0.568204,-0.04275 0.782857,-0.09456 0.214653,-0.04812 0.38116,-0.0906 0.499588,-0.127615 L 81.7027,14.560931 c -0.05921,0.01111 -0.144624,0.02758 -0.255649,0.04979 -0.111029,0.01851 -0.222034,0.02803 -0.33306,0.02803 -0.15914,0 -0.299633,-0.02427 -0.421763,-0.07238 -0.118429,-0.04812 -0.210792,-0.131365 -0.277408,-0.249794 -0.06662,-0.12213 -0.1,-0.292113 -0.1,-0.510467 V 9.6759346 h 1.604204 V 7.8993398 H 80.31482 V 5.8562179 Z m -6.117653,1.9322419 c -0.836406,0 -1.565301,0.1847276 -2.187055,0.5548188 -0.618054,0.370091 -1.097609,0.88651 -1.438093,1.5489729 -0.340487,0.6624625 -0.510469,1.4321175 -0.510469,2.3092345 0,0.899321 0.169982,1.678505 0.510469,2.337268 0.340484,0.65506 0.825253,1.16195 1.45441,1.520939 0.632855,0.355288 1.388185,0.533061 2.265301,0.533061 0.703174,0 1.322806,-0.107531 1.859438,-0.322179 0.540334,-0.218354 0.980872,-0.521458 1.321356,-0.910054 0.344185,-0.392298 0.571826,-0.851476 0.682855,-1.377005 l -2.187477,-0.144354 c -0.08142,0.214654 -0.199796,0.395904 -0.355234,0.543941 -0.155437,0.148036 -0.342322,0.259458 -0.560677,0.333477 -0.218355,0.07402 -0.459001,0.11088 -0.721766,0.11088 -0.395997,0 -0.73812,-0.08326 -1.026792,-0.249794 -0.288671,-0.166542 -0.512836,-0.403294 -0.671977,-0.71047 -0.155438,-0.307175 -0.233057,-0.671833 -0.233057,-1.093737 v -0.0054 h 5.806768 V 12.11826 c 0,-0.725378 -0.101895,-1.358017 -0.305441,-1.898349 C 75.331291,9.6758376 75.046409,9.2240313 74.680018,8.8650426 74.31733,8.506054 73.891954,8.2380737 73.403433,8.06043 72.918616,7.8790852 72.394823,7.78846 71.832284,7.7884598 Z m 15.327392,0 c -0.836407,0 -1.565723,0.1847276 -2.187476,0.5548188 -0.618055,0.370091 -1.097194,0.88651 -1.437676,1.5489729 -0.340484,0.6624625 -0.510887,1.4321175 -0.510887,2.3092345 0,0.899321 0.170403,1.678505 0.510887,2.337268 0.340482,0.65506 0.825256,1.16195 1.454411,1.520939 0.632857,0.355288 1.387764,0.533061 2.264881,0.533061 0.703173,0 1.323224,-0.107531 1.859856,-0.322179 0.540333,-0.218354 0.980871,-0.521458 1.321358,-0.910054 0.344185,-0.392298 0.571828,-0.851476 0.682854,-1.377005 l -2.187476,-0.144354 c -0.08142,0.214654 -0.199798,0.395904 -0.355236,0.543941 -0.155438,0.148036 -0.342322,0.259458 -0.560675,0.333477 -0.218352,0.07402 -0.458999,0.11088 -0.721769,0.11088 -0.395997,0 -0.738118,-0.08326 -1.026789,-0.249794 -0.288673,-0.166542 -0.512838,-0.403294 -0.671975,-0.71047 -0.15544,-0.307175 -0.233057,-0.671833 -0.233057,-1.093737 v -0.0054 h 5.806767 V 12.11826 c 0,-0.725378 -0.101896,-1.358017 -0.305445,-1.898349 C 90.658681,9.6758376 90.373798,9.2240313 90.007407,8.8650426 89.644719,8.506054 89.219342,8.2380737 88.730824,8.06043 88.246003,7.8790852 87.722212,7.78846 87.159676,7.7884598 Z m 9.015171,0 c -0.729076,0 -1.365609,0.1071079 -1.909647,0.3217613 -0.540329,0.2146531 -0.960072,0.5199135 -1.259849,0.9159113 -0.296068,0.3959971 -0.444355,0.8677635 -0.444355,1.4154986 0,0.636556 0.201634,1.160347 0.605031,1.571148 0.407097,0.410801 1.027156,0.699579 1.859853,0.86612 l 1.476593,0.294147 c 0.370087,0.07401 0.644126,0.181545 0.821766,0.32218 0.17764,0.136934 0.268264,0.31255 0.271972,0.527202 -0.0036,0.255364 -0.133343,0.464364 -0.388711,0.627204 -0.25166,0.15914 -0.584672,0.238916 -0.999176,0.238916 -0.421902,0 -0.767922,-0.08889 -1.038086,-0.266531 -0.270164,-0.181343 -0.440573,-0.444109 -0.510884,-0.788294 L 92.333377,13.9559 c 0.114727,0.814202 0.505404,1.458108 1.171567,1.931824 0.669863,0.470015 1.569163,0.70503 2.697938,0.70503 0.740182,0 1.3932,-0.116639 1.959442,-0.349795 0.569941,-0.236859 1.017847,-0.566394 1.343525,-0.988297 C 99.835238,14.832758 100,14.34277 100,13.783931 100,13.16958 99.796216,12.67354 99.38912,12.296047 98.982015,11.918554 98.364124,11.644521 97.535117,11.47428 l -1.543113,-0.310883 c -0.395999,-0.08513 -0.675664,-0.197863 -0.838509,-0.338498 -0.162835,-0.140634 -0.244353,-0.312774 -0.244353,-0.516323 0,-0.255364 0.126165,-0.4587316 0.377834,-0.6104689 0.25166,-0.1554387 0.560402,-0.2334756 0.926781,-0.2334756 0.273873,0 0.508892,0.046387 0.705037,0.1389141 0.199854,0.088826 0.361139,0.2089363 0.483265,0.3606737 0.122135,0.1480357 0.201486,0.3149597 0.238496,0.5000067 L 99.805441,10.33075 C 99.70181,9.546158 99.339316,8.9261075 98.71756,8.4708953 98.099504,8.0156829 97.251816,7.7884598 96.174847,7.7884598 Z m -71.151937,0.11088 2.32053,8.5268852 h 2.498358 l 1.465292,-5.36283 h 0.105855 l 1.46529,5.36283 h 2.503796 l 2.314672,-8.5268852 h -2.38706 l -1.29876,5.6954682 H 33.9385 L 32.539739,7.8993398 h -2.348146 l -1.377006,5.7289412 h -0.0774 L 27.415824,7.8993398 Z m 13.928627,0 v 8.5268852 h 2.36488 V 7.8993398 Z m 13.345357,0 v 8.5268852 h 2.364882 V 7.8993398 Z m 19.574304,1.6544137 c 0.344186,0 0.645552,0.075879 0.904613,0.2276182 0.262765,0.1480372 0.46829,0.3531433 0.616329,0.6159073 0.148035,0.262764 0.222178,0.564548 0.222178,0.905032 h -3.570757 c 0.01468,-0.304904 0.08599,-0.586343 0.228871,-0.838085 0.155439,-0.277568 0.370074,-0.4978385 0.643941,-0.6606775 0.277568,-0.1665414 0.595837,-0.249795 0.954825,-0.249795 z m 15.32739,0 c 0.344186,0 0.64555,0.075879 0.904615,0.2276182 0.262764,0.1480372 0.468288,0.3531433 0.616325,0.6159073 0.148035,0.262764 0.222178,0.564548 0.222178,0.905032 h -3.570757 c 0.01468,-0.3049 0.08599,-0.586345 0.228874,-0.838085 0.155438,-0.277568 0.370073,-0.4978385 0.643941,-0.6606775 0.277568,-0.1665414 0.595837,-0.249795 0.954824,-0.249795 z M 12.168355,13.250033 h 0.961098 c 0.03266,0.146932 0.06745,0.308188 0.10419,0.483688 0.04081,0.17142 0.08136,0.348979 0.122177,0.532644 0.0449,0.183664 0.08984,0.369165 0.134731,0.55691 0.04897,0.183665 0.09788,0.361223 0.146863,0.532644 0.05306,-0.179583 0.104587,-0.363309 0.15356,-0.551054 0.05306,-0.187745 0.101553,-0.371052 0.146444,-0.550634 0.04898,-0.183664 0.09392,-0.359447 0.134731,-0.526786 0.04489,-0.171418 0.08366,-0.33048 0.116317,-0.477412 h 0.661515 c 0.03265,0.146932 0.06882,0.305994 0.109627,0.477412 0.04081,0.167339 0.08399,0.343122 0.128873,0.526786 0.0449,0.179582 0.09202,0.362889 0.141005,0.550634 0.04898,0.187745 0.09967,0.371471 0.152721,0.551054 0.04898,-0.171421 0.09831,-0.348979 0.147283,-0.532644 0.04898,-0.187745 0.09391,-0.373246 0.13473,-0.55691 0.0449,-0.183665 0.08544,-0.361224 0.122177,-0.532644 0.04082,-0.1755 0.07781,-0.336756 0.11046,-0.483688 h 0.948967 c -0.0898,0.318351 -0.184059,0.634699 -0.282013,0.948967 -0.09387,0.310187 -0.18772,0.605841 -0.281593,0.887459 -0.0898,0.277536 -0.179249,0.534835 -0.26904,0.771558 -0.08571,0.236722 -0.165034,0.440722 -0.238497,0.61214 H 15.06421 c -0.102039,-0.310187 -0.202049,-0.618172 -0.300003,-0.924278 -0.09796,-0.306106 -0.187831,-0.614511 -0.269459,-0.924698 -0.08162,0.310187 -0.169309,0.618592 -0.263182,0.924698 -0.0898,0.306106 -0.185415,0.614091 -0.287451,0.924278 h -0.710471 c -0.07346,-0.171418 -0.153205,-0.375418 -0.238915,-0.61214 -0.0857,-0.236723 -0.175165,-0.494022 -0.26904,-0.771558 -0.0898,-0.281618 -0.184061,-0.577272 -0.282013,-0.887459 -0.09388,-0.314268 -0.185526,-0.630616 -0.275315,-0.948967 z" />
</svg>
