<?xml version="1.0" encoding="UTF-8" standalone="no"?>
<!-- Created with Inkscape (http://www.inkscape.org/) -->

<svg
   width="638.15961mm"
   height="143.48828mm"
   viewBox="0 0 638.15961 143.48828"
   version="1.1"
   id="svg1"
   inkscape:version="1.3.2 (091e20ef0f, 2023-11-25)"
   sodipodi:docname="appLayout.svg"
   xml:space="preserve"
   xmlns:inkscape="http://www.inkscape.org/namespaces/inkscape"
   xmlns:sodipodi="http://sodipodi.sourceforge.net/DTD/sodipodi-0.dtd"
   xmlns="http://www.w3.org/2000/svg"
   xmlns:svg="http://www.w3.org/2000/svg"><sodipodi:namedview
     id="namedview1"
     pagecolor="#505050"
     bordercolor="#eeeeee"
     borderopacity="1"
     inkscape:showpageshadow="0"
     inkscape:pageopacity="0"
     inkscape:pagecheckerboard="0"
     inkscape:deskcolor="#505050"
     inkscape:document-units="mm"
     inkscape:zoom="0.4138616"
     inkscape:cx="1099.4013"
     inkscape:cy="294.78454"
     inkscape:window-width="1728"
     inkscape:window-height="1081"
     inkscape:window-x="0"
     inkscape:window-y="0"
     inkscape:window-maximized="1"
     inkscape:current-layer="layer1"
     showguides="true" /><defs
     id="defs1">
	

		
		
		
		
		
		
		
		
		
		
		
		
	</defs><g
     inkscape:label="Layer 1"
     inkscape:groupmode="layer"
     id="layer1"
     transform="translate(-607.82819,504.94513)"><g
       id="g24"
       transform="translate(0,-1.3731384)"><rect
         style="fill:#161b22;fill-opacity:1;stroke:#ffffff;stroke-width:0.694;stroke-linecap:round;stroke-dasharray:none"
         id="rect2"
         width="128"
         height="128"
         x="615.91931"
         y="-496.854"
         rx="5.9979587"
         ry="5.9979587" /><text
         xml:space="preserve"
         style="font-weight:500;font-size:19.7556px;font-family:Inter;-inkscape-font-specification:'Inter Medium';text-align:start;letter-spacing:0px;text-anchor:start;fill:none;fill-opacity:1;stroke:#ffffff;stroke-width:7.01146;stroke-linecap:round;stroke-dasharray:none"
         x="637.25116"
         y="-433.89157"
         id="text2"><tspan
           sodipodi:role="line"
           style="font-style:normal;font-variant:normal;font-weight:500;font-stretch:normal;font-size:19.7556px;font-family:Inter;-inkscape-font-specification:'Inter Medium';text-align:start;text-anchor:start;fill:#ffffff;stroke:none;stroke-width:7.01146"
           x="637.25116"
           y="-433.89157"
           id="tspan3">Frontend</tspan></text><text
         xml:space="preserve"
         style="font-weight:500;font-size:7.76111px;font-family:Inter;-inkscape-font-specification:'Inter Medium';text-align:start;letter-spacing:1.32292px;text-anchor:start;fill:none;fill-opacity:1;stroke:#ffffff;stroke-width:7.01146;stroke-linecap:round;stroke-dasharray:none"
         x="659.68695"
         y="-417.53412"
         id="text2-6"><tspan
           sodipodi:role="line"
           style="font-style:normal;font-variant:normal;font-weight:600;font-stretch:normal;font-size:7.76111px;font-family:Inter;-inkscape-font-specification:'Inter Semi-Bold';text-align:start;letter-spacing:1.32292px;text-anchor:start;fill:#ffffff;stroke:none;stroke-width:7.01146"
           x="659.68695"
           y="-417.53412"
           id="tspan3-2">NEXT.JS</tspan></text></g><g
       id="g22"
       transform="translate(0,1.3731384)"><rect
         style="fill:#161b22;fill-opacity:1;stroke:#ffffff;stroke-width:0.694;stroke-linecap:round;stroke-dasharray:none"
         id="rect2-53"
         width="128"
         height="128"
         x="863.08148"
         y="-499.60028"
         rx="5.9979587"
         ry="5.9979587" /><text
         xml:space="preserve"
         style="font-weight:500;font-size:7.76111px;font-family:Inter;-inkscape-font-specification:'Inter Medium';text-align:start;letter-spacing:1.32292px;text-anchor:start;fill:none;fill-opacity:1;stroke:#ffffff;stroke-width:7.01146;stroke-linecap:round;stroke-dasharray:none"
         x="890.96173"
         y="-420.27631"
         id="text2-6-9"><tspan
           sodipodi:role="line"
           style="font-style:normal;font-variant:normal;font-weight:600;font-stretch:normal;font-size:7.76111px;font-family:Inter;-inkscape-font-specification:'Inter Semi-Bold';text-align:start;letter-spacing:1.32292px;text-anchor:start;fill:#ffffff;stroke:none;stroke-width:7.01146"
           x="890.96173"
           y="-420.27631"
           id="tspan6">DJANGO + DRF</tspan></text><text
         xml:space="preserve"
         style="font-weight:500;font-size:19.7556px;font-family:Inter;-inkscape-font-specification:'Inter Medium';text-align:start;letter-spacing:0px;text-anchor:start;fill:none;fill-opacity:1;stroke:#ffffff;stroke-width:7.01146;stroke-linecap:round;stroke-dasharray:none"
         x="886.23383"
         y="-436.63376"
         id="text2-5"><tspan
           sodipodi:role="line"
           style="font-style:normal;font-variant:normal;font-weight:500;font-stretch:normal;font-size:19.7556px;font-family:Inter;-inkscape-font-specification:'Inter Medium';text-align:start;text-anchor:start;fill:#ffffff;stroke:none;stroke-width:7.01146"
           x="886.23383"
           y="-436.63376"
           id="tspan3-6">Backend</tspan></text></g><g
       id="g20"
       transform="translate(0,-1.0261536)"><rect
         style="fill:#161b22;fill-opacity:1;stroke:#ffffff;stroke-width:0.694;stroke-linecap:round;stroke-dasharray:none"
         id="rect2-53-2"
         width="128"
         height="128"
         x="1110.2437"
         y="-497.20099"
         rx="5.9979587"
         ry="5.9979587" /><text
         xml:space="preserve"
         style="font-weight:500;font-size:7.76111px;font-family:Inter;-inkscape-font-specification:'Inter Medium';text-align:start;letter-spacing:1.32292px;text-anchor:start;fill:none;fill-opacity:1;stroke:#ffffff;stroke-width:7.01146;stroke-linecap:round;stroke-dasharray:none"
         x="1149.4664"
         y="-417.88751"
         id="text2-6-9-5"><tspan
           sodipodi:role="line"
           style="font-style:normal;font-variant:normal;font-weight:600;font-stretch:normal;font-size:7.76111px;font-family:Inter;-inkscape-font-specification:'Inter Semi-Bold';text-align:start;letter-spacing:1.32292px;text-anchor:start;fill:#ffffff;stroke:none;stroke-width:7.01146"
           x="1149.4664"
           y="-417.88751"
           id="tspan6-9">MONGODB</tspan></text><text
         xml:space="preserve"
         style="font-weight:500;font-size:19.7556px;font-family:Inter;-inkscape-font-specification:'Inter Medium';text-align:start;letter-spacing:0px;text-anchor:start;fill:none;fill-opacity:1;stroke:#ffffff;stroke-width:7.01146;stroke-linecap:round;stroke-dasharray:none"
         x="1128.9728"
         y="-434.22391"
         id="text2-5-7"><tspan
           sodipodi:role="line"
           style="font-style:normal;font-variant:normal;font-weight:500;font-stretch:normal;font-size:19.7556px;font-family:Inter;-inkscape-font-specification:'Inter Medium';text-align:start;text-anchor:start;fill:#ffffff;stroke:none;stroke-width:7.01146"
           x="1128.9728"
           y="-434.22391"
           id="tspan3-6-0">Database</tspan></text></g><text
       xml:space="preserve"
       style="font-style:normal;font-variant:normal;font-weight:normal;font-stretch:normal;font-size:7.7611px;font-family:'JetBrains Mono';-inkscape-font-specification:'JetBrains Mono';letter-spacing:0px;fill:none;stroke:#ffffff;stroke-width:0.693999;stroke-linecap:round;stroke-dasharray:none"
       x="1028.7339"
       y="-437.92307"
       id="text14-7"><tspan
         sodipodi:role="line"
         id="tspan14-3"
         style="font-style:normal;font-variant:normal;font-weight:normal;font-stretch:normal;font-family:'JetBrains Mono';-inkscape-font-specification:'JetBrains Mono';letter-spacing:0px;fill:#ffffff;stroke:none;stroke-width:0.694"
         x="1028.7339"
         y="-437.92307" /></text><path
       style="font-weight:600;font-size:6.16702px;font-family:Inter;-inkscape-font-specification:'Inter Semi-Bold';letter-spacing:1.0512px;fill:#ffffff;stroke-width:0.551458;stroke-linecap:round"
       d="m 1031.5526,-422.00638 v -4.4851 h 1.6819 q 0.5169,0 0.8673,0.19272 0.3525,0.19272 0.5321,0.52997 0.1818,0.33507 0.1818,0.76212 0,0.43143 -0.1818,0.7665 -0.1817,0.33507 -0.5365,0.52779 -0.3548,0.19053 -0.8738,0.19053 h -1.1147 v -0.66795 h 1.0052 q 0.3022,0 0.4949,-0.10512 0.1927,-0.10512 0.2847,-0.28908 0.094,-0.18396 0.094,-0.42267 0,-0.23871 -0.094,-0.42048 -0.092,-0.18177 -0.2869,-0.28251 -0.1927,-0.10293 -0.4971,-0.10293 h -0.7446 v 3.80621 z m 4.7129,-4.4851 h 0.9176 l 1.0972,1.98413 h 0.044 l 1.0972,-1.98413 h 0.9176 l -1.6316,2.81195 v 1.67315 h -0.8103 v -1.67315 z m 5.7027,0 h 0.9943 l 1.3315,3.24995 h 0.053 l 1.3315,-3.24995 h 0.9942 v 4.4851 h -0.7796 v -3.08132 h -0.042 l -1.2396,3.06818 h -0.5825 l -1.2395,-3.07475 h -0.042 v 3.08789 h -0.7797 z m 10.6478,2.24255 q 0,0.72489 -0.2716,1.24173 -0.2694,0.51464 -0.7358,0.78839 -0.4643,0.27375 -1.0534,0.27375 -0.5891,0 -1.0556,-0.27375 -0.4643,-0.27594 -0.7358,-0.79058 -0.2694,-0.51684 -0.2694,-1.23954 0,-0.72489 0.2694,-1.23954 0.2715,-0.51684 0.7358,-0.79058 0.4665,-0.27375 1.0556,-0.27375 0.5891,0 1.0534,0.27375 0.4664,0.27374 0.7358,0.79058 0.2716,0.51465 0.2716,1.23954 z m -0.8169,0 q 0,-0.51027 -0.1599,-0.86067 -0.1576,-0.35259 -0.438,-0.53217 -0.2803,-0.18177 -0.646,-0.18177 -0.3657,0 -0.6461,0.18177 -0.2803,0.17958 -0.4402,0.53217 -0.1576,0.3504 -0.1576,0.86067 0,0.51027 0.1576,0.86286 0.1599,0.3504 0.4402,0.53216 0.2804,0.17958 0.6461,0.17958 0.3657,0 0.646,-0.17958 0.2804,-0.18176 0.438,-0.53216 0.1599,-0.35259 0.1599,-0.86286 z m 6.3247,-2.24255 v 4.4851 h -0.7227 l -2.1133,-3.05504 h -0.037 v 3.05504 h -0.8125 v -4.4851 h 0.7271 l 2.1112,3.05723 h 0.039 v -3.05723 z m 4.9384,1.43225 q -0.055,-0.17739 -0.1511,-0.31755 -0.094,-0.14235 -0.2277,-0.24309 -0.1314,-0.10074 -0.3022,-0.15111 -0.1709,-0.0526 -0.3723,-0.0526 -0.3614,0 -0.6439,0.18177 -0.2825,0.18177 -0.4446,0.53436 -0.1598,0.3504 -0.1598,0.8541 0,0.50808 0.1598,0.86067 0.1599,0.35259 0.4446,0.53654 0.2847,0.18177 0.6614,0.18177 0.3416,0 0.5913,-0.1314 0.2518,-0.1314 0.3876,-0.37229 0.1358,-0.24309 0.1358,-0.5694 l 0.1839,0.0285 h -1.2176 v -0.6351 h 1.8199 v 0.53874 q 0,0.57597 -0.2453,0.99644 -0.2453,0.42048 -0.6745,0.64824 -0.4292,0.22557 -0.9855,0.22557 -0.6198,0 -1.0884,-0.27813 -0.4665,-0.28032 -0.7293,-0.79496 -0.2606,-0.51684 -0.2606,-1.2264 0,-0.54312 0.1533,-0.97017 0.1555,-0.42705 0.4336,-0.72489 0.2781,-0.30002 0.6526,-0.45551 0.3745,-0.15768 0.8147,-0.15768 0.3723,0 0.6942,0.1095 0.322,0.10731 0.5716,0.3066 0.2519,0.19928 0.4139,0.47303 0.1621,0.27375 0.2125,0.60444 z m 6.7102,0.8103 q 0,0.72489 -0.2716,1.24173 -0.2693,0.51464 -0.7358,0.78839 -0.4643,0.27375 -1.0534,0.27375 -0.5891,0 -1.0556,-0.27375 -0.4642,-0.27594 -0.7358,-0.79058 -0.2694,-0.51684 -0.2694,-1.23954 0,-0.72489 0.2694,-1.23954 0.2716,-0.51684 0.7358,-0.79058 0.4665,-0.27375 1.0556,-0.27375 0.5891,0 1.0534,0.27375 0.4665,0.27374 0.7358,0.79058 0.2716,0.51465 0.2716,1.23954 z m -0.8169,0 q 0,-0.51027 -0.1598,-0.86067 -0.1577,-0.35259 -0.438,-0.53217 -0.2804,-0.18177 -0.6461,-0.18177 -0.3657,0 -0.646,0.18177 -0.2804,0.17958 -0.4402,0.53217 -0.1577,0.3504 -0.1577,0.86067 0,0.51027 0.1577,0.86286 0.1598,0.3504 0.4402,0.53216 0.2803,0.17958 0.646,0.17958 0.3657,0 0.6461,-0.17958 0.2803,-0.18176 0.438,-0.53216 0.1598,-0.35259 0.1598,-0.86286 z"
       id="text14-1-5"
       aria-label="PYMONGO" /><g
       id="g1"><path
         style="fill:none;fill-opacity:1;stroke:#ffffff;stroke-width:0.694;stroke-linecap:round;stroke-dasharray:none"
         d="m 755.62774,-433.20099 h 95.74532"
         id="path13"
         sodipodi:nodetypes="cc" /><path
         id="text14"
         style="font-style:normal;font-variant:normal;font-weight:600;font-stretch:normal;font-size:10.5833px;font-family:Inter;-inkscape-font-specification:'Inter Semi-Bold';letter-spacing:1.71295px;fill:#ffffff;stroke:none;stroke-width:0.898609;stroke-linecap:round;stroke-dasharray:none"
         d="M 790.24083 -448.52687 C 789.70214 -448.52687 789.21983 -448.43152 788.79389 -448.2411 C 788.36795 -448.05318 788.03114 -447.78913 787.7831 -447.44838 C 787.53756 -447.10763 787.41464 -446.71022 787.41464 -446.25672 C 787.41464 -445.70551 787.59764 -445.26342 787.96345 -444.93019 C 788.33176 -444.59946 788.83282 -444.35252 789.46672 -444.18967 L 790.34263 -443.96436 C 790.61824 -443.8942 790.85858 -443.81374 791.06403 -443.72354 C 791.27199 -443.63585 791.43351 -443.52561 791.54876 -443.39281 C 791.66401 -443.26253 791.72299 -443.09716 791.72549 -442.89672 C 791.72299 -442.67624 791.65631 -442.48331 791.52602 -442.31794 C 791.39573 -442.15509 791.21548 -442.02773 790.98497 -441.93502 C 790.75697 -441.84482 790.49129 -441.79963 790.18812 -441.79963 C 789.89748 -441.79963 789.63454 -441.8432 789.39902 -441.93089 C 789.16601 -442.01858 788.97693 -442.15142 788.83161 -442.32931 C 788.68629 -442.50721 788.60361 -442.73043 788.58357 -442.99852 L 787.21156 -442.99852 C 787.2316 -442.4874 787.36444 -442.05361 787.60998 -441.69783 C 787.85803 -441.34204 788.20143 -441.0714 788.63989 -440.88599 C 789.08086 -440.70058 789.60067 -440.60797 790.19949 -440.60797 C 790.81584 -440.60797 791.34061 -440.70332 791.77407 -440.89374 C 792.21003 -441.08667 792.5435 -441.35346 792.77401 -441.69421 C 793.00451 -442.03747 793.11972 -442.43488 793.11972 -442.88587 C 793.11972 -443.2191 793.0569 -443.5096 792.93162 -443.75765 C 792.80634 -444.0057 792.63601 -444.21737 792.42054 -444.39275 C 792.20757 -444.56814 791.96612 -444.71365 791.69552 -444.8289 C 791.42743 -444.94416 791.14797 -445.03514 790.85733 -445.10279 L 790.13593 -445.28366 C 789.97808 -445.32124 789.82153 -445.36754 789.66619 -445.42266 C 789.51084 -445.47779 789.36919 -445.54506 789.24141 -445.62524 C 789.11362 -445.70792 789.0122 -445.80823 788.93703 -445.92599 C 788.86437 -446.04375 788.82799 -446.18267 788.82799 -446.34302 C 788.8305 -446.53595 788.88673 -446.70791 788.99698 -446.85824 C 789.10722 -447.00857 789.26651 -447.12763 789.47447 -447.21532 C 789.68242 -447.30301 789.93159 -447.34658 790.22222 -447.34658 C 790.63563 -447.34658 790.97133 -447.25508 791.2294 -447.07218 C 791.48997 -446.88927 791.63771 -446.63404 791.67278 -446.30582 L 793.0143 -446.30582 C 793.00679 -446.73927 792.8855 -447.12238 792.64998 -447.45562 C 792.41447 -447.79135 792.08981 -448.05318 791.6764 -448.2411 C 791.2655 -448.43152 790.78703 -448.52687 790.24083 -448.52687 z M 770.74848 -448.42145 L 770.74848 -440.72476 L 772.14271 -440.72476 L 772.14271 -443.54319 L 773.56174 -443.54319 L 775.07431 -440.72476 L 776.63029 -440.72476 L 774.96217 -443.77677 C 775.01193 -443.79687 775.0648 -443.81397 775.11204 -443.83672 C 775.51793 -444.03465 775.82444 -444.3136 776.03239 -444.67439 C 776.24286 -445.03769 776.34814 -445.46651 776.34814 -445.9601 C 776.34814 -446.45118 776.24449 -446.8806 776.03653 -447.24891 C 775.83108 -447.61973 775.52628 -447.908 775.12289 -448.11346 C 774.72201 -448.31891 774.22591 -448.42145 773.63461 -448.42145 L 770.74848 -448.42145 z M 779.3464 -448.42145 L 779.3464 -440.72476 L 784.38279 -440.72476 L 784.38279 -441.89368 L 780.74063 -441.89368 L 780.74063 -443.99433 L 784.0934 -443.99433 L 784.0934 -445.16325 L 780.74063 -445.16325 L 780.74063 -447.25253 L 784.3523 -447.25253 L 784.3523 -448.42145 L 779.3464 -448.42145 z M 795.73455 -448.42145 L 795.73455 -447.25253 L 798.11373 -447.25253 L 798.11373 -440.72476 L 799.49659 -440.72476 L 799.49659 -447.25253 L 801.87578 -447.25253 L 801.87578 -448.42145 L 795.73455 -448.42145 z M 811.31861 -448.42145 L 808.6087 -440.72476 L 810.09698 -440.72476 L 810.73363 -442.62232 L 813.62751 -442.62232 L 814.2652 -440.72476 L 815.75348 -440.72476 L 813.03995 -448.42145 L 811.31861 -448.42145 z M 818.48097 -448.42145 L 818.48097 -440.72476 L 819.8752 -440.72476 L 819.8752 -443.32512 L 821.34849 -443.32512 C 821.9423 -443.32512 822.44225 -443.43425 822.84814 -443.65223 C 823.25403 -443.87272 823.56106 -444.17477 823.76901 -444.55812 C 823.97697 -444.94146 824.08114 -445.3797 824.08114 -445.87328 C 824.08114 -446.36186 823.97697 -446.79787 823.76901 -447.18121 C 823.56356 -447.56706 823.25928 -447.87023 822.85589 -448.09072 C 822.45501 -448.3112 821.95891 -448.42145 821.36761 -448.42145 L 818.48097 -448.42145 z M 827.00396 -448.42145 L 827.00396 -440.72476 L 828.39819 -440.72476 L 828.39819 -448.42145 L 827.00396 -448.42145 z M 772.14271 -447.25666 L 773.42067 -447.25666 C 773.76893 -447.25666 774.05336 -447.20539 774.27384 -447.10267 C 774.49433 -447.00245 774.65807 -446.8542 774.7658 -446.65877 C 774.87354 -446.46584 774.92755 -446.2332 774.92755 -445.9601 C 774.92755 -445.687 774.87354 -445.45607 774.7658 -445.26815 C 774.66057 -445.08274 774.49795 -444.9416 774.27746 -444.84389 C 774.05698 -444.74868 773.77366 -444.70075 773.4279 -444.70075 L 772.14271 -444.70075 L 772.14271 -447.25666 z M 819.8752 -447.25666 L 821.15315 -447.25666 C 821.50142 -447.25666 821.78585 -447.19769 822.00633 -447.07993 C 822.22932 -446.96467 822.39358 -446.80316 822.49881 -446.5952 C 822.60654 -446.38725 822.66004 -446.14638 822.66004 -445.87328 C 822.66004 -445.60018 822.60654 -445.35873 822.49881 -445.14826 C 822.39358 -444.9378 822.23043 -444.77243 822.00995 -444.65217 C 821.78946 -444.5319 821.50667 -444.47182 821.1609 -444.47182 L 819.8752 -444.47182 L 819.8752 -447.25666 z M 812.14905 -446.84325 L 812.20951 -446.84325 L 813.25131 -443.74266 L 811.10932 -443.74266 L 812.14905 -446.84325 z M 833.80561 -446.57247 C 833.3446 -446.57247 832.93777 -446.49971 832.5845 -446.35439 C 832.23373 -446.21158 831.95923 -446.00872 831.76129 -445.74564 C 831.56586 -445.48507 831.4694 -445.17693 831.4719 -444.82115 C 831.4694 -444.40023 831.60061 -444.05186 831.86619 -443.77625 C 832.13178 -443.50315 832.54186 -443.30911 833.09558 -443.19386 L 834.08001 -442.98715 C 834.3456 -442.92953 834.54126 -442.84684 834.66654 -442.73911 C 834.79432 -442.63137 834.85774 -442.49468 834.85774 -442.32931 C 834.85774 -442.13388 834.75906 -441.96963 834.56112 -441.83684 C 834.36569 -441.70405 834.10608 -441.63788 833.78287 -441.63788 C 833.46968 -441.63788 833.21556 -441.70405 833.02013 -441.83684 C 832.8247 -441.96963 832.69682 -442.16641 832.63669 -442.42698 L 831.31016 -442.29934 C 831.39284 -441.76817 831.6497 -441.35365 832.08065 -441.05549 C 832.5116 -440.75984 833.08045 -440.61211 833.78701 -440.61211 C 834.26807 -440.61211 834.69363 -440.68931 835.06445 -440.84465 C 835.43526 -440.99999 835.72466 -441.21552 835.93261 -441.49112 C 836.14308 -441.76923 836.24998 -442.09004 836.25249 -442.45334 C 836.24998 -442.86675 836.1144 -443.20133 835.84631 -443.45689 C 835.58073 -443.71246 835.17502 -443.89931 834.62882 -444.01707 L 833.64386 -444.22739 C 833.35072 -444.29504 833.14068 -444.38157 833.01289 -444.4868 C 832.88762 -444.59204 832.8259 -444.72821 832.82841 -444.89608 C 832.8259 -445.09151 832.92014 -445.2508 833.11056 -445.37357 C 833.30349 -445.49634 833.54109 -445.55754 833.82421 -445.55754 C 834.03468 -445.55754 834.21271 -445.5239 834.35803 -445.45625 C 834.50335 -445.38861 834.61856 -445.29985 834.70375 -445.1896 C 834.79144 -445.07936 834.85316 -444.96141 834.88823 -444.83614 L 836.12847 -444.97153 C 836.03576 -445.46261 835.79379 -445.85232 835.40293 -446.14045 C 835.01457 -446.42858 834.4821 -446.57247 833.80561 -446.57247 z M 807.70178 -426.55302 C 807.40832 -426.55302 807.13702 -426.50001 806.88736 -426.39489 C 806.6377 -426.29123 806.4201 -426.13964 806.23468 -425.93962 C 806.04926 -425.74106 805.90478 -425.49929 805.80112 -425.2146 C 805.69892 -424.9299 805.64764 -424.60671 805.64764 -424.24463 C 805.64764 -423.77159 805.73487 -423.36291 805.90861 -423.01835 C 806.08381 -422.67525 806.32678 -422.40993 806.63776 -422.22305 C 806.9502 -422.03763 807.31289 -421.94503 807.72607 -421.94503 C 808.0969 -421.94503 808.42538 -422.02047 808.71154 -422.17085 C 808.99769 -422.32269 809.22239 -422.53856 809.38591 -422.81888 C 809.54943 -423.0992 809.63138 -423.43122 809.63138 -423.8152 L 809.63138 -424.35418 L 807.81133 -424.35418 L 807.81133 -423.71908 L 808.84228 -423.71908 C 808.83826 -423.51412 808.79578 -423.33255 808.70947 -423.17803 C 808.61895 -423.01743 808.48979 -422.89356 808.3219 -422.80596 C 808.15546 -422.71836 807.95796 -422.67418 807.7302 -422.67418 C 807.47908 -422.67418 807.25906 -422.7349 807.06926 -422.85608 C 806.87946 -422.97872 806.7309 -423.15743 806.62432 -423.39249 C 806.51774 -423.62754 806.46464 -423.9147 806.46464 -424.25341 C 806.46464 -424.58921 806.51774 -424.87403 806.62432 -425.10763 C 806.73236 -425.34268 806.88092 -425.52078 807.06926 -425.64196 C 807.2576 -425.76314 807.47225 -425.82334 807.71315 -425.82334 C 807.84747 -425.82334 807.97134 -425.80619 808.08522 -425.77115 C 808.1991 -425.73757 808.29992 -425.6869 808.38752 -425.61974 C 808.47658 -425.55258 808.55264 -425.47176 808.61542 -425.37686 C 808.67966 -425.28342 808.72981 -425.17731 808.76631 -425.05905 L 809.59417 -425.05905 C 809.56059 -425.27951 809.48982 -425.48117 809.38178 -425.66366 C 809.27374 -425.84616 809.13575 -426.00364 808.96785 -426.1365 C 808.80141 -426.26936 808.61093 -426.37192 808.39631 -426.44346 C 808.18169 -426.51646 807.94998 -426.55302 807.70178 -426.55302 z M 813.41564 -426.55302 C 813.0229 -426.55302 812.67087 -426.46163 812.35989 -426.27913 C 812.05037 -426.09663 811.80506 -425.83304 811.62402 -425.48848 C 811.44444 -425.14538 811.35479 -424.73202 811.35479 -424.24876 C 811.35479 -423.76697 811.44444 -423.35412 811.62402 -423.00956 C 811.80506 -422.66646 812.05037 -422.40287 812.35989 -422.21891 C 812.67087 -422.03641 813.0229 -421.94503 813.41564 -421.94503 C 813.80838 -421.94503 814.15929 -422.03641 814.46881 -422.21891 C 814.77979 -422.40141 815.0251 -422.66388 815.20468 -423.00698 C 815.38572 -423.35154 815.4765 -423.76551 815.4765 -424.24876 C 815.4765 -424.73202 815.38572 -425.14538 815.20468 -425.48848 C 815.0251 -425.83304 814.77979 -426.09663 814.46881 -426.27913 C 814.15929 -426.46163 813.80838 -426.55302 813.41564 -426.55302 z M 784.59983 -426.49152 L 784.59983 -422.00652 L 786.11963 -422.00652 C 786.57515 -422.00652 786.96495 -422.09618 787.28907 -422.27576 C 787.61465 -422.45534 787.86352 -422.71304 788.03579 -423.04884 C 788.20953 -423.38464 788.29624 -423.78622 788.29624 -424.25341 C 788.29624 -424.71915 788.21014 -425.119 788.03786 -425.45334 C 787.86558 -425.78768 787.61905 -426.04417 787.29786 -426.22229 C 786.97812 -426.40187 786.59542 -426.49152 786.15012 -426.49152 L 784.59983 -426.49152 z M 791.88827 -426.49152 L 791.88827 -423.33771 C 791.88681 -423.18003 791.86152 -423.04732 791.81334 -422.93928 C 791.76662 -422.83124 791.69819 -422.7493 791.60767 -422.69382 C 791.51715 -422.6398 791.40688 -422.6132 791.27694 -422.6132 C 791.15722 -422.6132 791.05163 -422.63625 790.95965 -422.68297 C 790.86767 -422.72969 790.79517 -422.79691 790.74261 -422.88451 C 790.69151 -422.97211 790.66552 -423.07649 790.66406 -423.19766 L 789.85584 -423.19766 C 789.85584 -422.92173 789.91717 -422.69114 790.03981 -422.50572 C 790.16245 -422.3203 790.32816 -422.17997 790.53693 -422.08507 C 790.74717 -421.99163 790.98365 -421.94503 791.24645 -421.94503 C 791.53407 -421.94503 791.78588 -422.00047 792.00196 -422.11143 C 792.2195 -422.22385 792.38876 -422.38366 792.50994 -422.59098 C 792.63112 -422.79976 792.69245 -423.04863 792.69391 -423.33771 L 792.69391 -426.49152 L 791.88827 -426.49152 z M 795.91542 -426.49152 L 794.33619 -422.00652 L 795.20383 -422.00652 L 795.57487 -423.1124 L 797.26107 -423.1124 L 797.63263 -422.00652 L 798.49976 -422.00652 L 796.91846 -426.49152 L 795.91542 -426.49152 z M 800.14203 -426.49152 L 800.14203 -422.00652 L 800.95439 -422.00652 L 800.95439 -425.06163 L 800.99159 -425.06163 L 803.10516 -422.00652 L 803.82811 -422.00652 L 803.82811 -426.49152 L 803.01989 -426.49152 L 803.01989 -423.43434 L 802.9801 -423.43434 L 800.86912 -426.49152 L 800.14203 -426.49152 z M 813.41564 -425.82334 C 813.65946 -425.82334 813.87472 -425.76314 814.0616 -425.64196 C 814.24848 -425.52224 814.39469 -425.34475 814.49981 -425.10969 C 814.60639 -424.87609 814.65949 -424.58894 814.65949 -424.24876 C 814.65949 -423.90859 814.60639 -423.62134 814.49981 -423.38628 C 814.39469 -423.15268 814.24848 -422.9752 814.0616 -422.85402 C 813.87472 -422.7343 813.65946 -422.67418 813.41564 -422.67418 C 813.17182 -422.67418 812.95656 -422.7343 812.76969 -422.85402 C 812.58281 -422.9752 812.43598 -423.15268 812.3294 -423.38628 C 812.22428 -423.62134 812.17179 -423.90859 812.17179 -424.24876 C 812.17179 -424.58894 812.22428 -424.87609 812.3294 -425.10969 C 812.43598 -425.34475 812.58281 -425.52224 812.76969 -425.64196 C 812.95656 -425.76314 813.17182 -425.82334 813.41564 -425.82334 z M 785.41218 -425.78872 L 786.10413 -425.78872 C 786.40781 -425.78872 786.66196 -425.73155 786.86636 -425.61767 C 787.07222 -425.50525 787.22788 -425.33538 787.333 -425.10763 C 787.43812 -424.88133 787.49061 -424.59651 787.49061 -424.25341 C 787.49061 -423.91032 787.43812 -423.62429 787.333 -423.39507 C 787.22788 -423.16731 787.071 -422.99571 786.86222 -422.88037 C 786.65344 -422.76649 786.3928 -422.70932 786.08036 -422.70932 L 785.41218 -422.70932 L 785.41218 -425.78872 z M 796.39963 -425.57168 L 796.43425 -425.57168 L 797.04145 -423.76507 L 795.79346 -423.76507 L 796.39963 -425.57168 z M 786.54028 -418.84393 C 786.149 -418.84393 785.79818 -418.75254 785.48866 -418.57004 C 785.17914 -418.38754 784.93495 -418.12447 784.75538 -417.77991 C 784.5758 -417.43681 784.48562 -417.02345 784.48562 -416.54019 C 784.48562 -416.05839 784.57467 -415.64503 784.75279 -415.30047 C 784.93091 -414.95591 785.17501 -414.69232 785.48453 -414.50982 C 785.79405 -414.32732 786.14608 -414.23645 786.54028 -414.23645 C 786.80746 -414.23645 787.05043 -414.27595 787.26943 -414.35479 C 787.48843 -414.43509 787.67952 -414.54597 787.84304 -414.68759 C 788.00656 -414.83067 788.13866 -414.99525 788.2394 -415.18213 C 788.3416 -415.36901 788.40821 -415.56945 788.43887 -415.78261 L 787.6198 -415.78675 C 787.59498 -415.65535 787.54959 -415.53858 787.48389 -415.43638 C 787.41965 -415.33418 787.34005 -415.24808 787.24515 -415.178 C 787.15171 -415.10792 787.04611 -415.05482 786.92785 -415.01832 C 786.81105 -414.98328 786.68545 -414.96561 786.55113 -414.96561 C 786.30877 -414.96561 786.09351 -415.0246 785.90518 -415.14286 C 785.7183 -415.26258 785.57086 -415.43946 785.46283 -415.67306 C 785.35625 -415.90812 785.30263 -416.19709 785.30263 -416.54019 C 785.30263 -416.87745 785.35625 -417.16287 785.46283 -417.39647 C 785.5694 -417.63153 785.71684 -417.80962 785.90518 -417.9308 C 786.09351 -418.05344 786.30938 -418.11477 786.5532 -418.11477 C 786.69044 -418.11477 786.81838 -418.09589 786.93664 -418.05793 C 787.05636 -418.02143 787.16256 -417.9666 787.256 -417.8936 C 787.34944 -417.8206 787.42783 -417.73155 787.49061 -417.62643 C 787.55339 -417.52277 787.59644 -417.40366 787.6198 -417.26934 L 788.43887 -417.26934 C 788.40529 -417.519 788.33391 -417.74076 788.22441 -417.93494 C 788.11637 -418.13058 787.97839 -418.29568 787.81049 -418.43 C 787.64259 -418.56578 787.45098 -418.66894 787.23636 -418.73902 C 787.02174 -418.8091 786.78994 -418.84393 786.54028 -418.84393 z M 792.18386 -418.84393 C 791.79112 -418.84393 791.43909 -418.75254 791.12811 -418.57004 C 790.81859 -418.38754 790.57328 -418.12447 790.39224 -417.77991 C 790.21266 -417.43681 790.12301 -417.02345 790.12301 -416.54019 C 790.12301 -416.05839 790.21266 -415.64503 790.39224 -415.30047 C 790.57328 -414.95737 790.81859 -414.69378 791.12811 -414.50982 C 791.43909 -414.32732 791.79112 -414.23645 792.18386 -414.23645 C 792.5766 -414.23645 792.92751 -414.32732 793.23703 -414.50982 C 793.54801 -414.69232 793.79332 -414.95531 793.9729 -415.29841 C 794.15394 -415.64296 794.24472 -416.05693 794.24472 -416.54019 C 794.24472 -417.02345 794.15394 -417.43681 793.9729 -417.77991 C 793.79332 -418.12447 793.54801 -418.38754 793.23703 -418.57004 C 792.92751 -418.75254 792.5766 -418.84393 792.18386 -418.84393 z M 802.73309 -418.84393 C 802.41919 -418.84393 802.13793 -418.78849 801.88973 -418.67753 C 801.64153 -418.56803 801.44516 -418.4141 801.30062 -418.21554 C 801.15754 -418.01698 801.08616 -417.78578 801.08616 -417.52153 C 801.08616 -417.20033 801.19236 -416.94263 801.40552 -416.74845 C 801.62014 -416.55573 801.91258 -416.41185 802.28195 -416.31695 L 802.792 -416.18517 C 802.9526 -416.14429 803.09293 -416.09769 803.21265 -416.04513 C 803.33383 -415.99403 803.42764 -415.92976 803.4948 -415.85238 C 803.56196 -415.77646 803.59669 -415.68031 803.59815 -415.56351 C 803.59669 -415.43503 803.5578 -415.32242 803.48188 -415.22606 C 803.40596 -415.13116 803.30097 -415.05684 803.16665 -415.00282 C 803.03379 -414.95026 802.87874 -414.92375 802.70208 -414.92375 C 802.53272 -414.92375 802.3794 -414.94965 802.24216 -415.00075 C 802.10638 -415.05185 801.99611 -415.12912 801.91143 -415.23278 C 801.82675 -415.33644 801.77894 -415.4662 801.76726 -415.62242 L 800.96782 -415.62242 C 800.9795 -415.32458 801.05677 -415.07216 801.19985 -414.86484 C 801.34439 -414.65752 801.54431 -414.50004 801.79981 -414.392 C 802.05677 -414.28396 802.35986 -414.22974 802.7088 -414.22974 C 803.06796 -414.22974 803.374 -414.28518 803.62657 -414.39614 C 803.88061 -414.50855 804.07465 -414.66421 804.20897 -414.86277 C 804.34329 -415.06279 804.41051 -415.29399 804.41051 -415.55679 C 804.41051 -415.75097 804.37395 -415.92023 804.30095 -416.06477 C 804.22795 -416.20931 804.12886 -416.33309 804.0033 -416.43529 C 803.8792 -416.53749 803.73826 -416.62186 803.58058 -416.68902 C 803.42436 -416.75618 803.2616 -416.80928 803.09224 -416.8487 L 802.67159 -416.95412 C 802.57961 -416.97602 802.48823 -417.00313 802.39771 -417.03525 C 802.30719 -417.06737 802.22464 -417.10687 802.15018 -417.15359 C 802.07572 -417.20177 802.01673 -417.26015 801.97293 -417.32877 C 801.93059 -417.39739 801.90937 -417.47821 801.90937 -417.57165 C 801.91083 -417.68407 801.94383 -417.78429 802.00807 -417.87189 C 802.07231 -417.95949 802.16491 -418.02853 802.28609 -418.07963 C 802.40727 -418.13073 802.55236 -418.15663 802.72172 -418.15663 C 802.96262 -418.15663 803.15839 -418.10301 803.30876 -417.99643 C 803.4606 -417.88985 803.54671 -417.74121 803.56715 -417.54995 L 804.34901 -417.54995 C 804.34463 -417.80253 804.27386 -418.0255 804.13662 -418.21967 C 803.99938 -418.41531 803.81011 -418.56803 803.56921 -418.67753 C 803.32977 -418.78849 803.05137 -418.84393 802.73309 -418.84393 z M 796.06631 -418.78295 L 796.06631 -414.29743 L 796.87918 -414.29743 L 796.87918 -415.94023 L 797.70601 -415.94023 L 798.58709 -414.29743 L 799.49401 -414.29743 L 798.51939 -416.0813 C 798.54772 -416.09279 798.58238 -416.0978 798.60931 -416.11076 C 798.84583 -416.2261 799.02453 -416.38886 799.14571 -416.5991 C 799.26835 -416.8108 799.32968 -417.06079 799.32968 -417.34841 C 799.32968 -417.63457 799.26896 -417.88465 799.14778 -418.09927 C 799.02806 -418.31535 798.85057 -418.48339 798.61551 -418.60311 C 798.38191 -418.72283 798.09294 -418.78295 797.74838 -418.78295 L 796.06631 -418.78295 z M 808.76631 -418.78295 L 808.76631 -414.29743 L 809.57867 -414.29743 L 809.57867 -416.20274 L 811.65709 -416.20274 L 811.65709 -414.29743 L 812.47203 -414.29743 L 812.47203 -418.78295 L 811.65709 -418.78295 L 811.65709 -416.88384 L 809.57867 -416.88384 L 809.57867 -418.78295 L 808.76631 -418.78295 z M 814.40576 -418.78295 L 814.40576 -414.29743 L 817.33995 -414.29743 L 817.33995 -414.97853 L 815.21812 -414.97853 L 815.21812 -416.20274 L 817.17148 -416.20274 L 817.17148 -416.88384 L 815.21812 -416.88384 L 815.21812 -418.10185 L 817.32238 -418.10185 L 817.32238 -418.78295 L 814.40576 -418.78295 z M 820.4917 -418.78295 L 818.91246 -414.29743 L 819.77959 -414.29743 L 820.15063 -415.40331 L 821.83683 -415.40331 L 822.20839 -414.29743 L 823.07552 -414.29743 L 821.49473 -418.78295 L 820.4917 -418.78295 z M 824.71831 -418.78295 L 824.71831 -414.29743 L 826.23811 -414.29743 C 826.69363 -414.29743 827.08343 -414.3876 827.40755 -414.56718 C 827.73313 -414.74676 827.982 -415.00446 828.15428 -415.34026 C 828.32802 -415.67606 828.41473 -416.07713 828.41473 -416.54432 C 828.41473 -417.01006 828.32862 -417.41043 828.15634 -417.74477 C 827.98406 -418.07911 827.73754 -418.33508 827.41634 -418.5132 C 827.0966 -418.69278 826.7139 -418.78295 826.2686 -418.78295 L 824.71831 -418.78295 z M 830.23684 -418.78295 L 830.23684 -414.29743 L 833.17154 -414.29743 L 833.17154 -414.97853 L 831.04971 -414.97853 L 831.04971 -416.20274 L 833.00308 -416.20274 L 833.00308 -416.88384 L 831.04971 -416.88384 L 831.04971 -418.10185 L 833.15397 -418.10185 L 833.15397 -418.78295 L 830.23684 -418.78295 z M 835.03551 -418.78295 L 835.03551 -414.29743 L 835.84786 -414.29743 L 835.84786 -415.94023 L 836.67469 -415.94023 L 837.55577 -414.29743 L 838.46269 -414.29743 L 837.48807 -416.0813 C 837.5164 -416.09279 837.55107 -416.0978 837.57799 -416.11076 C 837.81451 -416.2261 837.99321 -416.38886 838.11439 -416.5991 C 838.23703 -416.8108 838.29836 -417.06079 838.29836 -417.34841 C 838.29836 -417.63457 838.23764 -417.88465 838.11646 -418.09927 C 837.99674 -418.31535 837.81977 -418.48339 837.58471 -418.60311 C 837.35111 -418.72283 837.06162 -418.78295 836.71706 -418.78295 L 835.03551 -418.78295 z M 792.18386 -418.11477 C 792.42768 -418.11477 792.64294 -418.05405 792.82982 -417.93287 C 793.0167 -417.81315 793.1624 -417.63566 793.26752 -417.4006 C 793.3741 -417.167 793.42771 -416.88037 793.42771 -416.54019 C 793.42771 -416.20001 793.3741 -415.91225 793.26752 -415.67719 C 793.1624 -415.44359 793.0167 -415.26611 792.82982 -415.14493 C 792.64294 -415.02521 792.42768 -414.96561 792.18386 -414.96561 C 791.94004 -414.96561 791.72427 -415.02521 791.53739 -415.14493 C 791.35051 -415.26611 791.2042 -415.44359 791.09762 -415.67719 C 790.9925 -415.91225 790.94001 -416.20001 790.94001 -416.54019 C 790.94001 -416.88037 790.9925 -417.167 791.09762 -417.4006 C 791.2042 -417.63566 791.35051 -417.81315 791.53739 -417.93287 C 791.72427 -418.05405 791.94004 -418.11477 792.18386 -418.11477 z M 796.87918 -418.10392 L 797.62384 -418.10392 C 797.82678 -418.10392 797.99249 -418.07386 798.12097 -418.014 C 798.24945 -417.9556 798.34499 -417.8695 798.40777 -417.75562 C 798.47055 -417.6432 798.50182 -417.50755 798.50182 -417.34841 C 798.50182 -417.18927 798.47055 -417.05483 798.40777 -416.94533 C 798.34645 -416.83729 798.25151 -416.75474 798.12303 -416.6978 C 797.99456 -416.64232 797.82945 -416.6146 797.62797 -416.6146 L 796.87918 -416.6146 L 796.87918 -418.10392 z M 835.84786 -418.10392 L 836.59252 -418.10392 C 836.79546 -418.10392 836.96117 -418.07386 837.08965 -418.014 C 837.21813 -417.9556 837.31367 -417.8695 837.37645 -417.75562 C 837.43923 -417.6432 837.4705 -417.50755 837.4705 -417.34841 C 837.4705 -417.18927 837.43923 -417.05483 837.37645 -416.94533 C 837.31513 -416.83729 837.22019 -416.75474 837.09172 -416.6978 C 836.96324 -416.64232 836.79813 -416.6146 836.59666 -416.6146 L 835.84786 -416.6146 L 835.84786 -418.10392 z M 825.53066 -418.07963 L 826.22261 -418.07963 C 826.52629 -418.07963 826.78044 -418.02298 826.98484 -417.9091 C 827.1907 -417.79668 827.34636 -417.62629 827.45148 -417.39854 C 827.5566 -417.17224 827.60909 -416.88742 827.60909 -416.54432 C 827.60909 -416.20123 827.5566 -415.9152 827.45148 -415.68598 C 827.34636 -415.45822 827.18948 -415.28662 826.9807 -415.17128 C 826.77193 -415.0574 826.51128 -415.00075 826.19884 -415.00075 L 825.53066 -415.00075 L 825.53066 -418.07963 z M 820.97539 -417.86311 L 821.01053 -417.86311 L 821.61772 -416.05598 L 820.36922 -416.05598 L 820.97539 -417.86311 z " /><path
         class="st0"
         d="m 768.5439,-420.24374 c 0,3.40134 3.31702,5.12732 4.73938,5.71199 l 0.0505,0.0226 c 0.10687,0.0506 0.23052,0.0506 0.3317,0 l 0.0505,-0.0226 c 1.42801,-0.58467 4.73941,-2.31065 4.73941,-5.71199 v -4.55387 c 0,-0.17429 -0.11804,-0.32609 -0.28674,-0.36543 l -4.58197,-1.13565 c -0.0619,-0.0169 -0.12363,-0.0169 -0.17992,0 l -4.58196,1.13565 c -0.16866,0.0393 -0.28673,0.19114 -0.28673,0.36543 m 9.16958,4.55387 c 0,2.89535 -2.88411,4.4358 -4.19968,4.98675 -1.32119,-0.55095 -4.19968,-2.0914 -4.19968,-4.98675 v -4.26152 l 4.19968,-1.04008 4.19968,1.04008 z"
         id="path11"
         style="fill:#ffffff;stroke-width:0.0562205" /></g><path
       style="fill:none;fill-opacity:1;stroke:#ffffff;stroke-width:0.694;stroke-linecap:round;stroke-dasharray:none"
       d="m 1002.7899,-433.20099 h 95.7453"
       id="path13-9"
       sodipodi:nodetypes="cc" /><path
       style="font-size:6.66194px;font-family:'JetBrains Mono';-inkscape-font-specification:'JetBrains Mono';letter-spacing:0px;fill:#ffffff;stroke-width:0.436857;stroke-linecap:round"
       d="m 1012.5933,-441.46027 h 0.5596 v -2.79801 c 0,-0.29313 0.1532,-0.473 0.3997,-0.473 0.2399,0 0.3931,0.18654 0.3931,0.47966 v 2.79135 h 0.493 v -2.79801 c 0,-0.29313 0.1532,-0.473 0.393,-0.473 0.2465,0 0.3997,0.18654 0.3997,0.47966 v 2.79135 h 0.5597 v -2.78469 c 0,-0.5596 -0.3065,-0.94599 -0.7728,-0.94599 -0.3398,0 -0.5663,0.19986 -0.6263,0.51963 h -0.01 c -0.093,-0.31977 -0.3265,-0.51963 -0.6462,-0.51963 -0.3331,0 -0.5663,0.21984 -0.6129,0.55294 h -0.013 v -0.48632 h -0.5197 z m 5.5961,0.0533 c 0.8793,0 1.4389,-0.53962 1.4389,-1.46563 v -0.8394 c 0,-0.93267 -0.5529,-1.46563 -1.4389,-1.46563 -0.8861,0 -1.439,0.53296 -1.439,1.46563 v 0.8394 c 0,0.92601 0.5596,1.46563 1.439,1.46563 z m 0,-0.53296 c -0.5197,0 -0.8395,-0.29978 -0.8395,-0.86605 v -0.97264 c 0,-0.56627 0.3198,-0.86605 0.8395,-0.86605 0.5196,0 0.8394,0.29978 0.8394,0.86605 v 0.97264 c 0,0.56627 -0.3198,0.86605 -0.8394,0.86605 z m 2.6114,0.47966 h 0.5996 v -2.33168 c 0,-0.56626 0.3065,-0.8927 0.8061,-0.8927 0.4797,0 0.7795,0.30645 0.7795,0.86606 v 2.35832 h 0.5995 v -2.46491 c 0,-0.77945 -0.473,-1.26577 -1.2058,-1.26577 -0.5596,0 -0.9127,0.2798 -0.9726,0.76612 h -0.01 v -0.6995 h -0.5996 z m 4.4569,1.19915 h 1.0259 c 0.7861,0 1.2791,-0.45967 1.2791,-1.19915 v -3.66406 h -0.5929 v 0.63288 h -0.013 c -0.073,-0.43302 -0.4397,-0.6995 -0.966,-0.6995 -0.7528,0 -1.2191,0.52629 -1.2191,1.35903 v 0.77279 c 0,0.8394 0.4663,1.34571 1.2191,1.34571 0.5263,0 0.8927,-0.24649 0.966,-0.67952 h 0.02 l -0.013,0.59958 v 0.33309 c 0,0.39972 -0.2598,0.65287 -0.6728,0.65287 h -1.0326 z m 0.9127,-1.95195 c -0.5063,0 -0.7995,-0.31311 -0.7995,-0.81275 v -0.83274 c 0,-0.49965 0.2932,-0.81276 0.7995,-0.81276 0.4929,0 0.7994,0.32643 0.7994,0.87937 v 0.69951 c 0,0.55294 -0.3065,0.87937 -0.7994,0.87937 z m 4.0105,0.8061 c 0.8793,0 1.4389,-0.53962 1.4389,-1.46563 v -0.8394 c 0,-0.93267 -0.5529,-1.46563 -1.4389,-1.46563 -0.8861,0 -1.439,0.53296 -1.439,1.46563 v 0.8394 c 0,0.92601 0.5596,1.46563 1.439,1.46563 z m 0,-0.53296 c -0.5197,0 -0.8395,-0.29978 -0.8395,-0.86605 v -0.97264 c 0,-0.56627 0.3198,-0.86605 0.8395,-0.86605 0.5196,0 0.8394,0.29978 0.8394,0.86605 v 0.97264 c 0,0.56627 -0.3198,0.86605 -0.8394,0.86605 z m 3.7839,0.54628 c 0.553,0 0.926,-0.28646 0.9927,-0.76612 h 0.01 v 0.6995 h 0.5996 v -4.86321 h -0.5996 v 1.06591 l 0.013,0.83274 h -0.01 c -0.067,-0.473 -0.4597,-0.76612 -1.006,-0.76612 -0.7394,0 -1.2058,0.51963 -1.2058,1.3657 v 1.07257 c 0,0.8394 0.473,1.35903 1.2058,1.35903 z m 0.1999,-0.51963 c -0.5063,0 -0.8061,-0.24649 -0.8061,-0.84606 v -1.06591 c 0,-0.59958 0.2998,-0.84607 0.8061,-0.84607 0.493,0 0.7994,0.32643 0.7994,0.87937 v 0.9993 c 0,0.55294 -0.3064,0.87937 -0.7994,0.87937 z m 4.2237,0.51963 c 0.7328,0 1.2058,-0.51963 1.2058,-1.35903 v -1.07257 c 0,-0.84607 -0.4664,-1.3657 -1.2058,-1.3657 -0.5463,0 -0.9394,0.29312 -1.006,0.76612 h -0.01 l 0.013,-0.83274 v -1.06591 h -0.5996 v 4.86321 h 0.5996 v -0.6995 h 0.01 c 0.06,0.47966 0.4397,0.76612 0.9927,0.76612 z m -0.1999,-0.51963 c -0.493,0 -0.7994,-0.32643 -0.7994,-0.87937 v -0.9993 c 0,-0.55294 0.3064,-0.87937 0.7994,-0.87937 0.5063,0 0.8061,0.24649 0.8061,0.84607 v 1.06591 c 0,0.59957 -0.2998,0.84606 -0.8061,0.84606 z m 3.9839,-2.29171 c 0.3664,0 0.5529,-0.19319 0.5529,-0.49298 0,-0.29979 -0.1865,-0.49298 -0.5529,-0.49298 -0.3665,0 -0.553,0.19319 -0.553,0.49298 0,0.29979 0.1865,0.49298 0.553,0.49298 z m 0,2.81134 c 0.3664,0 0.5529,-0.19319 0.5529,-0.49298 0,-0.29979 -0.1865,-0.49298 -0.5529,-0.49298 -0.3665,0 -0.553,0.19319 -0.553,0.49298 0,0.29979 0.1865,0.49298 0.553,0.49298 z m 5.9957,0.6662 h 0.6329 l 2.365,-6.26223 h -0.6329 z m -2.9979,0 h 0.6329 l 2.365,-6.26223 h -0.6329 z m 9.0469,-0.6662 c 0.8461,0 1.4057,-0.48632 1.4324,-1.26577 h -0.5996 c -0.027,0.46634 -0.3398,0.73282 -0.8328,0.73282 -0.5262,0 -0.866,-0.31311 -0.866,-0.86605 v -1.00596 c 0,-0.54628 0.3398,-0.85939 0.866,-0.85939 0.493,0 0.8061,0.26648 0.8328,0.73282 h 0.5996 c -0.027,-0.77945 -0.5863,-1.26577 -1.4324,-1.26577 -0.886,0 -1.4656,0.52629 -1.4656,1.399 v 0.9993 c 0,0.87271 0.5796,1.399 1.4656,1.399 z m 3.9439,-0.0133 c 0.8794,0 1.439,-0.53962 1.439,-1.46563 v -0.8394 c 0,-0.93267 -0.5529,-1.46563 -1.439,-1.46563 -0.886,0 -1.439,0.53296 -1.439,1.46563 v 0.8394 c 0,0.92601 0.5596,1.46563 1.439,1.46563 z m 0,-0.53296 c -0.5196,0 -0.8394,-0.29978 -0.8394,-0.86605 v -0.97264 c 0,-0.56627 0.3198,-0.86605 0.8394,-0.86605 0.5197,0 0.8394,0.29978 0.8394,0.86605 v 0.97264 c 0,0.56627 -0.3197,0.86605 -0.8394,0.86605 z m 2.6115,0.47966 h 0.5996 v -2.33168 c 0,-0.56626 0.3064,-0.8927 0.8061,-0.8927 0.4796,0 0.7794,0.30645 0.7794,0.86606 v 2.35832 h 0.5996 v -2.46491 c 0,-0.77945 -0.473,-1.26577 -1.2058,-1.26577 -0.5596,0 -0.9127,0.2798 -0.9727,0.76612 h -0.01 v -0.6995 h -0.5996 z m 5.7493,0 h 1.0659 v -0.54628 h -1.0659 c -0.2399,0 -0.3998,-0.16654 -0.3998,-0.4197 v -2.1518 h 1.499 v -0.54628 h -1.499 v -1.0326 h -0.5995 v 1.0326 h -1.0526 v 0.54628 h 1.0526 v 2.1518 c 0,0.58625 0.393,0.96598 0.9993,0.96598 z m 3.3109,0.0666 c 0.6263,0 1.0326,-0.2798 1.0993,-0.73281 h 0.013 v 0.66619 h 0.5929 v -2.51821 c 0,-0.76612 -0.493,-1.21247 -1.379,-1.21247 -0.8194,0 -1.3391,0.42636 -1.3857,0.99929 h 0.5996 c 0.02,-0.29979 0.3197,-0.47966 0.7861,-0.47966 0.5263,0 0.7794,0.23317 0.7794,0.71283 v 0.28646 h -1.1325 c -0.7128,0 -1.2058,0.45967 -1.2058,1.13253 0,0.68618 0.473,1.14585 1.2324,1.14585 z m 0.1466,-0.5063 c -0.4796,0 -0.7661,-0.25316 -0.7661,-0.65954 0,-0.38639 0.2665,-0.6462 0.6595,-0.6462 h 1.0659 v 0.51296 c 0,0.48633 -0.373,0.79278 -0.9593,0.79278 z m 4.2703,-3.88392 c 0.2931,0 0.473,-0.15988 0.473,-0.4197 0,-0.26648 -0.1799,-0.43302 -0.473,-0.43302 -0.2931,0 -0.473,0.16654 -0.473,0.43302 0,0.25982 0.1799,0.4197 0.473,0.4197 z m -1.5322,4.3236 h 3.1311 v -0.54628 h -1.2325 v -3.11778 h -1.7654 v 0.54628 h 1.1658 v 2.5715 h -1.299 z m 4.0438,0 h 0.5995 v -2.33168 c 0,-0.56626 0.3065,-0.8927 0.8061,-0.8927 0.4797,0 0.7795,0.30645 0.7795,0.86606 v 2.35832 h 0.5996 v -2.46491 c 0,-0.77945 -0.473,-1.26577 -1.2059,-1.26577 -0.5596,0 -0.9126,0.2798 -0.9726,0.76612 h -0.01 v -0.6995 h -0.5995 z m 5.3828,0.0666 c 0.7728,0 1.3324,-0.38639 1.4124,-0.99929 h -0.5996 c -0.06,0.29313 -0.3664,0.47966 -0.8128,0.47966 -0.5196,0 -0.8527,-0.33976 -0.8527,-0.87937 v -0.34643 h 2.2917 v -0.65287 c 0,-0.84606 -0.5729,-1.399 -1.439,-1.399 -0.866,0 -1.439,0.55294 -1.439,1.46562 v 0.86606 c 0,0.91268 0.573,1.46562 1.439,1.46562 z m -0.8527,-2.21176 v -0.18654 c 0,-0.57958 0.3131,-0.90602 0.8527,-0.90602 0.5396,0 0.8527,0.32644 0.8527,0.90602 v 0.18654 z m 3.5974,2.14514 h 0.5996 v -2.33168 c 0,-0.56626 0.2798,-0.87937 0.8061,-0.87937 0.5063,0 0.7795,0.25981 0.7795,0.79943 v 0.31311 h 0.5995 v -0.31311 c 0,-0.8394 -0.433,-1.31906 -1.1925,-1.31906 -0.5662,0 -0.9193,0.29312 -0.9793,0.76612 h -0.013 v -0.6995 h -0.5996 z"
       id="text18"
       aria-label="mongodb://container" /></g><style
     type="text/css"
     id="style1">
	.st0{fill:#009FE3;}
</style></svg>
