<?xml version="1.0" encoding="UTF-8" standalone="no"?>
<!-- Created with Inkscape (http://www.inkscape.org/) -->

<svg
   width="635.76038mm"
   height="303.76126mm"
   viewBox="0 0 635.76038 303.76126"
   version="1.1"
   id="svg1"
   inkscape:version="1.3.2 (091e20ef0f, 2023-11-25)"
   sodipodi:docname="ComposeLayout.svg"
   xml:space="preserve"
   xmlns:inkscape="http://www.inkscape.org/namespaces/inkscape"
   xmlns:sodipodi="http://sodipodi.sourceforge.net/DTD/sodipodi-0.dtd"
   xmlns="http://www.w3.org/2000/svg"
   xmlns:svg="http://www.w3.org/2000/svg"><sodipodi:namedview
     id="namedview1"
     pagecolor="#505050"
     bordercolor="#eeeeee"
     borderopacity="1"
     inkscape:showpageshadow="0"
     inkscape:pageopacity="0"
     inkscape:pagecheckerboard="0"
     inkscape:deskcolor="#505050"
     inkscape:document-units="mm"
     inkscape:zoom="0.4138616"
     inkscape:cx="1146.5185"
     inkscape:cy="494.12654"
     inkscape:window-width="1888"
     inkscape:window-height="979"
     inkscape:window-x="26"
     inkscape:window-y="23"
     inkscape:window-maximized="0"
     inkscape:current-layer="layer1"
     showguides="false"><sodipodi:guide
       position="317.88018,33.961209"
       orientation="1,0"
       id="guide2"
       inkscape:locked="false" /><sodipodi:guide
       position="307.09175,39.527869"
       orientation="0,-1"
       id="guide3"
       inkscape:locked="false" /><sodipodi:guide
       position="192.785,53.265909"
       orientation="0.70710678,-0.70710678"
       id="guide4"
       inkscape:locked="false" /></sodipodi:namedview><defs
     id="defs1">
	

		
		
		
		
		
		
		
		
		
		
		
		
	</defs><g
     inkscape:label="Layer 1"
     inkscape:groupmode="layer"
     id="layer1"
     transform="translate(-609.20129,667.27045)"><g
       id="g24"
       transform="translate(1.4909289e-5,-1.3731384)"><rect
         style="fill:#161b22;fill-opacity:1;stroke:#ffffff;stroke-width:0.694;stroke-linecap:round;stroke-dasharray:none"
         id="rect2"
         width="128"
         height="128"
         x="615.91931"
         y="-496.854"
         rx="5.9979587"
         ry="5.9979587" /><text
         xml:space="preserve"
         style="font-weight:500;font-size:19.7556px;font-family:Inter;-inkscape-font-specification:'Inter Medium';text-align:start;letter-spacing:0px;text-anchor:start;fill:none;fill-opacity:1;stroke:#ffffff;stroke-width:7.01146;stroke-linecap:round;stroke-dasharray:none"
         x="637.25116"
         y="-433.89157"
         id="text2"><tspan
           sodipodi:role="line"
           style="font-style:normal;font-variant:normal;font-weight:500;font-stretch:normal;font-size:19.7556px;font-family:Inter;-inkscape-font-specification:'Inter Medium';text-align:start;text-anchor:start;fill:#ffffff;stroke:none;stroke-width:7.01146"
           x="637.25116"
           y="-433.89157"
           id="tspan3">Frontend</tspan></text><text
         xml:space="preserve"
         style="font-weight:500;font-size:7.76111px;font-family:Inter;-inkscape-font-specification:'Inter Medium';text-align:start;letter-spacing:1.32292px;text-anchor:start;fill:none;fill-opacity:1;stroke:#ffffff;stroke-width:7.01146;stroke-linecap:round;stroke-dasharray:none"
         x="659.68695"
         y="-417.53412"
         id="text2-6"><tspan
           sodipodi:role="line"
           style="font-style:normal;font-variant:normal;font-weight:600;font-stretch:normal;font-size:7.76111px;font-family:Inter;-inkscape-font-specification:'Inter Semi-Bold';text-align:start;letter-spacing:1.32292px;text-anchor:start;fill:#ffffff;stroke:none;stroke-width:7.01146"
           x="659.68695"
           y="-417.53412"
           id="tspan3-2">NEXT.JS</tspan></text></g><rect
       style="fill:#161b22;fill-opacity:1;stroke:#ffffff;stroke-width:0.694;stroke-linecap:round;stroke-dasharray:none"
       id="rect2-5"
       width="128"
       height="128"
       x="615.91931"
       y="-660.55249"
       rx="5.9979587"
       ry="5.9979587" /><text
       xml:space="preserve"
       style="font-weight:500;font-size:7.76111px;font-family:Inter;-inkscape-font-specification:'Inter Medium';text-align:center;letter-spacing:1.32292px;text-anchor:middle;fill:none;fill-opacity:1;stroke:#ffffff;stroke-width:7.01146;stroke-linecap:round;stroke-dasharray:none"
       x="680.58075"
       y="-628.75952"
       id="text2-6-1"><tspan
         sodipodi:role="line"
         style="font-style:normal;font-variant:normal;font-weight:600;font-stretch:normal;font-size:7.76111px;font-family:Inter;-inkscape-font-specification:'Inter Semi-Bold';text-align:center;letter-spacing:1.32292px;text-anchor:middle;fill:#ffffff;stroke:none;stroke-width:7.01146"
         x="680.58075"
         y="-628.75952"
         id="tspan3-2-2" /><tspan
         sodipodi:role="line"
         style="font-style:normal;font-variant:normal;font-weight:600;font-stretch:normal;font-size:7.76111px;font-family:Inter;-inkscape-font-specification:'Inter Semi-Bold';text-align:center;letter-spacing:1.32292px;text-anchor:middle;fill:#ffffff;stroke:none;stroke-width:7.01146"
         x="680.58075"
         y="-619.05811"
         id="tspan9">CONTAINERIZED</tspan><tspan
         sodipodi:role="line"
         style="font-style:normal;font-variant:normal;font-weight:600;font-stretch:normal;font-size:7.76111px;font-family:Inter;-inkscape-font-specification:'Inter Semi-Bold';text-align:center;letter-spacing:1.32292px;text-anchor:middle;fill:#ffffff;stroke:none;stroke-width:7.01146"
         x="680.58075"
         y="-609.35675"
         id="tspan10">FIREFOX</tspan><tspan
         sodipodi:role="line"
         style="font-style:normal;font-variant:normal;font-weight:600;font-stretch:normal;font-size:7.76111px;font-family:Inter;-inkscape-font-specification:'Inter Semi-Bold';text-align:center;letter-spacing:1.32292px;text-anchor:middle;fill:#ffffff;stroke:none;stroke-width:7.01146"
         x="681.24219"
         y="-599.65533"
         id="tspan7">INSTANCE</tspan></text><g
       id="g5"
       transform="translate(0,12.384016)"><rect
         style="fill:#161b22;fill-opacity:1;stroke:#ffffff;stroke-width:0.694;stroke-linecap:round;stroke-dasharray:none"
         id="rect2-5-6"
         width="106.88251"
         height="26.449663"
         x="-733.36053"
         y="555.4953"
         rx="1.7550731"
         ry="1.7550731"
         transform="scale(-1)" /><text
         xml:space="preserve"
         style="font-weight:500;font-size:7.76111px;font-family:Inter;-inkscape-font-specification:'Inter Medium';text-align:start;letter-spacing:1.32292px;text-anchor:start;fill:none;fill-opacity:1;stroke:#ffffff;stroke-width:7.01146;stroke-linecap:round;stroke-dasharray:none"
         x="679.88898"
         y="-570.07703"
         id="text2-6-1-1"><tspan
           sodipodi:role="line"
           style="font-style:normal;font-variant:normal;font-weight:600;font-stretch:normal;font-size:7.76111px;font-family:Inter;-inkscape-font-specification:'Inter Semi-Bold';text-align:center;letter-spacing:1.32292px;text-anchor:middle;fill:#ffffff;stroke:none;stroke-width:7.01146"
           x="679.88898"
           y="-570.07703"
           id="tspan3-2-2-8">CLIENT-SIDE</tspan><tspan
           sodipodi:role="line"
           style="font-style:normal;font-variant:normal;font-weight:600;font-stretch:normal;font-size:7.76111px;font-family:Inter;-inkscape-font-specification:'Inter Semi-Bold';text-align:center;letter-spacing:1.32292px;text-anchor:middle;fill:#ffffff;stroke:none;stroke-width:7.01146"
           x="680.55042"
           y="-560.37561"
           id="tspan2">COMPONENTS</tspan></text></g><g
       id="g22"
       transform="translate(0,1.3731384)"><rect
         style="fill:#161b22;fill-opacity:1;stroke:#ffffff;stroke-width:0.694;stroke-linecap:round;stroke-dasharray:none"
         id="rect2-53"
         width="128"
         height="128"
         x="863.08148"
         y="-499.60028"
         rx="5.9979587"
         ry="5.9979587" /><text
         xml:space="preserve"
         style="font-weight:500;font-size:7.76111px;font-family:Inter;-inkscape-font-specification:'Inter Medium';text-align:start;letter-spacing:1.32292px;text-anchor:start;fill:none;fill-opacity:1;stroke:#ffffff;stroke-width:7.01146;stroke-linecap:round;stroke-dasharray:none"
         x="890.96173"
         y="-420.27631"
         id="text2-6-9"><tspan
           sodipodi:role="line"
           style="font-style:normal;font-variant:normal;font-weight:600;font-stretch:normal;font-size:7.76111px;font-family:Inter;-inkscape-font-specification:'Inter Semi-Bold';text-align:start;letter-spacing:1.32292px;text-anchor:start;fill:#ffffff;stroke:none;stroke-width:7.01146"
           x="890.96173"
           y="-420.27631"
           id="tspan6">DJANGO + DRF</tspan></text><text
         xml:space="preserve"
         style="font-weight:500;font-size:19.7556px;font-family:Inter;-inkscape-font-specification:'Inter Medium';text-align:start;letter-spacing:0px;text-anchor:start;fill:none;fill-opacity:1;stroke:#ffffff;stroke-width:7.01146;stroke-linecap:round;stroke-dasharray:none"
         x="886.23383"
         y="-436.63376"
         id="text2-5"><tspan
           sodipodi:role="line"
           style="font-style:normal;font-variant:normal;font-weight:500;font-stretch:normal;font-size:19.7556px;font-family:Inter;-inkscape-font-specification:'Inter Medium';text-align:start;text-anchor:start;fill:#ffffff;stroke:none;stroke-width:7.01146"
           x="886.23383"
           y="-436.63376"
           id="tspan3-6">Backend</tspan></text></g><g
       id="g20"
       transform="translate(0,-1.0261536)"><rect
         style="fill:#161b22;fill-opacity:1;stroke:#ffffff;stroke-width:0.694;stroke-linecap:round;stroke-dasharray:none"
         id="rect2-53-2"
         width="128"
         height="128"
         x="1110.2437"
         y="-497.20099"
         rx="5.9979587"
         ry="5.9979587" /><text
         xml:space="preserve"
         style="font-weight:500;font-size:7.76111px;font-family:Inter;-inkscape-font-specification:'Inter Medium';text-align:start;letter-spacing:1.32292px;text-anchor:start;fill:none;fill-opacity:1;stroke:#ffffff;stroke-width:7.01146;stroke-linecap:round;stroke-dasharray:none"
         x="1149.4664"
         y="-417.88751"
         id="text2-6-9-5"><tspan
           sodipodi:role="line"
           style="font-style:normal;font-variant:normal;font-weight:600;font-stretch:normal;font-size:7.76111px;font-family:Inter;-inkscape-font-specification:'Inter Semi-Bold';text-align:start;letter-spacing:1.32292px;text-anchor:start;fill:#ffffff;stroke:none;stroke-width:7.01146"
           x="1149.4664"
           y="-417.88751"
           id="tspan6-9">MONGODB</tspan></text><text
         xml:space="preserve"
         style="font-weight:500;font-size:19.7556px;font-family:Inter;-inkscape-font-specification:'Inter Medium';text-align:start;letter-spacing:0px;text-anchor:start;fill:none;fill-opacity:1;stroke:#ffffff;stroke-width:7.01146;stroke-linecap:round;stroke-dasharray:none"
         x="1128.9728"
         y="-434.22391"
         id="text2-5-7"><tspan
           sodipodi:role="line"
           style="font-style:normal;font-variant:normal;font-weight:500;font-stretch:normal;font-size:19.7556px;font-family:Inter;-inkscape-font-specification:'Inter Medium';text-align:start;text-anchor:start;fill:#ffffff;stroke:none;stroke-width:7.01146"
           x="1128.9728"
           y="-434.22391"
           id="tspan3-6-0">Database</tspan></text></g><text
       xml:space="preserve"
       style="font-style:normal;font-variant:normal;font-weight:normal;font-stretch:normal;font-size:7.7611px;font-family:'JetBrains Mono';-inkscape-font-specification:'JetBrains Mono';letter-spacing:0px;fill:none;stroke:#ffffff;stroke-width:0.693999;stroke-linecap:round;stroke-dasharray:none"
       x="1028.7339"
       y="-437.92307"
       id="text14-7"><tspan
         sodipodi:role="line"
         id="tspan14-3"
         style="font-style:normal;font-variant:normal;font-weight:normal;font-stretch:normal;font-family:'JetBrains Mono';-inkscape-font-specification:'JetBrains Mono';letter-spacing:0px;fill:#ffffff;stroke:none;stroke-width:0.694"
         x="1028.7339"
         y="-437.92307" /></text><path
       style="font-weight:600;font-size:6.16702px;font-family:Inter;-inkscape-font-specification:'Inter Semi-Bold';letter-spacing:1.0512px;fill:#ffffff;stroke-width:0.551458;stroke-linecap:round"
       d="m 1031.5526,-422.00638 v -4.4851 h 1.6819 q 0.5169,0 0.8673,0.19272 0.3525,0.19272 0.5321,0.52997 0.1818,0.33507 0.1818,0.76212 0,0.43143 -0.1818,0.7665 -0.1817,0.33507 -0.5365,0.52779 -0.3548,0.19053 -0.8738,0.19053 h -1.1147 v -0.66795 h 1.0052 q 0.3022,0 0.4949,-0.10512 0.1927,-0.10512 0.2847,-0.28908 0.094,-0.18396 0.094,-0.42267 0,-0.23871 -0.094,-0.42048 -0.092,-0.18177 -0.2869,-0.28251 -0.1927,-0.10293 -0.4971,-0.10293 h -0.7446 v 3.80621 z m 4.7129,-4.4851 h 0.9176 l 1.0972,1.98413 h 0.044 l 1.0972,-1.98413 h 0.9176 l -1.6316,2.81195 v 1.67315 h -0.8103 v -1.67315 z m 5.7027,0 h 0.9943 l 1.3315,3.24995 h 0.053 l 1.3315,-3.24995 h 0.9942 v 4.4851 h -0.7796 v -3.08132 h -0.042 l -1.2396,3.06818 h -0.5825 l -1.2395,-3.07475 h -0.042 v 3.08789 h -0.7797 z m 10.6478,2.24255 q 0,0.72489 -0.2716,1.24173 -0.2694,0.51464 -0.7358,0.78839 -0.4643,0.27375 -1.0534,0.27375 -0.5891,0 -1.0556,-0.27375 -0.4643,-0.27594 -0.7358,-0.79058 -0.2694,-0.51684 -0.2694,-1.23954 0,-0.72489 0.2694,-1.23954 0.2715,-0.51684 0.7358,-0.79058 0.4665,-0.27375 1.0556,-0.27375 0.5891,0 1.0534,0.27375 0.4664,0.27374 0.7358,0.79058 0.2716,0.51465 0.2716,1.23954 z m -0.8169,0 q 0,-0.51027 -0.1599,-0.86067 -0.1576,-0.35259 -0.438,-0.53217 -0.2803,-0.18177 -0.646,-0.18177 -0.3657,0 -0.6461,0.18177 -0.2803,0.17958 -0.4402,0.53217 -0.1576,0.3504 -0.1576,0.86067 0,0.51027 0.1576,0.86286 0.1599,0.3504 0.4402,0.53216 0.2804,0.17958 0.6461,0.17958 0.3657,0 0.646,-0.17958 0.2804,-0.18176 0.438,-0.53216 0.1599,-0.35259 0.1599,-0.86286 z m 6.3247,-2.24255 v 4.4851 h -0.7227 l -2.1133,-3.05504 h -0.037 v 3.05504 h -0.8125 v -4.4851 h 0.7271 l 2.1112,3.05723 h 0.039 v -3.05723 z m 4.9384,1.43225 q -0.055,-0.17739 -0.1511,-0.31755 -0.094,-0.14235 -0.2277,-0.24309 -0.1314,-0.10074 -0.3022,-0.15111 -0.1709,-0.0526 -0.3723,-0.0526 -0.3614,0 -0.6439,0.18177 -0.2825,0.18177 -0.4446,0.53436 -0.1598,0.3504 -0.1598,0.8541 0,0.50808 0.1598,0.86067 0.1599,0.35259 0.4446,0.53654 0.2847,0.18177 0.6614,0.18177 0.3416,0 0.5913,-0.1314 0.2518,-0.1314 0.3876,-0.37229 0.1358,-0.24309 0.1358,-0.5694 l 0.1839,0.0285 h -1.2176 v -0.6351 h 1.8199 v 0.53874 q 0,0.57597 -0.2453,0.99644 -0.2453,0.42048 -0.6745,0.64824 -0.4292,0.22557 -0.9855,0.22557 -0.6198,0 -1.0884,-0.27813 -0.4665,-0.28032 -0.7293,-0.79496 -0.2606,-0.51684 -0.2606,-1.2264 0,-0.54312 0.1533,-0.97017 0.1555,-0.42705 0.4336,-0.72489 0.2781,-0.30002 0.6526,-0.45551 0.3745,-0.15768 0.8147,-0.15768 0.3723,0 0.6942,0.1095 0.322,0.10731 0.5716,0.3066 0.2519,0.19928 0.4139,0.47303 0.1621,0.27375 0.2125,0.60444 z m 6.7102,0.8103 q 0,0.72489 -0.2716,1.24173 -0.2693,0.51464 -0.7358,0.78839 -0.4643,0.27375 -1.0534,0.27375 -0.5891,0 -1.0556,-0.27375 -0.4642,-0.27594 -0.7358,-0.79058 -0.2694,-0.51684 -0.2694,-1.23954 0,-0.72489 0.2694,-1.23954 0.2716,-0.51684 0.7358,-0.79058 0.4665,-0.27375 1.0556,-0.27375 0.5891,0 1.0534,0.27375 0.4665,0.27374 0.7358,0.79058 0.2716,0.51465 0.2716,1.23954 z m -0.8169,0 q 0,-0.51027 -0.1598,-0.86067 -0.1577,-0.35259 -0.438,-0.53217 -0.2804,-0.18177 -0.6461,-0.18177 -0.3657,0 -0.646,0.18177 -0.2804,0.17958 -0.4402,0.53217 -0.1577,0.3504 -0.1577,0.86067 0,0.51027 0.1577,0.86286 0.1598,0.3504 0.4402,0.53216 0.2803,0.17958 0.646,0.17958 0.3657,0 0.6461,-0.17958 0.2803,-0.18176 0.438,-0.53216 0.1598,-0.35259 0.1598,-0.86286 z"
       id="text14-1-5"
       aria-label="PYMONGO" /><path
       style="fill:none;fill-opacity:1;stroke:#ffffff;stroke-width:0.694;stroke-linecap:round;stroke-dasharray:none"
       d="m 755.62774,-433.20099 h 95.74532"
       id="path13"
       sodipodi:nodetypes="cc" /><path
       style="fill:none;fill-opacity:1;stroke:#ffffff;stroke-width:0.694;stroke-linecap:round;stroke-dasharray:4.164, 4.164;stroke-dashoffset:0"
       d="m 679.91931,-538.57344 v 40.3463"
       id="path13-2"
       sodipodi:nodetypes="cc" /><path
       style="fill:none;fill-opacity:1;stroke:#ffffff;stroke-width:0.694;stroke-linecap:round;stroke-dasharray:4.164, 4.164;stroke-dashoffset:0"
       d="m 927.08148,-556.33611 -193.72095,0"
       id="path13-2-1"
       sodipodi:nodetypes="cc" /><path
       style="fill:none;fill-opacity:1;stroke:#ffffff;stroke-width:0.694;stroke-linecap:round;stroke-dasharray:4.164, 4.164;stroke-dashoffset:0"
       d="m 927.08148,-556.33611 v 58.10897"
       id="path13-2-6"
       sodipodi:nodetypes="cc" /><path
       id="text14"
       style="font-style:normal;font-variant:normal;font-weight:600;font-stretch:normal;font-size:10.5833px;font-family:Inter;-inkscape-font-specification:'Inter Semi-Bold';letter-spacing:1.71295px;fill:#ffffff;stroke:none;stroke-width:0.898609;stroke-linecap:round;stroke-dasharray:none"
       d="m 790.24083,-448.52687 c -0.53869,0 -1.021,0.0953 -1.44694,0.28577 -0.42594,0.18792 -0.76275,0.45197 -1.01079,0.79272 -0.24554,0.34075 -0.36846,0.73816 -0.36846,1.19166 0,0.55121 0.183,0.9933 0.54881,1.32653 0.36831,0.33073 0.86937,0.57767 1.50327,0.74052 l 0.87591,0.22531 c 0.27561,0.0702 0.51595,0.15062 0.7214,0.24082 0.20796,0.0877 0.36948,0.19793 0.48473,0.33073 0.11525,0.13028 0.17423,0.29565 0.17673,0.49609 -0.003,0.22048 -0.0692,0.41341 -0.19947,0.57878 -0.13029,0.16285 -0.31054,0.29021 -0.54105,0.38292 -0.228,0.0902 -0.49368,0.13539 -0.79685,0.13539 -0.29064,0 -0.55358,-0.0436 -0.7891,-0.13126 -0.23301,-0.0877 -0.42209,-0.22053 -0.56741,-0.39842 -0.14532,-0.1779 -0.228,-0.40112 -0.24804,-0.66921 h -1.37201 c 0.02,0.51112 0.15288,0.94491 0.39842,1.30069 0.24805,0.35579 0.59145,0.62643 1.02991,0.81184 0.44097,0.18541 0.96078,0.27802 1.5596,0.27802 0.61635,0 1.14112,-0.0953 1.57458,-0.28577 0.43596,-0.19293 0.76943,-0.45972 0.99994,-0.80047 0.2305,-0.34326 0.34571,-0.74067 0.34571,-1.19166 0,-0.33323 -0.0628,-0.62373 -0.1881,-0.87178 -0.12528,-0.24805 -0.29561,-0.45972 -0.51108,-0.6351 -0.21297,-0.17539 -0.45442,-0.3209 -0.72502,-0.43615 -0.26809,-0.11526 -0.54755,-0.20624 -0.83819,-0.27389 l -0.7214,-0.18087 c -0.15785,-0.0376 -0.3144,-0.0839 -0.46974,-0.139 -0.15535,-0.0551 -0.297,-0.1224 -0.42478,-0.20258 -0.12779,-0.0827 -0.22921,-0.18299 -0.30438,-0.30075 -0.0727,-0.11776 -0.10904,-0.25668 -0.10904,-0.41703 0.003,-0.19293 0.0587,-0.36489 0.16899,-0.51522 0.11024,-0.15033 0.26953,-0.26939 0.47749,-0.35708 0.20795,-0.0877 0.45712,-0.13126 0.74775,-0.13126 0.41341,0 0.74911,0.0915 1.00718,0.2744 0.26057,0.18291 0.40831,0.43814 0.44338,0.76636 h 1.34152 c -0.008,-0.43345 -0.1288,-0.81656 -0.36432,-1.1498 -0.23551,-0.33573 -0.56017,-0.59756 -0.97358,-0.78548 -0.4109,-0.19042 -0.88937,-0.28577 -1.43557,-0.28577 z m -19.49235,0.10542 v 7.69669 h 1.39423 v -2.81843 h 1.41903 l 1.51257,2.81843 h 1.55598 l -1.66812,-3.05201 c 0.0498,-0.0201 0.10263,-0.0372 0.14987,-0.06 0.40589,-0.19793 0.7124,-0.47688 0.92035,-0.83767 0.21047,-0.3633 0.31575,-0.79212 0.31575,-1.28571 0,-0.49108 -0.10365,-0.9205 -0.31161,-1.28881 -0.20545,-0.37082 -0.51025,-0.65909 -0.91364,-0.86455 -0.40088,-0.20545 -0.89698,-0.30799 -1.48828,-0.30799 z m 8.59792,0 v 7.69669 h 5.03639 v -1.16892 h -3.64216 v -2.10065 h 3.35277 v -1.16892 h -3.35277 v -2.08928 h 3.61167 v -1.16892 z m 16.38815,0 v 1.16892 h 2.37918 v 6.52777 h 1.38286 v -6.52777 h 2.37919 v -1.16892 z m 15.58406,0 -2.70991,7.69669 h 1.48828 l 0.63665,-1.89756 h 2.89388 l 0.63769,1.89756 h 1.48828 l -2.71353,-7.69669 z m 7.16236,0 v 7.69669 h 1.39423 v -2.60036 h 1.47329 c 0.59381,0 1.09376,-0.10913 1.49965,-0.32711 0.40589,-0.22049 0.71292,-0.52254 0.92087,-0.90589 0.20796,-0.38334 0.31213,-0.82158 0.31213,-1.31516 0,-0.48858 -0.10417,-0.92459 -0.31213,-1.30793 -0.20545,-0.38585 -0.50973,-0.68902 -0.91312,-0.90951 -0.40088,-0.22048 -0.89698,-0.33073 -1.48828,-0.33073 z m 8.52299,0 v 7.69669 h 1.39423 v -7.69669 z m -54.86125,1.16479 h 1.27796 c 0.34826,0 0.63269,0.0513 0.85317,0.15399 0.22049,0.10022 0.38423,0.24847 0.49196,0.4439 0.10774,0.19293 0.16175,0.42557 0.16175,0.69867 0,0.2731 -0.054,0.50403 -0.16175,0.69195 -0.10523,0.18541 -0.26785,0.32655 -0.48834,0.42426 -0.22048,0.0952 -0.5038,0.14314 -0.84956,0.14314 h -1.28519 z m 47.73249,0 h 1.27795 c 0.34827,0 0.6327,0.059 0.85318,0.17673 0.22299,0.11526 0.38725,0.27677 0.49248,0.48473 0.10773,0.20795 0.16123,0.44882 0.16123,0.72192 0,0.2731 -0.0535,0.51455 -0.16123,0.72502 -0.10523,0.21046 -0.26838,0.37583 -0.48886,0.49609 -0.22049,0.12027 -0.50328,0.18035 -0.84905,0.18035 h -1.2857 z m -7.72615,0.41341 h 0.0605 l 1.0418,3.10059 h -2.14199 z m 21.65656,0.27078 c -0.46101,0 -0.86784,0.0728 -1.22111,0.21808 -0.35077,0.14281 -0.62527,0.34567 -0.82321,0.60875 -0.19543,0.26057 -0.29189,0.56871 -0.28939,0.92449 -0.003,0.42092 0.12871,0.76929 0.39429,1.0449 0.26559,0.2731 0.67567,0.46714 1.22939,0.58239 l 0.98443,0.20671 c 0.26559,0.0576 0.46125,0.14031 0.58653,0.24804 0.12778,0.10774 0.1912,0.24443 0.1912,0.4098 0,0.19543 -0.0987,0.35968 -0.29662,0.49247 -0.19543,0.13279 -0.45504,0.19896 -0.77825,0.19896 -0.31319,0 -0.56731,-0.0662 -0.76274,-0.19896 -0.19543,-0.13279 -0.32331,-0.32957 -0.38344,-0.59014 l -1.32653,0.12764 c 0.0827,0.53117 0.33954,0.94569 0.77049,1.24385 0.43095,0.29565 0.9998,0.44338 1.70636,0.44338 0.48106,0 0.90662,-0.0772 1.27744,-0.23254 0.37081,-0.15534 0.66021,-0.37087 0.86816,-0.64647 0.21047,-0.27811 0.31737,-0.59892 0.31988,-0.96222 -0.003,-0.41341 -0.13809,-0.74799 -0.40618,-1.00355 -0.26558,-0.25557 -0.67129,-0.44242 -1.21749,-0.56018 l -0.98496,-0.21032 c -0.29314,-0.0676 -0.50318,-0.15418 -0.63097,-0.25941 -0.12527,-0.10524 -0.18699,-0.24141 -0.18448,-0.40928 -0.003,-0.19543 0.0917,-0.35472 0.28215,-0.47749 0.19293,-0.12277 0.43053,-0.18397 0.71365,-0.18397 0.21047,0 0.3885,0.0336 0.53382,0.10129 0.14532,0.0676 0.26053,0.1564 0.34572,0.26665 0.0877,0.11024 0.14941,0.22819 0.18448,0.35346 l 1.24024,-0.13539 c -0.0927,-0.49108 -0.33468,-0.88079 -0.72554,-1.16892 -0.38836,-0.28813 -0.92083,-0.43202 -1.59732,-0.43202 z m -26.10383,20.01945 c -0.29346,0 -0.56476,0.053 -0.81442,0.15813 -0.24966,0.10366 -0.46726,0.25525 -0.65268,0.45527 -0.18542,0.19856 -0.3299,0.44033 -0.43356,0.72502 -0.1022,0.2847 -0.15348,0.60789 -0.15348,0.96997 0,0.47304 0.0872,0.88172 0.26097,1.22628 0.1752,0.3431 0.41817,0.60842 0.72915,0.7953 0.31244,0.18542 0.67513,0.27802 1.08831,0.27802 0.37083,0 0.69931,-0.0754 0.98547,-0.22582 0.28615,-0.15184 0.51085,-0.36771 0.67437,-0.64803 0.16352,-0.28032 0.24547,-0.61234 0.24547,-0.99632 v -0.53898 h -1.82005 v 0.6351 h 1.03095 c -0.004,0.20496 -0.0465,0.38653 -0.13281,0.54105 -0.0905,0.1606 -0.21968,0.28447 -0.38757,0.37207 -0.16644,0.0876 -0.36394,0.13178 -0.5917,0.13178 -0.25112,0 -0.47114,-0.0607 -0.66094,-0.1819 -0.1898,-0.12264 -0.33836,-0.30135 -0.44494,-0.53641 -0.10658,-0.23505 -0.15968,-0.52221 -0.15968,-0.86092 0,-0.3358 0.0531,-0.62062 0.15968,-0.85422 0.10804,-0.23505 0.2566,-0.41315 0.44494,-0.53433 0.18834,-0.12118 0.40299,-0.18138 0.64389,-0.18138 0.13432,0 0.25819,0.0171 0.37207,0.0522 0.11388,0.0336 0.2147,0.0842 0.3023,0.15141 0.0891,0.0672 0.16512,0.14798 0.2279,0.24288 0.0642,0.0934 0.11439,0.19955 0.15089,0.31781 h 0.82786 c -0.0336,-0.22046 -0.10435,-0.42212 -0.21239,-0.60461 -0.10804,-0.1825 -0.24603,-0.33998 -0.41393,-0.47284 -0.16644,-0.13286 -0.35692,-0.23542 -0.57154,-0.30696 -0.21462,-0.073 -0.44633,-0.10956 -0.69453,-0.10956 z m 5.71386,0 c -0.39274,0 -0.74477,0.0914 -1.05575,0.27389 -0.30952,0.1825 -0.55483,0.44609 -0.73587,0.79065 -0.17958,0.3431 -0.26923,0.75646 -0.26923,1.23972 0,0.48179 0.0897,0.89464 0.26923,1.2392 0.18104,0.3431 0.42635,0.60669 0.73587,0.79065 0.31098,0.1825 0.66301,0.27388 1.05575,0.27388 0.39274,0 0.74365,-0.0914 1.05317,-0.27388 0.31098,-0.1825 0.55629,-0.44497 0.73587,-0.78807 0.18104,-0.34456 0.27182,-0.75853 0.27182,-1.24178 0,-0.48326 -0.0908,-0.89662 -0.27182,-1.23972 -0.17958,-0.34456 -0.42489,-0.60815 -0.73587,-0.79065 -0.30952,-0.1825 -0.66043,-0.27389 -1.05317,-0.27389 z m -28.81581,0.0615 v 4.485 h 1.5198 c 0.45552,0 0.84532,-0.0897 1.16944,-0.26924 0.32558,-0.17958 0.57445,-0.43728 0.74672,-0.77308 0.17374,-0.3358 0.26045,-0.73738 0.26045,-1.20457 0,-0.46574 -0.0861,-0.86559 -0.25838,-1.19993 -0.17228,-0.33434 -0.41881,-0.59083 -0.74,-0.76895 -0.31974,-0.17958 -0.70244,-0.26923 -1.14774,-0.26923 z m 7.28844,0 v 3.15381 c -0.001,0.15768 -0.0267,0.29039 -0.0749,0.39843 -0.0467,0.10804 -0.11515,0.18998 -0.20567,0.24546 -0.0905,0.054 -0.20079,0.0806 -0.33073,0.0806 -0.11972,0 -0.22531,-0.0231 -0.31729,-0.0698 -0.092,-0.0467 -0.16448,-0.11394 -0.21704,-0.20154 -0.0511,-0.0876 -0.0771,-0.19198 -0.0786,-0.31315 h -0.80822 c 0,0.27593 0.0613,0.50652 0.18397,0.69194 0.12264,0.18542 0.28835,0.32575 0.49712,0.42065 0.21024,0.0934 0.44672,0.14004 0.70952,0.14004 0.28762,0 0.53943,-0.0554 0.75551,-0.1664 0.21754,-0.11242 0.3868,-0.27223 0.50798,-0.47955 0.12118,-0.20878 0.18251,-0.45765 0.18397,-0.74673 v -3.15381 z m 4.02715,0 -1.57923,4.485 h 0.86764 l 0.37104,-1.10588 h 1.6862 l 0.37156,1.10588 h 0.86713 l -1.5813,-4.485 z m 4.22661,0 v 4.485 h 0.81236 v -3.05511 h 0.0372 l 2.11357,3.05511 h 0.72295 v -4.485 h -0.80822 v 3.05718 h -0.0398 l -2.11098,-3.05718 z m 13.27361,0.66818 c 0.24382,0 0.45908,0.0602 0.64596,0.18138 0.18688,0.11972 0.33309,0.29721 0.43821,0.53227 0.10658,0.2336 0.15968,0.52075 0.15968,0.86093 0,0.34017 -0.0531,0.62742 -0.15968,0.86248 -0.10512,0.2336 -0.25133,0.41108 -0.43821,0.53226 -0.18688,0.11972 -0.40214,0.17984 -0.64596,0.17984 -0.24382,0 -0.45908,-0.0601 -0.64595,-0.17984 -0.18688,-0.12118 -0.33371,-0.29866 -0.44029,-0.53226 -0.10512,-0.23506 -0.15761,-0.52231 -0.15761,-0.86248 0,-0.34018 0.0525,-0.62733 0.15761,-0.86093 0.10658,-0.23506 0.25341,-0.41255 0.44029,-0.53227 0.18687,-0.12118 0.40213,-0.18138 0.64595,-0.18138 z m -28.00346,0.0346 h 0.69195 c 0.30368,0 0.55783,0.0572 0.76223,0.17105 0.20586,0.11242 0.36152,0.28229 0.46664,0.51004 0.10512,0.2263 0.15761,0.51112 0.15761,0.85422 0,0.34309 -0.0525,0.62912 -0.15761,0.85834 -0.10512,0.22776 -0.262,0.39936 -0.47078,0.5147 -0.20878,0.11388 -0.46942,0.17105 -0.78186,0.17105 h -0.66818 z m 10.98745,0.21704 h 0.0346 l 0.6072,1.80661 h -1.24799 z m -9.85935,6.72775 c -0.39128,0 -0.7421,0.0914 -1.05162,0.27389 -0.30952,0.1825 -0.55371,0.44557 -0.73328,0.79013 -0.17958,0.3431 -0.26976,0.75646 -0.26976,1.23972 0,0.4818 0.089,0.89516 0.26717,1.23972 0.17812,0.34456 0.42222,0.60815 0.73174,0.79065 0.30952,0.1825 0.66155,0.27337 1.05575,0.27337 0.26718,0 0.51015,-0.0395 0.72915,-0.11834 0.219,-0.0803 0.41009,-0.19118 0.57361,-0.3328 0.16352,-0.14308 0.29562,-0.30766 0.39636,-0.49454 0.1022,-0.18688 0.16881,-0.38732 0.19947,-0.60048 l -0.81907,-0.004 c -0.0248,0.1314 -0.0702,0.24817 -0.13591,0.35037 -0.0642,0.1022 -0.14384,0.1883 -0.23874,0.25838 -0.0934,0.0701 -0.19904,0.12318 -0.3173,0.15968 -0.1168,0.035 -0.2424,0.0527 -0.37672,0.0527 -0.24236,0 -0.45762,-0.059 -0.64595,-0.17725 -0.18688,-0.11972 -0.33432,-0.2966 -0.44235,-0.5302 -0.10658,-0.23506 -0.1602,-0.52403 -0.1602,-0.86713 0,-0.33726 0.0536,-0.62268 0.1602,-0.85628 0.10657,-0.23506 0.25401,-0.41315 0.44235,-0.53433 0.18833,-0.12264 0.4042,-0.18397 0.64802,-0.18397 0.13724,0 0.26518,0.0189 0.38344,0.0568 0.11972,0.0365 0.22592,0.0913 0.31936,0.16433 0.0934,0.073 0.17183,0.16205 0.23461,0.26717 0.0628,0.10366 0.10583,0.22277 0.12919,0.35709 h 0.81907 c -0.0336,-0.24966 -0.10496,-0.47142 -0.21446,-0.6656 -0.10804,-0.19564 -0.24602,-0.36074 -0.41392,-0.49506 -0.1679,-0.13578 -0.35951,-0.23894 -0.57413,-0.30902 -0.21462,-0.0701 -0.44642,-0.10491 -0.69608,-0.10491 z m 5.64358,0 c -0.39274,0 -0.74477,0.0914 -1.05575,0.27389 -0.30952,0.1825 -0.55483,0.44557 -0.73587,0.79013 -0.17958,0.3431 -0.26923,0.75646 -0.26923,1.23972 0,0.4818 0.0897,0.89516 0.26923,1.23972 0.18104,0.3431 0.42635,0.60669 0.73587,0.79065 0.31098,0.1825 0.66301,0.27337 1.05575,0.27337 0.39274,0 0.74365,-0.0909 1.05317,-0.27337 0.31098,-0.1825 0.55629,-0.44549 0.73587,-0.78859 0.18104,-0.34455 0.27182,-0.75852 0.27182,-1.24178 0,-0.48326 -0.0908,-0.89662 -0.27182,-1.23972 -0.17958,-0.34456 -0.42489,-0.60763 -0.73587,-0.79013 -0.30952,-0.1825 -0.66043,-0.27389 -1.05317,-0.27389 z m 10.54923,0 c -0.3139,0 -0.59516,0.0554 -0.84336,0.1664 -0.2482,0.1095 -0.44457,0.26343 -0.58911,0.46199 -0.14308,0.19856 -0.21446,0.42976 -0.21446,0.69401 0,0.3212 0.1062,0.5789 0.31936,0.77308 0.21462,0.19272 0.50706,0.3366 0.87643,0.4315 l 0.51005,0.13178 c 0.1606,0.0409 0.30093,0.0875 0.42065,0.14004 0.12118,0.0511 0.21499,0.11537 0.28215,0.19275 0.0672,0.0759 0.10189,0.17207 0.10335,0.28887 -10e-4,0.12848 -0.0403,0.24109 -0.11627,0.33745 -0.0759,0.0949 -0.18091,0.16922 -0.31523,0.22324 -0.13286,0.0526 -0.28791,0.0791 -0.46457,0.0791 -0.16936,0 -0.32268,-0.0259 -0.45992,-0.077 -0.13578,-0.0511 -0.24605,-0.12837 -0.33073,-0.23203 -0.0847,-0.10366 -0.13249,-0.23342 -0.14417,-0.38964 h -0.79944 c 0.0117,0.29784 0.089,0.55026 0.23203,0.75758 0.14454,0.20732 0.34446,0.3648 0.59996,0.47284 0.25696,0.10804 0.56005,0.16226 0.90899,0.16226 0.35916,0 0.6652,-0.0554 0.91777,-0.1664 0.25404,-0.11241 0.44808,-0.26807 0.5824,-0.46663 0.13432,-0.20002 0.20154,-0.43122 0.20154,-0.69402 0,-0.19418 -0.0366,-0.36344 -0.10956,-0.50798 -0.073,-0.14454 -0.17209,-0.26832 -0.29765,-0.37052 -0.1241,-0.1022 -0.26504,-0.18657 -0.42272,-0.25373 -0.15622,-0.0672 -0.31898,-0.12026 -0.48834,-0.15968 l -0.42065,-0.10542 c -0.092,-0.0219 -0.18336,-0.049 -0.27388,-0.0811 -0.0905,-0.0321 -0.17307,-0.0716 -0.24753,-0.11834 -0.0745,-0.0482 -0.13345,-0.10656 -0.17725,-0.17518 -0.0423,-0.0686 -0.0636,-0.14944 -0.0636,-0.24288 0.001,-0.11242 0.0345,-0.21264 0.0987,-0.30024 0.0642,-0.0876 0.15684,-0.15664 0.27802,-0.20774 0.12118,-0.0511 0.26627,-0.077 0.43563,-0.077 0.2409,0 0.43667,0.0536 0.58704,0.1602 0.15184,0.10658 0.23795,0.25522 0.25839,0.44648 h 0.78186 c -0.004,-0.25258 -0.0752,-0.47555 -0.21239,-0.66972 -0.13724,-0.19564 -0.32651,-0.34836 -0.56741,-0.45786 -0.23944,-0.11096 -0.51784,-0.1664 -0.83612,-0.1664 z m -6.66678,0.061 v 4.48552 h 0.81287 v -1.6428 h 0.82683 l 0.88108,1.6428 h 0.90692 l -0.97462,-1.78387 c 0.0283,-0.0115 0.063,-0.0165 0.0899,-0.0295 0.23652,-0.11534 0.41522,-0.2781 0.5364,-0.48834 0.12264,-0.2117 0.18397,-0.46169 0.18397,-0.74931 0,-0.28616 -0.0607,-0.53624 -0.1819,-0.75086 -0.11972,-0.21608 -0.29721,-0.38412 -0.53227,-0.50384 -0.2336,-0.11972 -0.52257,-0.17984 -0.86713,-0.17984 z m 12.7,0 v 4.48552 h 0.81236 v -1.90531 h 2.07842 v 1.90531 h 0.81494 v -4.48552 h -0.81494 v 1.89911 h -2.07842 v -1.89911 z m 5.63945,0 v 4.48552 h 2.93419 v -0.6811 h -2.12183 v -1.22421 h 1.95336 v -0.6811 h -1.95336 v -1.21801 h 2.10426 v -0.6811 z m 6.08594,0 -1.57924,4.48552 h 0.86713 l 0.37104,-1.10588 h 1.6862 l 0.37156,1.10588 h 0.86713 l -1.58079,-4.48552 z m 4.22661,0 v 4.48552 h 1.5198 c 0.45552,0 0.84532,-0.0902 1.16944,-0.26975 0.32558,-0.17958 0.57445,-0.43728 0.74673,-0.77308 0.17374,-0.3358 0.26045,-0.73687 0.26045,-1.20406 0,-0.46574 -0.0861,-0.86611 -0.25839,-1.20045 -0.17228,-0.33434 -0.4188,-0.59031 -0.74,-0.76843 -0.31974,-0.17958 -0.70244,-0.26975 -1.14774,-0.26975 z m 5.51853,0 v 4.48552 h 2.9347 v -0.6811 h -2.12183 v -1.22421 h 1.95337 v -0.6811 h -1.95337 v -1.21801 h 2.10426 v -0.6811 z m 4.79867,0 v 4.48552 h 0.81235 v -1.6428 h 0.82683 l 0.88108,1.6428 h 0.90692 l -0.97462,-1.78387 c 0.0283,-0.0115 0.063,-0.0165 0.0899,-0.0295 0.23652,-0.11534 0.41522,-0.2781 0.5364,-0.48834 0.12264,-0.2117 0.18397,-0.46169 0.18397,-0.74931 0,-0.28616 -0.0607,-0.53624 -0.1819,-0.75086 -0.11972,-0.21608 -0.29669,-0.38412 -0.53175,-0.50384 -0.2336,-0.11972 -0.52309,-0.17984 -0.86765,-0.17984 z m -42.85165,0.66818 c 0.24382,0 0.45908,0.0607 0.64596,0.1819 0.18688,0.11972 0.33258,0.29721 0.4377,0.53227 0.10658,0.2336 0.16019,0.52023 0.16019,0.86041 0,0.34018 -0.0536,0.62794 -0.16019,0.863 -0.10512,0.2336 -0.25082,0.41108 -0.4377,0.53226 -0.18688,0.11972 -0.40214,0.17932 -0.64596,0.17932 -0.24382,0 -0.45959,-0.0596 -0.64647,-0.17932 -0.18688,-0.12118 -0.33319,-0.29866 -0.43977,-0.53226 -0.10512,-0.23506 -0.15761,-0.52282 -0.15761,-0.863 0,-0.34018 0.0525,-0.62681 0.15761,-0.86041 0.10658,-0.23506 0.25289,-0.41255 0.43977,-0.53227 0.18688,-0.12118 0.40265,-0.1819 0.64647,-0.1819 z m 4.69532,0.0109 h 0.74466 c 0.20294,0 0.36865,0.0301 0.49713,0.0899 0.12848,0.0584 0.22402,0.1445 0.2868,0.25838 0.0628,0.11242 0.094,0.24807 0.094,0.40721 0,0.15914 -0.0313,0.29358 -0.094,0.40308 -0.0613,0.10804 -0.15626,0.19059 -0.28474,0.24753 -0.12847,0.0555 -0.29358,0.0832 -0.49506,0.0832 h -0.74879 z m 38.96868,0 h 0.74466 c 0.20294,0 0.36865,0.0301 0.49713,0.0899 0.12848,0.0584 0.22402,0.1445 0.2868,0.25838 0.0628,0.11242 0.0941,0.24807 0.0941,0.40721 0,0.15914 -0.0313,0.29358 -0.0941,0.40308 -0.0613,0.10804 -0.15626,0.19059 -0.28473,0.24753 -0.12848,0.0555 -0.29359,0.0832 -0.49506,0.0832 h -0.7488 z m -10.3172,0.0243 h 0.69195 c 0.30368,0 0.55783,0.0566 0.76223,0.17053 0.20586,0.11242 0.36152,0.28281 0.46664,0.51056 0.10512,0.2263 0.15761,0.51112 0.15761,0.85422 0,0.34309 -0.0525,0.62912 -0.15761,0.85834 -0.10512,0.22776 -0.262,0.39936 -0.47078,0.5147 -0.20877,0.11388 -0.46942,0.17053 -0.78186,0.17053 h -0.66818 z m -4.55527,0.21652 h 0.0351 l 0.60719,1.80713 h -1.2485 z"
       sodipodi:nodetypes="sccsccccccccscsccccsccssccccscccssscccccsccccccccccsccsccccccccccccccccccccccccccccccccccccscssccscccccccsccsccscccsccscsscccccccscccccccscsscccssccccccccscccccsscccsccscssccccccscsscsscccccsccsssccsccsccsccsccsccsscscccccsscccscscccccccccccccccccccccccccccsccsccsccsccscsccsccsccccccccscssssccccccccsccsccscscccccsccsccsccsccsccscccsccccccccscsccccsccssccccscccssscccccccccccccccccsccsccccccccccccccccccccccccccccccccccccccsccsscsccccccccccccccccccccccccsccscsccsccsccsccscsccsccscccsccsccscccsccsccsccccccc" /><path
       class="st0"
       d="m 768.5439,-420.24374 c 0,3.40134 3.31702,5.12732 4.73938,5.71199 l 0.0505,0.0226 c 0.10687,0.0506 0.23052,0.0506 0.3317,0 l 0.0505,-0.0226 c 1.42801,-0.58467 4.73941,-2.31065 4.73941,-5.71199 v -4.55387 c 0,-0.17429 -0.11804,-0.32609 -0.28674,-0.36543 l -4.58197,-1.13565 c -0.0619,-0.0169 -0.12363,-0.0169 -0.17992,0 l -4.58196,1.13565 c -0.16866,0.0393 -0.28673,0.19114 -0.28673,0.36543 m 9.16958,4.55387 c 0,2.89535 -2.88411,4.4358 -4.19968,4.98675 -1.32119,-0.55095 -4.19968,-2.0914 -4.19968,-4.98675 v -4.26152 l 4.19968,-1.04008 4.19968,1.04008 z"
       id="path11"
       style="fill:#ffffff;stroke-width:0.0562205" /><path
       style="fill:none;fill-opacity:1;stroke:#ffffff;stroke-width:0.694;stroke-linecap:round;stroke-dasharray:none"
       d="m 1002.7899,-433.20099 h 95.7453"
       id="path13-9"
       sodipodi:nodetypes="cc" /><path
       style="font-size:6.66194px;font-family:'JetBrains Mono';-inkscape-font-specification:'JetBrains Mono';letter-spacing:0px;fill:#ffffff;stroke-width:0.436857;stroke-linecap:round"
       d="m 1012.5933,-441.46027 h 0.5596 v -2.79801 c 0,-0.29313 0.1532,-0.473 0.3997,-0.473 0.2399,0 0.3931,0.18654 0.3931,0.47966 v 2.79135 h 0.493 v -2.79801 c 0,-0.29313 0.1532,-0.473 0.393,-0.473 0.2465,0 0.3997,0.18654 0.3997,0.47966 v 2.79135 h 0.5597 v -2.78469 c 0,-0.5596 -0.3065,-0.94599 -0.7728,-0.94599 -0.3398,0 -0.5663,0.19986 -0.6263,0.51963 h -0.01 c -0.093,-0.31977 -0.3265,-0.51963 -0.6462,-0.51963 -0.3331,0 -0.5663,0.21984 -0.6129,0.55294 h -0.013 v -0.48632 h -0.5197 z m 5.5961,0.0533 c 0.8793,0 1.4389,-0.53962 1.4389,-1.46563 v -0.8394 c 0,-0.93267 -0.5529,-1.46563 -1.4389,-1.46563 -0.8861,0 -1.439,0.53296 -1.439,1.46563 v 0.8394 c 0,0.92601 0.5596,1.46563 1.439,1.46563 z m 0,-0.53296 c -0.5197,0 -0.8395,-0.29978 -0.8395,-0.86605 v -0.97264 c 0,-0.56627 0.3198,-0.86605 0.8395,-0.86605 0.5196,0 0.8394,0.29978 0.8394,0.86605 v 0.97264 c 0,0.56627 -0.3198,0.86605 -0.8394,0.86605 z m 2.6114,0.47966 h 0.5996 v -2.33168 c 0,-0.56626 0.3065,-0.8927 0.8061,-0.8927 0.4797,0 0.7795,0.30645 0.7795,0.86606 v 2.35832 h 0.5995 v -2.46491 c 0,-0.77945 -0.473,-1.26577 -1.2058,-1.26577 -0.5596,0 -0.9127,0.2798 -0.9726,0.76612 h -0.01 v -0.6995 h -0.5996 z m 4.4569,1.19915 h 1.0259 c 0.7861,0 1.2791,-0.45967 1.2791,-1.19915 v -3.66406 h -0.5929 v 0.63288 h -0.013 c -0.073,-0.43302 -0.4397,-0.6995 -0.966,-0.6995 -0.7528,0 -1.2191,0.52629 -1.2191,1.35903 v 0.77279 c 0,0.8394 0.4663,1.34571 1.2191,1.34571 0.5263,0 0.8927,-0.24649 0.966,-0.67952 h 0.02 l -0.013,0.59958 v 0.33309 c 0,0.39972 -0.2598,0.65287 -0.6728,0.65287 h -1.0326 z m 0.9127,-1.95195 c -0.5063,0 -0.7995,-0.31311 -0.7995,-0.81275 v -0.83274 c 0,-0.49965 0.2932,-0.81276 0.7995,-0.81276 0.4929,0 0.7994,0.32643 0.7994,0.87937 v 0.69951 c 0,0.55294 -0.3065,0.87937 -0.7994,0.87937 z m 4.0105,0.8061 c 0.8793,0 1.4389,-0.53962 1.4389,-1.46563 v -0.8394 c 0,-0.93267 -0.5529,-1.46563 -1.4389,-1.46563 -0.8861,0 -1.439,0.53296 -1.439,1.46563 v 0.8394 c 0,0.92601 0.5596,1.46563 1.439,1.46563 z m 0,-0.53296 c -0.5197,0 -0.8395,-0.29978 -0.8395,-0.86605 v -0.97264 c 0,-0.56627 0.3198,-0.86605 0.8395,-0.86605 0.5196,0 0.8394,0.29978 0.8394,0.86605 v 0.97264 c 0,0.56627 -0.3198,0.86605 -0.8394,0.86605 z m 3.7839,0.54628 c 0.553,0 0.926,-0.28646 0.9927,-0.76612 h 0.01 v 0.6995 h 0.5996 v -4.86321 h -0.5996 v 1.06591 l 0.013,0.83274 h -0.01 c -0.067,-0.473 -0.4597,-0.76612 -1.006,-0.76612 -0.7394,0 -1.2058,0.51963 -1.2058,1.3657 v 1.07257 c 0,0.8394 0.473,1.35903 1.2058,1.35903 z m 0.1999,-0.51963 c -0.5063,0 -0.8061,-0.24649 -0.8061,-0.84606 v -1.06591 c 0,-0.59958 0.2998,-0.84607 0.8061,-0.84607 0.493,0 0.7994,0.32643 0.7994,0.87937 v 0.9993 c 0,0.55294 -0.3064,0.87937 -0.7994,0.87937 z m 4.2237,0.51963 c 0.7328,0 1.2058,-0.51963 1.2058,-1.35903 v -1.07257 c 0,-0.84607 -0.4664,-1.3657 -1.2058,-1.3657 -0.5463,0 -0.9394,0.29312 -1.006,0.76612 h -0.01 l 0.013,-0.83274 v -1.06591 h -0.5996 v 4.86321 h 0.5996 v -0.6995 h 0.01 c 0.06,0.47966 0.4397,0.76612 0.9927,0.76612 z m -0.1999,-0.51963 c -0.493,0 -0.7994,-0.32643 -0.7994,-0.87937 v -0.9993 c 0,-0.55294 0.3064,-0.87937 0.7994,-0.87937 0.5063,0 0.8061,0.24649 0.8061,0.84607 v 1.06591 c 0,0.59957 -0.2998,0.84606 -0.8061,0.84606 z m 3.9839,-2.29171 c 0.3664,0 0.5529,-0.19319 0.5529,-0.49298 0,-0.29979 -0.1865,-0.49298 -0.5529,-0.49298 -0.3665,0 -0.553,0.19319 -0.553,0.49298 0,0.29979 0.1865,0.49298 0.553,0.49298 z m 0,2.81134 c 0.3664,0 0.5529,-0.19319 0.5529,-0.49298 0,-0.29979 -0.1865,-0.49298 -0.5529,-0.49298 -0.3665,0 -0.553,0.19319 -0.553,0.49298 0,0.29979 0.1865,0.49298 0.553,0.49298 z m 5.9957,0.6662 h 0.6329 l 2.365,-6.26223 h -0.6329 z m -2.9979,0 h 0.6329 l 2.365,-6.26223 h -0.6329 z m 9.0469,-0.6662 c 0.8461,0 1.4057,-0.48632 1.4324,-1.26577 h -0.5996 c -0.027,0.46634 -0.3398,0.73282 -0.8328,0.73282 -0.5262,0 -0.866,-0.31311 -0.866,-0.86605 v -1.00596 c 0,-0.54628 0.3398,-0.85939 0.866,-0.85939 0.493,0 0.8061,0.26648 0.8328,0.73282 h 0.5996 c -0.027,-0.77945 -0.5863,-1.26577 -1.4324,-1.26577 -0.886,0 -1.4656,0.52629 -1.4656,1.399 v 0.9993 c 0,0.87271 0.5796,1.399 1.4656,1.399 z m 3.9439,-0.0133 c 0.8794,0 1.439,-0.53962 1.439,-1.46563 v -0.8394 c 0,-0.93267 -0.5529,-1.46563 -1.439,-1.46563 -0.886,0 -1.439,0.53296 -1.439,1.46563 v 0.8394 c 0,0.92601 0.5596,1.46563 1.439,1.46563 z m 0,-0.53296 c -0.5196,0 -0.8394,-0.29978 -0.8394,-0.86605 v -0.97264 c 0,-0.56627 0.3198,-0.86605 0.8394,-0.86605 0.5197,0 0.8394,0.29978 0.8394,0.86605 v 0.97264 c 0,0.56627 -0.3197,0.86605 -0.8394,0.86605 z m 2.6115,0.47966 h 0.5996 v -2.33168 c 0,-0.56626 0.3064,-0.8927 0.8061,-0.8927 0.4796,0 0.7794,0.30645 0.7794,0.86606 v 2.35832 h 0.5996 v -2.46491 c 0,-0.77945 -0.473,-1.26577 -1.2058,-1.26577 -0.5596,0 -0.9127,0.2798 -0.9727,0.76612 h -0.01 v -0.6995 h -0.5996 z m 5.7493,0 h 1.0659 v -0.54628 h -1.0659 c -0.2399,0 -0.3998,-0.16654 -0.3998,-0.4197 v -2.1518 h 1.499 v -0.54628 h -1.499 v -1.0326 h -0.5995 v 1.0326 h -1.0526 v 0.54628 h 1.0526 v 2.1518 c 0,0.58625 0.393,0.96598 0.9993,0.96598 z m 3.3109,0.0666 c 0.6263,0 1.0326,-0.2798 1.0993,-0.73281 h 0.013 v 0.66619 h 0.5929 v -2.51821 c 0,-0.76612 -0.493,-1.21247 -1.379,-1.21247 -0.8194,0 -1.3391,0.42636 -1.3857,0.99929 h 0.5996 c 0.02,-0.29979 0.3197,-0.47966 0.7861,-0.47966 0.5263,0 0.7794,0.23317 0.7794,0.71283 v 0.28646 h -1.1325 c -0.7128,0 -1.2058,0.45967 -1.2058,1.13253 0,0.68618 0.473,1.14585 1.2324,1.14585 z m 0.1466,-0.5063 c -0.4796,0 -0.7661,-0.25316 -0.7661,-0.65954 0,-0.38639 0.2665,-0.6462 0.6595,-0.6462 h 1.0659 v 0.51296 c 0,0.48633 -0.373,0.79278 -0.9593,0.79278 z m 4.2703,-3.88392 c 0.2931,0 0.473,-0.15988 0.473,-0.4197 0,-0.26648 -0.1799,-0.43302 -0.473,-0.43302 -0.2931,0 -0.473,0.16654 -0.473,0.43302 0,0.25982 0.1799,0.4197 0.473,0.4197 z m -1.5322,4.3236 h 3.1311 v -0.54628 h -1.2325 v -3.11778 h -1.7654 v 0.54628 h 1.1658 v 2.5715 h -1.299 z m 4.0438,0 h 0.5995 v -2.33168 c 0,-0.56626 0.3065,-0.8927 0.8061,-0.8927 0.4797,0 0.7795,0.30645 0.7795,0.86606 v 2.35832 h 0.5996 v -2.46491 c 0,-0.77945 -0.473,-1.26577 -1.2059,-1.26577 -0.5596,0 -0.9126,0.2798 -0.9726,0.76612 h -0.01 v -0.6995 h -0.5995 z m 5.3828,0.0666 c 0.7728,0 1.3324,-0.38639 1.4124,-0.99929 h -0.5996 c -0.06,0.29313 -0.3664,0.47966 -0.8128,0.47966 -0.5196,0 -0.8527,-0.33976 -0.8527,-0.87937 v -0.34643 h 2.2917 v -0.65287 c 0,-0.84606 -0.5729,-1.399 -1.439,-1.399 -0.866,0 -1.439,0.55294 -1.439,1.46562 v 0.86606 c 0,0.91268 0.573,1.46562 1.439,1.46562 z m -0.8527,-2.21176 v -0.18654 c 0,-0.57958 0.3131,-0.90602 0.8527,-0.90602 0.5396,0 0.8527,0.32644 0.8527,0.90602 v 0.18654 z m 3.5974,2.14514 h 0.5996 v -2.33168 c 0,-0.56626 0.2798,-0.87937 0.8061,-0.87937 0.5063,0 0.7795,0.25981 0.7795,0.79943 v 0.31311 h 0.5995 v -0.31311 c 0,-0.8394 -0.433,-1.31906 -1.1925,-1.31906 -0.5662,0 -0.9193,0.29312 -0.9793,0.76612 h -0.013 v -0.6995 h -0.5996 z"
       id="text18"
       aria-label="mongodb://container" /><path
       d="m 816.96136,-573.8674 c -0.53869,0 -1.021,0.0953 -1.44694,0.28577 -0.42594,0.18792 -0.76275,0.45197 -1.01079,0.79272 -0.24554,0.34075 -0.36846,0.73816 -0.36846,1.19166 0,0.55121 0.183,0.9933 0.54881,1.32653 0.36831,0.33073 0.86937,0.57767 1.50327,0.74052 l 0.87591,0.22531 c 0.27561,0.0702 0.51595,0.15062 0.7214,0.24082 0.20796,0.0877 0.36948,0.19793 0.48473,0.33073 0.11525,0.13028 0.17423,0.29565 0.17673,0.49609 -0.003,0.22048 -0.0692,0.41341 -0.19947,0.57878 -0.13029,0.16285 -0.31054,0.29021 -0.54105,0.38292 -0.228,0.0902 -0.49368,0.13539 -0.79685,0.13539 -0.29064,0 -0.55358,-0.0436 -0.7891,-0.13126 -0.23301,-0.0877 -0.42209,-0.22053 -0.56741,-0.39842 -0.14532,-0.1779 -0.228,-0.40112 -0.24804,-0.66921 h -1.37201 c 0.02,0.51112 0.15288,0.94491 0.39842,1.30069 0.24805,0.35579 0.59145,0.62643 1.02991,0.81184 0.44097,0.18541 0.96078,0.27802 1.5596,0.27802 0.61635,0 1.14112,-0.0953 1.57458,-0.28577 0.43596,-0.19293 0.76943,-0.45972 0.99994,-0.80047 0.2305,-0.34326 0.34571,-0.74067 0.34571,-1.19166 0,-0.33323 -0.0628,-0.62373 -0.1881,-0.87178 -0.12528,-0.24805 -0.29561,-0.45972 -0.51108,-0.6351 -0.21297,-0.17539 -0.45442,-0.3209 -0.72502,-0.43615 -0.26809,-0.11526 -0.54755,-0.20624 -0.83819,-0.27389 l -0.7214,-0.18087 c -0.15785,-0.0376 -0.3144,-0.0839 -0.46974,-0.139 -0.15535,-0.0551 -0.297,-0.1224 -0.42478,-0.20258 -0.12779,-0.0827 -0.22921,-0.18299 -0.30438,-0.30075 -0.0727,-0.11776 -0.10904,-0.25668 -0.10904,-0.41703 0.003,-0.19293 0.0587,-0.36489 0.16899,-0.51522 0.11024,-0.15033 0.26953,-0.26939 0.47749,-0.35708 0.20795,-0.0877 0.45712,-0.13126 0.74775,-0.13126 0.41341,0 0.74911,0.0915 1.00718,0.2744 0.26057,0.18291 0.40831,0.43814 0.44338,0.76636 h 1.34152 c -0.008,-0.43345 -0.1288,-0.81656 -0.36432,-1.1498 -0.23551,-0.33573 -0.56017,-0.59756 -0.97358,-0.78548 -0.4109,-0.19042 -0.88937,-0.28577 -1.43557,-0.28577 z m -19.49235,0.10542 v 7.69669 h 1.39423 v -2.81843 h 1.41903 l 1.51257,2.81843 h 1.55598 l -1.66812,-3.05201 c 0.0498,-0.0201 0.10263,-0.0372 0.14987,-0.06 0.40589,-0.19793 0.7124,-0.47688 0.92035,-0.83767 0.21047,-0.3633 0.31575,-0.79212 0.31575,-1.28571 0,-0.49108 -0.10365,-0.9205 -0.31161,-1.28881 -0.20545,-0.37082 -0.51025,-0.65909 -0.91364,-0.86455 -0.40088,-0.20545 -0.89698,-0.30799 -1.48828,-0.30799 z m 8.59792,0 v 7.69669 h 5.03639 v -1.16892 h -3.64216 v -2.10065 h 3.35277 v -1.16892 h -3.35277 v -2.08928 h 3.61167 v -1.16892 z m 16.38815,0 v 1.16892 h 2.37918 v 6.52777 h 1.38286 v -6.52777 h 2.37919 v -1.16892 z m 15.58406,0 -2.70991,7.69669 h 1.48828 l 0.63665,-1.89756 h 2.89388 l 0.63769,1.89756 h 1.48828 l -2.71353,-7.69669 z m 7.16236,0 v 7.69669 h 1.39423 v -2.60036 h 1.47329 c 0.59381,0 1.09376,-0.10914 1.49965,-0.32711 0.40589,-0.22049 0.71292,-0.52254 0.92087,-0.90589 0.20796,-0.38334 0.31213,-0.82158 0.31213,-1.31516 0,-0.48858 -0.10417,-0.92459 -0.31213,-1.30793 -0.20545,-0.38585 -0.50973,-0.68902 -0.91312,-0.90951 -0.40088,-0.22048 -0.89698,-0.33073 -1.48828,-0.33073 z m 8.52299,0 v 7.69669 h 1.39423 v -7.69669 z m -54.86125,1.16479 h 1.27796 c 0.34826,0 0.63269,0.0513 0.85317,0.15399 0.22049,0.10022 0.38423,0.24847 0.49196,0.4439 0.10774,0.19293 0.16175,0.42557 0.16175,0.69867 0,0.2731 -0.054,0.50403 -0.16175,0.69195 -0.10523,0.18541 -0.26785,0.32655 -0.48834,0.42426 -0.22048,0.0952 -0.5038,0.14314 -0.84956,0.14314 h -1.28519 z m 47.73249,0 h 1.27795 c 0.34827,0 0.6327,0.059 0.85318,0.17673 0.22299,0.11526 0.38725,0.27677 0.49248,0.48473 0.10773,0.20795 0.16123,0.44882 0.16123,0.72192 0,0.2731 -0.0535,0.51455 -0.16123,0.72502 -0.10523,0.21046 -0.26838,0.37583 -0.48886,0.49609 -0.22049,0.12027 -0.50328,0.18035 -0.84905,0.18035 h -1.2857 z m -7.72615,0.41341 h 0.0605 l 1.0418,3.10059 h -2.14199 z m 21.65652,0.27078 c -0.461,0 -0.8678,0.0728 -1.2211,0.21808 -0.3507,0.14281 -0.6252,0.34567 -0.8232,0.60875 -0.1954,0.26057 -0.2919,0.56871 -0.2894,0.92449 0,0.42092 0.1287,0.76928 0.3943,1.0449 0.2656,0.2731 0.6757,0.46713 1.2294,0.58239 l 0.9844,0.20671 c 0.2656,0.0576 0.4613,0.14031 0.5866,0.24804 0.1277,0.10774 0.1912,0.24442 0.1912,0.4098 0,0.19543 -0.099,0.35968 -0.2967,0.49247 -0.1954,0.13279 -0.455,0.19896 -0.7782,0.19896 -0.3132,0 -0.5673,-0.0662 -0.7627,-0.19896 -0.1955,-0.13279 -0.3234,-0.32957 -0.3835,-0.59014 l -1.3265,0.12764 c 0.083,0.53117 0.3395,0.94569 0.7705,1.24385 0.4309,0.29565 0.9998,0.44338 1.7063,0.44338 0.4811,0 0.9067,-0.0772 1.2775,-0.23254 0.3708,-0.15534 0.6602,-0.37087 0.8681,-0.64647 0.2105,-0.27811 0.3174,-0.59892 0.3199,-0.96222 0,-0.41341 -0.1381,-0.74799 -0.4062,-1.00355 -0.2655,-0.25557 -0.6713,-0.44242 -1.2175,-0.56018 l -0.9849,-0.21032 c -0.2932,-0.0676 -0.5032,-0.15418 -0.631,-0.25941 -0.1253,-0.10524 -0.187,-0.24141 -0.1845,-0.40928 0,-0.19543 0.092,-0.35472 0.2822,-0.47749 0.1929,-0.12277 0.4305,-0.18397 0.7136,-0.18397 0.2105,0 0.3885,0.0336 0.5339,0.10129 0.1453,0.0676 0.2605,0.1564 0.3457,0.26665 0.088,0.11024 0.1494,0.22819 0.1845,0.35346 l 1.2402,-0.13539 c -0.093,-0.49108 -0.3347,-0.88079 -0.7255,-1.16892 -0.3884,-0.28813 -0.9209,-0.43202 -1.5974,-0.43202 z"
       style="font-style:normal;font-variant:normal;font-weight:600;font-stretch:normal;font-size:10.5833px;font-family:Inter;-inkscape-font-specification:'Inter Semi-Bold';letter-spacing:1.71295px;fill:#ffffff;stroke:none;stroke-width:0.898609;stroke-linecap:round;stroke-dasharray:none"
       id="path1" /></g><style
     type="text/css"
     id="style1">
	.st0{fill:#009FE3;}
</style></svg>
