<?xml version="1.0" encoding="UTF-8" standalone="no"?>
<!-- Created with Inkscape (http://www.inkscape.org/) -->

<svg
   width="637.84222mm"
   height="273.2764mm"
   viewBox="0 0 637.84223 273.27639"
   version="1.1"
   id="svg1"
   inkscape:version="1.3.2 (091e20ef0f, 2023-11-25)"
   sodipodi:docname="composeLayout.svg"
   xml:space="preserve"
   xmlns:inkscape="http://www.inkscape.org/namespaces/inkscape"
   xmlns:sodipodi="http://sodipodi.sourceforge.net/DTD/sodipodi-0.dtd"
   xmlns="http://www.w3.org/2000/svg"
   xmlns:svg="http://www.w3.org/2000/svg"><sodipodi:namedview
     id="namedview1"
     pagecolor="#505050"
     bordercolor="#eeeeee"
     borderopacity="1"
     inkscape:showpageshadow="0"
     inkscape:pageopacity="0"
     inkscape:pagecheckerboard="0"
     inkscape:deskcolor="#505050"
     inkscape:document-units="mm"
     inkscape:zoom="0.41386159"
     inkscape:cx="1436.4706"
     inkscape:cy="373.31321"
     inkscape:window-width="1888"
     inkscape:window-height="979"
     inkscape:window-x="26"
     inkscape:window-y="23"
     inkscape:window-maximized="0"
     inkscape:current-layer="layer1"
     showguides="false"><sodipodi:guide
       position="318.92112,268.41024"
       orientation="1,0"
       id="guide2"
       inkscape:locked="false" /><sodipodi:guide
       position="308.13269,273.9769"
       orientation="0,-1"
       id="guide3"
       inkscape:locked="false" /><sodipodi:guide
       position="193.82594,287.71494"
       orientation="0.70710678,-0.70710678"
       id="guide4"
       inkscape:locked="false" /></sodipodi:namedview><defs
     id="defs1">
	

		
		
		
		
		
		
		
		
		
		
		
		
	</defs><g
     inkscape:label="Layer 1"
     inkscape:groupmode="layer"
     id="layer1"
     transform="translate(-608.16034,506.02914)"><g
       id="g24"
       transform="matrix(1,0,0,0.99973383,1.4909289e-5,-1.5504701)"><rect
         style="fill:#161b22;fill-opacity:1;stroke:#ffffff;stroke-width:0.694;stroke-linecap:round;stroke-dasharray:none"
         id="rect2"
         width="128"
         height="128"
         x="615.91931"
         y="-496.854"
         rx="5.9979587"
         ry="5.9979587" /><text
         xml:space="preserve"
         style="font-weight:500;font-size:19.7556px;font-family:Inter;-inkscape-font-specification:'Inter Medium';text-align:start;letter-spacing:0px;text-anchor:start;fill:none;fill-opacity:1;stroke:#ffffff;stroke-width:7.01146;stroke-linecap:round;stroke-dasharray:none"
         x="637.25116"
         y="-433.89157"
         id="text2"><tspan
           sodipodi:role="line"
           style="font-style:normal;font-variant:normal;font-weight:500;font-stretch:normal;font-size:19.7556px;font-family:Inter;-inkscape-font-specification:'Inter Medium';text-align:start;text-anchor:start;fill:#ffffff;stroke:none;stroke-width:7.01146"
           x="637.25116"
           y="-433.89157"
           id="tspan3">Frontend</tspan></text><text
         xml:space="preserve"
         style="font-weight:500;font-size:7.76111px;font-family:Inter;-inkscape-font-specification:'Inter Medium';text-align:start;letter-spacing:1.32292px;text-anchor:start;fill:none;fill-opacity:1;stroke:#ffffff;stroke-width:7.01146;stroke-linecap:round;stroke-dasharray:none"
         x="659.68695"
         y="-417.53412"
         id="text2-6"><tspan
           sodipodi:role="line"
           style="font-style:normal;font-variant:normal;font-weight:600;font-stretch:normal;font-size:7.76111px;font-family:Inter;-inkscape-font-specification:'Inter Semi-Bold';text-align:start;letter-spacing:1.32292px;text-anchor:start;fill:#ffffff;stroke:none;stroke-width:7.01146"
           x="659.68695"
           y="-417.53412"
           id="tspan3-2">NEXT.JS</tspan></text></g><rect
       style="fill:#161b22;fill-opacity:1;stroke:#ffffff;stroke-width:0.693908;stroke-linecap:round;stroke-dasharray:none"
       id="rect2-5-0"
       width="128"
       height="92.512733"
       x="1110.2437"
       y="-333.02243"
       rx="5.9979587"
       ry="5.9963622" /><g
       id="g22"
       transform="matrix(1,0,0,0.99973383,0,1.1950757)"><rect
         style="fill:#161b22;fill-opacity:1;stroke:#ffffff;stroke-width:0.694;stroke-linecap:round;stroke-dasharray:none"
         id="rect2-53"
         width="128"
         height="128"
         x="863.08148"
         y="-499.60028"
         rx="5.9979587"
         ry="5.9979587" /><text
         xml:space="preserve"
         style="font-weight:500;font-size:7.76111px;font-family:Inter;-inkscape-font-specification:'Inter Medium';text-align:start;letter-spacing:1.32292px;text-anchor:start;fill:none;fill-opacity:1;stroke:#ffffff;stroke-width:7.01146;stroke-linecap:round;stroke-dasharray:none"
         x="890.96173"
         y="-420.27631"
         id="text2-6-9"><tspan
           sodipodi:role="line"
           style="font-style:normal;font-variant:normal;font-weight:600;font-stretch:normal;font-size:7.76111px;font-family:Inter;-inkscape-font-specification:'Inter Semi-Bold';text-align:start;letter-spacing:1.32292px;text-anchor:start;fill:#ffffff;stroke:none;stroke-width:7.01146"
           x="890.96173"
           y="-420.27631"
           id="tspan6">DJANGO + DRF</tspan></text><text
         xml:space="preserve"
         style="font-weight:500;font-size:19.7556px;font-family:Inter;-inkscape-font-specification:'Inter Medium';text-align:start;letter-spacing:0px;text-anchor:start;fill:none;fill-opacity:1;stroke:#ffffff;stroke-width:7.01146;stroke-linecap:round;stroke-dasharray:none"
         x="886.23383"
         y="-436.63376"
         id="text2-5"><tspan
           sodipodi:role="line"
           style="font-style:normal;font-variant:normal;font-weight:500;font-stretch:normal;font-size:19.7556px;font-family:Inter;-inkscape-font-specification:'Inter Medium';text-align:start;text-anchor:start;fill:#ffffff;stroke:none;stroke-width:7.01146"
           x="886.23383"
           y="-436.63376"
           id="tspan3-6">Backend</tspan></text></g><g
       id="g20"
       transform="matrix(1,0,0,0.99973383,0,-1.2035777)"><rect
         style="fill:#161b22;fill-opacity:1;stroke:#ffffff;stroke-width:0.694;stroke-linecap:round;stroke-dasharray:none"
         id="rect2-53-2"
         width="128"
         height="128"
         x="1110.2437"
         y="-497.20099"
         rx="5.9979587"
         ry="5.9979587" /><text
         xml:space="preserve"
         style="font-weight:500;font-size:7.76111px;font-family:Inter;-inkscape-font-specification:'Inter Medium';text-align:start;letter-spacing:1.32292px;text-anchor:start;fill:none;fill-opacity:1;stroke:#ffffff;stroke-width:7.01146;stroke-linecap:round;stroke-dasharray:none"
         x="1149.4664"
         y="-417.88751"
         id="text2-6-9-5"><tspan
           sodipodi:role="line"
           style="font-style:normal;font-variant:normal;font-weight:600;font-stretch:normal;font-size:7.76111px;font-family:Inter;-inkscape-font-specification:'Inter Semi-Bold';text-align:start;letter-spacing:1.32292px;text-anchor:start;fill:#ffffff;stroke:none;stroke-width:7.01146"
           x="1149.4664"
           y="-417.88751"
           id="tspan6-9">MONGODB</tspan></text><text
         xml:space="preserve"
         style="font-weight:500;font-size:19.7556px;font-family:Inter;-inkscape-font-specification:'Inter Medium';text-align:start;letter-spacing:0px;text-anchor:start;fill:none;fill-opacity:1;stroke:#ffffff;stroke-width:7.01146;stroke-linecap:round;stroke-dasharray:none"
         x="1128.9728"
         y="-434.22391"
         id="text2-5-7"><tspan
           sodipodi:role="line"
           style="font-style:normal;font-variant:normal;font-weight:500;font-stretch:normal;font-size:19.7556px;font-family:Inter;-inkscape-font-specification:'Inter Medium';text-align:start;text-anchor:start;fill:#ffffff;stroke:none;stroke-width:7.01146"
           x="1128.9728"
           y="-434.22391"
           id="tspan3-6-0">Database</tspan></text></g><text
       xml:space="preserve"
       style="font-weight:500;font-size:7.76008px;font-family:Inter;-inkscape-font-specification:'Inter Medium';text-align:start;letter-spacing:1.32274px;text-anchor:start;fill:none;fill-opacity:1;stroke:#ffffff;stroke-width:7.01053;stroke-linecap:round;stroke-dasharray:none"
       x="1173.8986"
       y="-288.83243"
       id="text2-6-9-5-5"
       transform="scale(1.0001331,0.99986691)"><tspan
         sodipodi:role="line"
         style="font-style:normal;font-variant:normal;font-weight:600;font-stretch:normal;font-size:7.76008px;font-family:Inter;-inkscape-font-specification:'Inter Semi-Bold';text-align:center;letter-spacing:1.32274px;text-anchor:middle;fill:#ffffff;stroke:none;stroke-width:7.01053"
         x="1173.8986"
         y="-288.83243"
         id="tspan6-9-6">DATABASE</tspan><tspan
         sodipodi:role="line"
         style="font-style:normal;font-variant:normal;font-weight:600;font-stretch:normal;font-size:7.76008px;font-family:Inter;-inkscape-font-specification:'Inter Semi-Bold';text-align:center;letter-spacing:1.32274px;text-anchor:middle;fill:#ffffff;stroke:none;stroke-width:7.01053"
         x="1174.5599"
         y="-279.13232"
         id="tspan1">INIT CONTAINER</tspan></text><text
       xml:space="preserve"
       style="font-style:normal;font-variant:normal;font-weight:normal;font-stretch:normal;font-size:7.7611px;font-family:'JetBrains Mono';-inkscape-font-specification:'JetBrains Mono';letter-spacing:0px;fill:none;stroke:#ffffff;stroke-width:0.693999;stroke-linecap:round;stroke-dasharray:none"
       x="1028.7339"
       y="-437.92307"
       id="text14-7"><tspan
         sodipodi:role="line"
         id="tspan14-3"
         style="font-style:normal;font-variant:normal;font-weight:normal;font-stretch:normal;font-family:'JetBrains Mono';-inkscape-font-specification:'JetBrains Mono';letter-spacing:0px;fill:#ffffff;stroke:none;stroke-width:0.694"
         x="1028.7339"
         y="-437.92307" /></text><path
       style="font-weight:600;font-size:6.16702px;font-family:Inter;-inkscape-font-specification:'Inter Semi-Bold';letter-spacing:1.0512px;fill:#ffffff;stroke-width:0.551385;stroke-linecap:round"
       d="m 1031.5526,-422.07175 v -4.48391 h 1.6819 q 0.5169,0 0.8673,0.19267 0.3525,0.19267 0.5321,0.52983 0.1818,0.33498 0.1818,0.76192 0,0.43131 -0.1818,0.76629 -0.1817,0.33498 -0.5365,0.52765 -0.3548,0.19048 -0.8738,0.19048 h -1.1147 v -0.66777 h 1.0052 q 0.3022,0 0.4949,-0.10509 0.1927,-0.1051 0.2847,-0.28901 0.094,-0.18391 0.094,-0.42255 0,-0.23865 -0.094,-0.42037 -0.092,-0.18172 -0.2869,-0.28244 -0.1927,-0.1029 -0.4971,-0.1029 h -0.7446 v 3.8052 z m 4.7129,-4.48391 h 0.9176 l 1.0972,1.9836 h 0.044 l 1.0972,-1.9836 h 0.9176 l -1.6316,2.8112 v 1.67271 h -0.8103 v -1.67271 z m 5.7027,0 h 0.9943 l 1.3315,3.24909 h 0.053 l 1.3315,-3.24909 h 0.9942 v 4.48391 h -0.7796 v -3.0805 h -0.042 l -1.2396,3.06736 h -0.5825 l -1.2395,-3.07393 h -0.042 v 3.08707 h -0.7797 z m 10.6478,2.24195 q 0,0.7247 -0.2716,1.2414 -0.2694,0.51451 -0.7358,0.78818 -0.4643,0.27368 -1.0534,0.27368 -0.5891,0 -1.0556,-0.27368 -0.4643,-0.27586 -0.7358,-0.79037 -0.2694,-0.5167 -0.2694,-1.23921 0,-0.72469 0.2694,-1.23921 0.2715,-0.5167 0.7358,-0.79037 0.4665,-0.27367 1.0556,-0.27367 0.5891,0 1.0534,0.27367 0.4664,0.27367 0.7358,0.79037 0.2716,0.51452 0.2716,1.23921 z m -0.8169,0 q 0,-0.51013 -0.1599,-0.86044 -0.1576,-0.35249 -0.438,-0.53203 -0.2803,-0.18172 -0.646,-0.18172 -0.3657,0 -0.6461,0.18172 -0.2803,0.17954 -0.4402,0.53203 -0.1576,0.35031 -0.1576,0.86044 0,0.51014 0.1576,0.86263 0.1599,0.35031 0.4402,0.53202 0.2804,0.17953 0.6461,0.17953 0.3657,0 0.646,-0.17953 0.2804,-0.18171 0.438,-0.53202 0.1599,-0.35249 0.1599,-0.86263 z m 6.3247,-2.24195 v 4.48391 h -0.7227 l -2.1133,-3.05423 h -0.037 v 3.05423 h -0.8125 v -4.48391 h 0.7271 l 2.1112,3.05642 h 0.039 v -3.05642 z m 4.9384,1.43187 q -0.055,-0.17734 -0.1511,-0.31747 -0.094,-0.14231 -0.2277,-0.24302 -0.1314,-0.10071 -0.3022,-0.15107 -0.1709,-0.0526 -0.3723,-0.0526 -0.3614,0 -0.6439,0.18172 -0.2825,0.18173 -0.4446,0.53422 -0.1598,0.35031 -0.1598,0.85387 0,0.50795 0.1598,0.86045 0.1599,0.35249 0.4446,0.53639 0.2847,0.18172 0.6614,0.18172 0.3416,0 0.5913,-0.13136 0.2518,-0.13137 0.3876,-0.37219 0.1358,-0.24303 0.1358,-0.56925 l 0.1839,0.0285 h -1.2176 v -0.63493 h 1.8199 v 0.5386 q 0,0.57581 -0.2453,0.99617 -0.2453,0.42037 -0.6745,0.64807 -0.4292,0.22551 -0.9855,0.22551 -0.6198,0 -1.0884,-0.27806 -0.4665,-0.28024 -0.7293,-0.79474 -0.2606,-0.51671 -0.2606,-1.22608 0,-0.54297 0.1533,-0.96991 0.1555,-0.42694 0.4336,-0.7247 0.2781,-0.29994 0.6526,-0.45539 0.3745,-0.15763 0.8147,-0.15763 0.3723,0 0.6942,0.10947 0.322,0.10728 0.5716,0.30652 0.2519,0.19922 0.4139,0.4729 0.1621,0.27368 0.2125,0.60428 z m 6.7102,0.81008 q 0,0.7247 -0.2716,1.2414 -0.2693,0.51451 -0.7358,0.78818 -0.4643,0.27368 -1.0534,0.27368 -0.5891,0 -1.0556,-0.27368 -0.4642,-0.27586 -0.7358,-0.79037 -0.2694,-0.5167 -0.2694,-1.23921 0,-0.72469 0.2694,-1.23921 0.2716,-0.5167 0.7358,-0.79037 0.4665,-0.27367 1.0556,-0.27367 0.5891,0 1.0534,0.27367 0.4665,0.27367 0.7358,0.79037 0.2716,0.51452 0.2716,1.23921 z m -0.8169,0 q 0,-0.51013 -0.1598,-0.86044 -0.1577,-0.35249 -0.438,-0.53203 -0.2804,-0.18172 -0.6461,-0.18172 -0.3657,0 -0.646,0.18172 -0.2804,0.17954 -0.4402,0.53203 -0.1577,0.35031 -0.1577,0.86044 0,0.51014 0.1577,0.86263 0.1598,0.35031 0.4402,0.53202 0.2803,0.17953 0.646,0.17953 0.3657,0 0.6461,-0.17953 0.2803,-0.18171 0.438,-0.53202 0.1598,-0.35249 0.1598,-0.86263 z"
       id="text14-1-5"
       aria-label="PYMONGO" /><path
       style="fill:none;fill-opacity:1;stroke:#ffffff;stroke-width:0.693908;stroke-linecap:round;stroke-dasharray:none"
       d="m 755.62774,-433.26338 h 95.74532"
       id="path13"
       sodipodi:nodetypes="cc" /><path
       style="fill:none;fill-opacity:1;stroke:#ffffff;stroke-width:0.693908;stroke-linecap:round;stroke-dasharray:none;stroke-dashoffset:0"
       d="m 1174.2437,-366.31777 v 27.46599"
       id="path13-2-7"
       sodipodi:nodetypes="cc" /><path
       id="text14"
       style="font-style:normal;font-variant:normal;font-weight:600;font-stretch:normal;font-size:10.5833px;font-family:Inter;-inkscape-font-specification:'Inter Semi-Bold';letter-spacing:1.71295px;fill:#ffffff;stroke:none;stroke-width:0.898489;stroke-linecap:round;stroke-dasharray:none"
       d="m 790.24083,-448.58518 c -0.53869,0 -1.021,0.0953 -1.44694,0.28569 -0.42594,0.18787 -0.76275,0.45185 -1.01079,0.79251 -0.24554,0.34066 -0.36846,0.73796 -0.36846,1.19134 0,0.55106 0.183,0.99304 0.54881,1.32618 0.36831,0.33064 0.86937,0.57751 1.50327,0.74032 l 0.87591,0.22525 c 0.27561,0.0702 0.51595,0.15058 0.7214,0.24076 0.20796,0.0877 0.36948,0.19787 0.48473,0.33064 0.11525,0.13024 0.17423,0.29557 0.17673,0.49596 -0.003,0.22042 -0.0692,0.4133 -0.19947,0.57862 -0.13029,0.16281 -0.31054,0.29014 -0.54105,0.38282 -0.228,0.0902 -0.49368,0.13535 -0.79685,0.13535 -0.29064,0 -0.55358,-0.0436 -0.7891,-0.13122 -0.23301,-0.0877 -0.42209,-0.22047 -0.56741,-0.39831 -0.14532,-0.17786 -0.228,-0.40102 -0.24804,-0.66904 h -1.37201 c 0.02,0.51099 0.15288,0.94466 0.39842,1.30035 0.24805,0.35569 0.59145,0.62626 1.02991,0.81162 0.44097,0.18536 0.96078,0.27795 1.5596,0.27795 0.61635,0 1.14112,-0.0953 1.57458,-0.2857 0.43596,-0.19287 0.76943,-0.45959 0.99994,-0.80025 0.2305,-0.34317 0.34571,-0.74048 0.34571,-1.19135 0,-0.33314 -0.0628,-0.62356 -0.1881,-0.87154 -0.12528,-0.24799 -0.29561,-0.4596 -0.51108,-0.63493 -0.21297,-0.17535 -0.45442,-0.32082 -0.72502,-0.43604 -0.26809,-0.11523 -0.54755,-0.20618 -0.83819,-0.27382 l -0.7214,-0.18082 c -0.15785,-0.0376 -0.3144,-0.0839 -0.46974,-0.13896 -0.15535,-0.0551 -0.297,-0.12237 -0.42478,-0.20253 -0.12779,-0.0827 -0.22921,-0.18294 -0.30438,-0.30067 -0.0727,-0.11773 -0.10904,-0.25661 -0.10904,-0.41692 0.003,-0.19287 0.0587,-0.36479 0.16899,-0.51508 0.11024,-0.15029 0.26953,-0.26932 0.47749,-0.35698 0.20795,-0.0877 0.45712,-0.13123 0.74775,-0.13123 0.41341,0 0.74911,0.0915 1.00718,0.27433 0.26057,0.18286 0.40831,0.43802 0.44338,0.76615 h 1.34152 c -0.008,-0.43333 -0.1288,-0.81634 -0.36432,-1.14949 -0.23551,-0.33564 -0.56017,-0.5974 -0.97358,-0.78527 -0.4109,-0.19037 -0.88937,-0.28569 -1.43557,-0.28569 z m -19.49235,0.10539 v 7.69464 h 1.39423 v -2.81768 h 1.41903 l 1.51257,2.81768 h 1.55598 l -1.66812,-3.0512 c 0.0498,-0.0201 0.10263,-0.0372 0.14987,-0.06 0.40589,-0.19788 0.7124,-0.47676 0.92035,-0.83745 0.21047,-0.3632 0.31575,-0.79191 0.31575,-1.28537 0,-0.49095 -0.10365,-0.92025 -0.31161,-1.28846 -0.20545,-0.37073 -0.51025,-0.65892 -0.91364,-0.86432 -0.40088,-0.2054 -0.89698,-0.30791 -1.48828,-0.30791 z m 8.59792,0 v 7.69464 h 5.03639 v -1.16861 h -3.64216 v -2.10009 h 3.35277 v -1.16861 h -3.35277 v -2.08872 h 3.61167 v -1.16861 z m 16.38815,0 v 1.16861 h 2.37918 v 6.52603 h 1.38286 v -6.52603 h 2.37919 v -1.16861 z m 15.58406,0 -2.70991,7.69464 h 1.48828 l 0.63665,-1.89706 h 2.89388 l 0.63769,1.89706 h 1.48828 l -2.71353,-7.69464 z m 7.16236,0 v 7.69464 h 1.39423 v -2.59967 h 1.47329 c 0.59381,0 1.09376,-0.1091 1.49965,-0.32702 0.40589,-0.22043 0.71292,-0.5224 0.92087,-0.90565 0.20796,-0.38324 0.31213,-0.82136 0.31213,-1.31481 0,-0.48845 -0.10417,-0.92434 -0.31213,-1.30758 -0.20545,-0.38575 -0.50973,-0.68884 -0.91312,-0.90927 -0.40088,-0.22042 -0.89698,-0.33064 -1.48828,-0.33064 z m 8.52299,0 v 7.69464 h 1.39423 v -7.69464 z m -54.86125,1.16448 h 1.27796 c 0.34826,0 0.63269,0.0513 0.85317,0.15395 0.22049,0.10019 0.38423,0.2484 0.49196,0.44378 0.10774,0.19288 0.16175,0.42546 0.16175,0.69848 0,0.27303 -0.054,0.5039 -0.16175,0.69177 -0.10523,0.18536 -0.26785,0.32646 -0.48834,0.42415 -0.22048,0.0952 -0.5038,0.1431 -0.84956,0.1431 h -1.28519 z m 47.73249,0 h 1.27795 c 0.34827,0 0.6327,0.059 0.85318,0.17668 0.22299,0.11523 0.38725,0.2767 0.49248,0.4846 0.10773,0.2079 0.16123,0.4487 0.16123,0.72173 0,0.27303 -0.0535,0.51441 -0.16123,0.72483 -0.10523,0.2104 -0.26838,0.37573 -0.48886,0.49595 -0.22049,0.12024 -0.50328,0.18031 -0.84905,0.18031 h -1.2857 z m -7.72615,0.4133 h 0.0605 l 1.0418,3.09976 h -2.14199 z m 21.65656,0.27071 c -0.46101,0 -0.86784,0.0728 -1.22111,0.21802 -0.35077,0.14277 -0.62527,0.34558 -0.82321,0.60859 -0.19543,0.2605 -0.29189,0.56855 -0.28939,0.92424 -0.003,0.42081 0.12871,0.76908 0.39429,1.04462 0.26559,0.27303 0.67567,0.46702 1.22939,0.58224 l 0.98443,0.20665 c 0.26559,0.0576 0.46125,0.14027 0.58653,0.24797 0.12778,0.10772 0.1912,0.24437 0.1912,0.4097 0,0.19537 -0.0987,0.35958 -0.29662,0.49233 -0.19543,0.13276 -0.45504,0.19891 -0.77825,0.19891 -0.31319,0 -0.56731,-0.0662 -0.76274,-0.19891 -0.19543,-0.13275 -0.32331,-0.32948 -0.38344,-0.58998 l -1.32653,0.12761 c 0.0827,0.53103 0.33954,0.94544 0.77049,1.24352 0.43095,0.29557 0.9998,0.44326 1.70636,0.44326 0.48106,0 0.90662,-0.0772 1.27744,-0.23248 0.37081,-0.1553 0.66021,-0.37077 0.86816,-0.6463 0.21047,-0.27803 0.31737,-0.59876 0.31988,-0.96196 -0.003,-0.4133 -0.13809,-0.74779 -0.40618,-1.00328 -0.26558,-0.25551 -0.67129,-0.44231 -1.21749,-0.56003 l -0.98496,-0.21027 c -0.29314,-0.0676 -0.50318,-0.15414 -0.63097,-0.25934 -0.12527,-0.10521 -0.18699,-0.24135 -0.18448,-0.40917 -0.003,-0.19538 0.0917,-0.35463 0.28215,-0.47736 0.19293,-0.12274 0.43053,-0.18392 0.71365,-0.18392 0.21047,0 0.3885,0.0336 0.53382,0.10126 0.14532,0.0676 0.26053,0.15636 0.34572,0.26658 0.0877,0.11021 0.14941,0.22813 0.18448,0.35336 l 1.24024,-0.13535 c -0.0927,-0.49095 -0.33468,-0.88056 -0.72554,-1.16861 -0.38836,-0.28805 -0.92083,-0.4319 -1.59732,-0.4319 z m -26.10383,20.01412 c -0.29346,0 -0.56476,0.053 -0.81442,0.15808 -0.24966,0.10364 -0.46726,0.25519 -0.65268,0.45515 -0.18542,0.19851 -0.3299,0.44022 -0.43356,0.72483 -0.1022,0.28462 -0.15348,0.60773 -0.15348,0.96971 0,0.47292 0.0872,0.88149 0.26097,1.22596 0.1752,0.343 0.41817,0.60825 0.72915,0.79508 0.31244,0.18537 0.67513,0.27795 1.08831,0.27795 0.37083,0 0.69931,-0.0754 0.98547,-0.22576 0.28615,-0.1518 0.51085,-0.36761 0.67437,-0.64786 0.16352,-0.28024 0.24547,-0.61217 0.24547,-0.99605 v -0.53884 h -1.82005 v 0.63493 h 1.03095 c -0.004,0.20491 -0.0465,0.38643 -0.13281,0.54091 -0.0905,0.16056 -0.21968,0.28439 -0.38757,0.37197 -0.16644,0.0876 -0.36394,0.13174 -0.5917,0.13174 -0.25112,0 -0.47114,-0.0607 -0.66094,-0.18185 -0.1898,-0.1226 -0.33836,-0.30127 -0.44494,-0.53626 -0.10658,-0.23499 -0.15968,-0.52208 -0.15968,-0.8607 0,-0.33571 0.0531,-0.62045 0.15968,-0.85399 0.10804,-0.23499 0.2566,-0.41304 0.44494,-0.53419 0.18834,-0.12114 0.40299,-0.18133 0.64389,-0.18133 0.13432,0 0.25819,0.0171 0.37207,0.0522 0.11388,0.0336 0.2147,0.0842 0.3023,0.15137 0.0891,0.0672 0.16512,0.14794 0.2279,0.24281 0.0642,0.0934 0.11439,0.1995 0.15089,0.31773 h 0.82786 c -0.0336,-0.2204 -0.10435,-0.42201 -0.21239,-0.60445 -0.10804,-0.18245 -0.24603,-0.33989 -0.41393,-0.47271 -0.16644,-0.13283 -0.35692,-0.23536 -0.57154,-0.30688 -0.21462,-0.073 -0.44633,-0.10953 -0.69453,-0.10953 z m 5.71386,0 c -0.39274,0 -0.74477,0.0914 -1.05575,0.27381 -0.30952,0.18246 -0.55483,0.44598 -0.73587,0.79044 -0.17958,0.34301 -0.26923,0.75626 -0.26923,1.23939 0,0.48167 0.0897,0.89441 0.26923,1.23887 0.18104,0.34301 0.42635,0.60653 0.73587,0.79044 0.31098,0.18245 0.66301,0.27381 1.05575,0.27381 0.39274,0 0.74365,-0.0914 1.05317,-0.27381 0.31098,-0.18245 0.55629,-0.44485 0.73587,-0.78786 0.18104,-0.34447 0.27182,-0.75833 0.27182,-1.24145 0,-0.48313 -0.0908,-0.89638 -0.27182,-1.23939 -0.17958,-0.34446 -0.42489,-0.60798 -0.73587,-0.79044 -0.30952,-0.18245 -0.66043,-0.27381 -1.05317,-0.27381 z m -28.81581,0.0615 v 4.48381 h 1.5198 c 0.45552,0 0.84532,-0.0897 1.16944,-0.26917 0.32558,-0.17953 0.57445,-0.43717 0.74672,-0.77288 0.17374,-0.33571 0.26045,-0.73718 0.26045,-1.20425 0,-0.46561 -0.0861,-0.86535 -0.25838,-1.19961 -0.17228,-0.33425 -0.41881,-0.59067 -0.74,-0.76874 -0.31974,-0.17953 -0.70244,-0.26916 -1.14774,-0.26916 z m 7.28844,0 v 3.15297 c -0.001,0.15764 -0.0267,0.29031 -0.0749,0.39832 -0.0467,0.10802 -0.11515,0.18993 -0.20567,0.2454 -0.0905,0.054 -0.20079,0.0806 -0.33073,0.0806 -0.11972,0 -0.22531,-0.0231 -0.31729,-0.0698 -0.092,-0.0467 -0.16448,-0.11391 -0.21704,-0.20149 -0.0511,-0.0876 -0.0771,-0.19193 -0.0786,-0.31307 h -0.80822 c 0,0.27586 0.0613,0.50639 0.18397,0.69176 0.12264,0.18537 0.28835,0.32566 0.49712,0.42054 0.21024,0.0934 0.44672,0.14 0.70952,0.14 0.28762,0 0.53943,-0.0554 0.75551,-0.16636 0.21754,-0.11239 0.3868,-0.27215 0.50798,-0.47942 0.12118,-0.20872 0.18251,-0.45753 0.18397,-0.74653 v -3.15297 z m 4.02715,0 -1.57923,4.48381 h 0.86764 l 0.37104,-1.10559 h 1.6862 l 0.37156,1.10559 h 0.86713 l -1.5813,-4.48381 z m 4.22661,0 v 4.48381 h 0.81236 v -3.0543 h 0.0372 l 2.11357,3.0543 h 0.72295 v -4.48381 h -0.80822 v 3.05637 h -0.0398 l -2.11098,-3.05637 z m 13.27361,0.668 c 0.24382,0 0.45908,0.0602 0.64596,0.18133 0.18688,0.11969 0.33309,0.29714 0.43821,0.53213 0.10658,0.23354 0.15968,0.52061 0.15968,0.8607 0,0.34008 -0.0531,0.62726 -0.15968,0.86225 -0.10512,0.23354 -0.25133,0.41097 -0.43821,0.53212 -0.18688,0.11969 -0.40214,0.17979 -0.64596,0.17979 -0.24382,0 -0.45908,-0.0601 -0.64595,-0.17979 -0.18688,-0.12115 -0.33371,-0.29858 -0.44029,-0.53212 -0.10512,-0.23499 -0.15761,-0.52217 -0.15761,-0.86225 0,-0.34009 0.0525,-0.62716 0.15761,-0.8607 0.10658,-0.23499 0.25341,-0.41244 0.44029,-0.53213 0.18687,-0.12114 0.40213,-0.18133 0.64595,-0.18133 z m -28.00346,0.0346 h 0.69195 c 0.30368,0 0.55783,0.0572 0.76223,0.17101 0.20586,0.11239 0.36152,0.28221 0.46664,0.5099 0.10512,0.22624 0.15761,0.51099 0.15761,0.85399 0,0.343 -0.0525,0.62896 -0.15761,0.85812 -0.10512,0.2277 -0.262,0.39925 -0.47078,0.51456 -0.20878,0.11385 -0.46942,0.171 -0.78186,0.171 h -0.66818 z m 10.98745,0.21699 h 0.0346 l 0.6072,1.80612 h -1.24799 z m -9.85935,6.72595 c -0.39128,0 -0.7421,0.0914 -1.05162,0.27382 -0.30952,0.18245 -0.55371,0.44545 -0.73328,0.78992 -0.17958,0.34301 -0.26976,0.75626 -0.26976,1.23939 0,0.48167 0.089,0.89492 0.26717,1.23939 0.17812,0.34447 0.42222,0.60799 0.73174,0.79044 0.30952,0.18245 0.66155,0.2733 1.05575,0.2733 0.26718,0 0.51015,-0.0395 0.72915,-0.11831 0.219,-0.0803 0.41009,-0.19113 0.57361,-0.33271 0.16352,-0.14304 0.29562,-0.30758 0.39636,-0.49441 0.1022,-0.18683 0.16881,-0.38722 0.19947,-0.60032 l -0.81907,-0.004 c -0.0248,0.13137 -0.0702,0.24811 -0.13591,0.35028 -0.0642,0.10217 -0.14384,0.18825 -0.23874,0.25831 -0.0934,0.0701 -0.19904,0.12315 -0.3173,0.15964 -0.1168,0.035 -0.2424,0.0527 -0.37672,0.0527 -0.24236,0 -0.45762,-0.059 -0.64595,-0.1772 -0.18688,-0.11969 -0.33432,-0.29652 -0.44235,-0.53006 -0.10658,-0.235 -0.1602,-0.52389 -0.1602,-0.8669 0,-0.33717 0.0536,-0.62251 0.1602,-0.85605 0.10657,-0.235 0.25401,-0.41304 0.44235,-0.53419 0.18833,-0.12261 0.4042,-0.18392 0.64802,-0.18392 0.13724,0 0.26518,0.0189 0.38344,0.0568 0.11972,0.0365 0.22592,0.0913 0.31936,0.16428 0.0934,0.073 0.17183,0.16201 0.23461,0.2671 0.0628,0.10363 0.10583,0.22271 0.12919,0.357 h 0.81907 c -0.0336,-0.2496 -0.10496,-0.4713 -0.21446,-0.66543 -0.10804,-0.19558 -0.24602,-0.36064 -0.41392,-0.49493 -0.1679,-0.13574 -0.35951,-0.23887 -0.57413,-0.30893 -0.21462,-0.0701 -0.44642,-0.10489 -0.69608,-0.10489 z m 5.64358,0 c -0.39274,0 -0.74477,0.0914 -1.05575,0.27382 -0.30952,0.18245 -0.55483,0.44545 -0.73587,0.78992 -0.17958,0.34301 -0.26923,0.75626 -0.26923,1.23939 0,0.48167 0.0897,0.89492 0.26923,1.23939 0.18104,0.34301 0.42635,0.60653 0.73587,0.79044 0.31098,0.18245 0.66301,0.2733 1.05575,0.2733 0.39274,0 0.74365,-0.0909 1.05317,-0.2733 0.31098,-0.18245 0.55629,-0.44537 0.73587,-0.78838 0.18104,-0.34446 0.27182,-0.75832 0.27182,-1.24145 0,-0.48313 -0.0908,-0.89638 -0.27182,-1.23939 -0.17958,-0.34447 -0.42489,-0.60747 -0.73587,-0.78992 -0.30952,-0.18245 -0.66043,-0.27382 -1.05317,-0.27382 z m 10.54923,0 c -0.3139,0 -0.59516,0.0554 -0.84336,0.16636 -0.2482,0.10947 -0.44457,0.26336 -0.58911,0.46187 -0.14308,0.1985 -0.21446,0.42964 -0.21446,0.69382 0,0.32112 0.1062,0.57875 0.31936,0.77288 0.21462,0.19267 0.50706,0.33651 0.87643,0.43138 l 0.51005,0.13175 c 0.1606,0.0409 0.30093,0.0875 0.42065,0.14 0.12118,0.0511 0.21499,0.11534 0.28215,0.1927 0.0672,0.0759 0.10189,0.17202 0.10335,0.28879 -10e-4,0.12845 -0.0403,0.24103 -0.11627,0.33736 -0.0759,0.0949 -0.18091,0.16918 -0.31523,0.22318 -0.13286,0.0526 -0.28791,0.0791 -0.46457,0.0791 -0.16936,0 -0.32268,-0.0259 -0.45992,-0.077 -0.13578,-0.0511 -0.24605,-0.12833 -0.33073,-0.23197 -0.0847,-0.10363 -0.13249,-0.23335 -0.14417,-0.38953 h -0.79944 c 0.0117,0.29776 0.089,0.55011 0.23203,0.75738 0.14454,0.20726 0.34446,0.3647 0.59996,0.47271 0.25696,0.10801 0.56005,0.16222 0.90899,0.16222 0.35916,0 0.6652,-0.0554 0.91777,-0.16636 0.25404,-0.11238 0.44808,-0.268 0.5824,-0.4665 0.13432,-0.19997 0.20154,-0.43111 0.20154,-0.69384 0,-0.19413 -0.0366,-0.36334 -0.10956,-0.50784 -0.073,-0.14451 -0.17209,-0.26825 -0.29765,-0.37043 -0.1241,-0.10217 -0.26504,-0.18652 -0.42272,-0.25366 -0.15622,-0.0672 -0.31898,-0.12023 -0.48834,-0.15964 l -0.42065,-0.10539 c -0.092,-0.0219 -0.18336,-0.049 -0.27388,-0.0811 -0.0905,-0.0321 -0.17307,-0.0716 -0.24753,-0.11831 -0.0745,-0.0482 -0.13345,-0.10653 -0.17725,-0.17513 -0.0423,-0.0686 -0.0636,-0.1494 -0.0636,-0.24281 0.001,-0.11239 0.0345,-0.21259 0.0987,-0.30016 0.0642,-0.0876 0.15684,-0.1566 0.27802,-0.20769 0.12118,-0.0511 0.26627,-0.077 0.43563,-0.077 0.2409,0 0.43667,0.0536 0.58704,0.16016 0.15184,0.10655 0.23795,0.25515 0.25839,0.44636 h 0.78186 c -0.004,-0.25251 -0.0752,-0.47542 -0.21239,-0.66954 -0.13724,-0.19559 -0.32651,-0.34827 -0.56741,-0.45774 -0.23944,-0.11093 -0.51784,-0.16636 -0.83612,-0.16636 z m -6.66678,0.061 v 4.48432 h 0.81287 v -1.64236 h 0.82683 l 0.88108,1.64236 h 0.90692 l -0.97462,-1.78339 c 0.0283,-0.0115 0.063,-0.0165 0.0899,-0.0295 0.23652,-0.11531 0.41522,-0.27803 0.5364,-0.48821 0.12264,-0.21165 0.18397,-0.46157 0.18397,-0.74911 0,-0.28609 -0.0607,-0.5361 -0.1819,-0.75066 -0.11972,-0.21603 -0.29721,-0.38402 -0.53227,-0.50371 -0.2336,-0.11969 -0.52257,-0.17979 -0.86713,-0.17979 z m 12.7,0 v 4.48432 h 0.81236 v -1.9048 h 2.07842 v 1.9048 h 0.81494 v -4.48432 h -0.81494 v 1.8986 h -2.07842 v -1.8986 z m 5.63945,0 v 4.48432 h 2.93419 v -0.68091 h -2.12183 v -1.22389 h 1.95336 v -0.68092 h -1.95336 v -1.21768 h 2.10426 v -0.68092 z m 6.08594,0 -1.57924,4.48432 h 0.86713 l 0.37104,-1.10558 h 1.6862 l 0.37156,1.10558 h 0.86713 l -1.58079,-4.48432 z m 4.22661,0 v 4.48432 h 1.5198 c 0.45552,0 0.84532,-0.0902 1.16944,-0.26967 0.32558,-0.17954 0.57445,-0.43717 0.74673,-0.77288 0.17374,-0.33571 0.26045,-0.73667 0.26045,-1.20374 0,-0.46561 -0.0861,-0.86588 -0.25839,-1.20013 -0.17228,-0.33425 -0.4188,-0.59015 -0.74,-0.76822 -0.31974,-0.17954 -0.70244,-0.26968 -1.14774,-0.26968 z m 5.51853,0 v 4.48432 h 2.9347 v -0.68091 h -2.12183 v -1.22389 h 1.95337 v -0.68092 h -1.95337 v -1.21768 h 2.10426 v -0.68092 z m 4.79867,0 v 4.48432 h 0.81235 v -1.64236 h 0.82683 l 0.88108,1.64236 h 0.90692 l -0.97462,-1.78339 c 0.0283,-0.0115 0.063,-0.0165 0.0899,-0.0295 0.23652,-0.11531 0.41522,-0.27803 0.5364,-0.48821 0.12264,-0.21165 0.18397,-0.46157 0.18397,-0.74911 0,-0.28609 -0.0607,-0.5361 -0.1819,-0.75066 -0.11972,-0.21603 -0.29669,-0.38402 -0.53175,-0.50371 -0.2336,-0.11969 -0.52309,-0.17979 -0.86765,-0.17979 z m -42.85165,0.668 c 0.24382,0 0.45908,0.0607 0.64596,0.18185 0.18688,0.11969 0.33258,0.29713 0.4377,0.53213 0.10658,0.23354 0.16019,0.52009 0.16019,0.86018 0,0.34009 -0.0536,0.62777 -0.16019,0.86277 -0.10512,0.23354 -0.25082,0.41097 -0.4377,0.53212 -0.18688,0.11969 -0.40214,0.17927 -0.64596,0.17927 -0.24382,0 -0.45959,-0.0596 -0.64647,-0.17927 -0.18688,-0.12115 -0.33319,-0.29858 -0.43977,-0.53212 -0.10512,-0.235 -0.15761,-0.52268 -0.15761,-0.86277 0,-0.34009 0.0525,-0.62664 0.15761,-0.86018 0.10658,-0.235 0.25289,-0.41244 0.43977,-0.53213 0.18688,-0.12115 0.40265,-0.18185 0.64647,-0.18185 z m 4.69532,0.0109 h 0.74466 c 0.20294,0 0.36865,0.0301 0.49713,0.0899 0.12848,0.0584 0.22402,0.14447 0.2868,0.25832 0.0628,0.11239 0.094,0.248 0.094,0.4071 0,0.15909 -0.0313,0.2935 -0.094,0.40297 -0.0613,0.10801 -0.15626,0.19054 -0.28474,0.24746 -0.12847,0.0555 -0.29358,0.0832 -0.49506,0.0832 h -0.74879 z m 38.96868,0 h 0.74466 c 0.20294,0 0.36865,0.0301 0.49713,0.0899 0.12848,0.0584 0.22402,0.14447 0.2868,0.25832 0.0628,0.11239 0.0941,0.248 0.0941,0.4071 0,0.15909 -0.0313,0.2935 -0.0941,0.40297 -0.0613,0.10801 -0.15626,0.19054 -0.28473,0.24746 -0.12848,0.0555 -0.29359,0.0832 -0.49506,0.0832 h -0.7488 z m -10.3172,0.0243 h 0.69195 c 0.30368,0 0.55783,0.0566 0.76223,0.17049 0.20586,0.11239 0.36152,0.28273 0.46664,0.51042 0.10512,0.22624 0.15761,0.51098 0.15761,0.85399 0,0.343 -0.0525,0.62896 -0.15761,0.85811 -0.10512,0.2277 -0.262,0.39926 -0.47078,0.51457 -0.20877,0.11385 -0.46942,0.17048 -0.78186,0.17048 h -0.66818 z m -4.55527,0.21646 h 0.0351 l 0.60719,1.80665 h -1.2485 z"
       sodipodi:nodetypes="sccsccccccccscsccccsccssccccscccssscccccsccccccccccsccsccccccccccccccccccccccccccccccccccccscssccscccccccsccsccscccsccscsscccccccscccccccscsscccssccccccccscccccsscccsccscssccccccscsscsscccccsccsssccsccsccsccsccsccsscscccccsscccscscccccccccccccccccccccccccccsccsccsccsccscsccsccsccccccccscssssccccccccsccsccscscccccsccsccsccsccsccscccsccccccccscsccccsccssccccscccssscccccccccccccccccsccsccccccccccccccccccccccccccccccccccccccsccsscsccccccccccccccccccccccccsccscsccsccsccsccscsccsccscccsccsccscccsccsccsccccccc" /><path
       class="st0"
       d="m 768.5439,-420.30958 c 0,3.40043 3.31702,5.12595 4.73938,5.71047 l 0.0505,0.0226 c 0.10687,0.0506 0.23052,0.0506 0.3317,0 l 0.0505,-0.0226 c 1.42801,-0.58452 4.73941,-2.31004 4.73941,-5.71047 v -4.55266 c 0,-0.17424 -0.11804,-0.326 -0.28674,-0.36533 l -4.58197,-1.13535 c -0.0619,-0.0169 -0.12363,-0.0169 -0.17992,0 l -4.58196,1.13535 c -0.16866,0.0393 -0.28673,0.19109 -0.28673,0.36533 m 9.16958,4.55266 c 0,2.89458 -2.88411,4.43462 -4.19968,4.98542 -1.32119,-0.5508 -4.19968,-2.09084 -4.19968,-4.98542 v -4.26039 l 4.19968,-1.0398 4.19968,1.0398 z"
       id="path11"
       style="fill:#ffffff;stroke-width:0.056213" /><path
       style="fill:none;fill-opacity:1;stroke:#ffffff;stroke-width:0.693908;stroke-linecap:round;stroke-dasharray:none"
       d="m 1002.7899,-433.26338 h 95.7453"
       id="path13-9"
       sodipodi:nodetypes="cc" /><path
       style="font-size:6.66194px;font-family:'JetBrains Mono';-inkscape-font-specification:'JetBrains Mono';letter-spacing:0px;fill:#ffffff;stroke-width:0.436799;stroke-linecap:round"
       d="m 1012.5933,-441.52047 h 0.5596 v -2.79726 c 0,-0.29305 0.1532,-0.47287 0.3997,-0.47287 0.2399,0 0.3931,0.18649 0.3931,0.47953 v 2.7906 h 0.493 v -2.79726 c 0,-0.29305 0.1532,-0.47287 0.393,-0.47287 0.2465,0 0.3997,0.18649 0.3997,0.47953 v 2.7906 h 0.5597 v -2.78394 c 0,-0.55946 -0.3065,-0.94574 -0.7728,-0.94574 -0.3398,0 -0.5663,0.1998 -0.6263,0.51949 h -0.01 c -0.093,-0.31969 -0.3265,-0.51949 -0.6462,-0.51949 -0.3331,0 -0.5663,0.21978 -0.6129,0.55279 h -0.013 v -0.48619 h -0.5197 z m 5.5961,0.0533 c 0.8793,0 1.4389,-0.53948 1.4389,-1.46524 v -0.83918 c 0,-0.93242 -0.5529,-1.46524 -1.4389,-1.46524 -0.8861,0 -1.439,0.53282 -1.439,1.46524 v 0.83918 c 0,0.92576 0.5596,1.46524 1.439,1.46524 z m 0,-0.53282 c -0.5197,0 -0.8395,-0.2997 -0.8395,-0.86582 v -0.97238 c 0,-0.56612 0.3198,-0.86582 0.8395,-0.86582 0.5196,0 0.8394,0.2997 0.8394,0.86582 v 0.97238 c 0,0.56612 -0.3198,0.86582 -0.8394,0.86582 z m 2.6114,0.47953 h 0.5996 v -2.33105 c 0,-0.56611 0.3065,-0.89247 0.8061,-0.89247 0.4797,0 0.7795,0.30637 0.7795,0.86583 v 2.35769 h 0.5995 v -2.46425 c 0,-0.77924 -0.473,-1.26543 -1.2058,-1.26543 -0.5596,0 -0.9127,0.27972 -0.9726,0.76591 h -0.01 v -0.69931 h -0.5996 z m 4.4569,1.19884 h 1.0259 c 0.7861,0 1.2791,-0.45955 1.2791,-1.19884 v -3.66308 h -0.5929 v 0.63271 h -0.013 c -0.073,-0.4329 -0.4397,-0.69931 -0.966,-0.69931 -0.7528,0 -1.2191,0.52615 -1.2191,1.35867 v 0.77258 c 0,0.83918 0.4663,1.34535 1.2191,1.34535 0.5263,0 0.8927,-0.24642 0.966,-0.67934 h 0.02 l -0.013,0.59942 v 0.333 c 0,0.39962 -0.2598,0.6527 -0.6728,0.6527 h -1.0326 z m 0.9127,-1.95144 c -0.5063,0 -0.7995,-0.31302 -0.7995,-0.81253 v -0.83252 c 0,-0.49951 0.2932,-0.81254 0.7995,-0.81254 0.4929,0 0.7994,0.32634 0.7994,0.87914 v 0.69932 c 0,0.55279 -0.3065,0.87913 -0.7994,0.87913 z m 4.0105,0.80589 c 0.8793,0 1.4389,-0.53948 1.4389,-1.46524 v -0.83918 c 0,-0.93242 -0.5529,-1.46524 -1.4389,-1.46524 -0.8861,0 -1.439,0.53282 -1.439,1.46524 v 0.83918 c 0,0.92576 0.5596,1.46524 1.439,1.46524 z m 0,-0.53282 c -0.5197,0 -0.8395,-0.2997 -0.8395,-0.86582 v -0.97238 c 0,-0.56612 0.3198,-0.86582 0.8395,-0.86582 0.5196,0 0.8394,0.2997 0.8394,0.86582 v 0.97238 c 0,0.56612 -0.3198,0.86582 -0.8394,0.86582 z m 3.7839,0.54614 c 0.553,0 0.926,-0.28639 0.9927,-0.76592 h 0.01 v 0.69931 h 0.5996 v -4.86191 h -0.5996 v 1.06563 l 0.013,0.83251 h -0.01 c -0.067,-0.47287 -0.4597,-0.76591 -1.006,-0.76591 -0.7394,0 -1.2058,0.51949 -1.2058,1.36533 v 1.07229 c 0,0.83918 0.473,1.35867 1.2058,1.35867 z m 0.1999,-0.51949 c -0.5063,0 -0.8061,-0.24643 -0.8061,-0.84584 v -1.06563 c 0,-0.59942 0.2998,-0.84584 0.8061,-0.84584 0.493,0 0.7994,0.32634 0.7994,0.87914 v 0.99903 c 0,0.55279 -0.3064,0.87914 -0.7994,0.87914 z m 4.2237,0.51949 c 0.7328,0 1.2058,-0.51949 1.2058,-1.35867 v -1.07229 c 0,-0.84584 -0.4664,-1.36533 -1.2058,-1.36533 -0.5463,0 -0.9394,0.29304 -1.006,0.76591 h -0.01 l 0.013,-0.83251 v -1.06563 h -0.5996 v 4.86191 h 0.5996 v -0.69931 h 0.01 c 0.06,0.47953 0.4397,0.76592 0.9927,0.76592 z m -0.1999,-0.51949 c -0.493,0 -0.7994,-0.32635 -0.7994,-0.87914 v -0.99903 c 0,-0.5528 0.3064,-0.87914 0.7994,-0.87914 0.5063,0 0.8061,0.24642 0.8061,0.84584 v 1.06563 c 0,0.59941 -0.2998,0.84584 -0.8061,0.84584 z m 3.9839,-2.2911 c 0.3664,0 0.5529,-0.19314 0.5529,-0.49285 0,-0.29971 -0.1865,-0.49285 -0.5529,-0.49285 -0.3665,0 -0.553,0.19314 -0.553,0.49285 0,0.29971 0.1865,0.49285 0.553,0.49285 z m 0,2.81059 c 0.3664,0 0.5529,-0.19314 0.5529,-0.49285 0,-0.29971 -0.1865,-0.49285 -0.5529,-0.49285 -0.3665,0 -0.553,0.19314 -0.553,0.49285 0,0.29971 0.1865,0.49285 0.553,0.49285 z m 5.9957,0.66602 h 0.6329 l 2.365,-6.26056 h -0.6329 z m -2.9979,0 h 0.6329 l 2.365,-6.26056 h -0.6329 z m 9.0469,-0.66602 c 0.8461,0 1.4057,-0.48619 1.4324,-1.26544 h -0.5996 c -0.027,0.46622 -0.3398,0.73263 -0.8328,0.73263 -0.5262,0 -0.866,-0.31303 -0.866,-0.86582 v -1.00569 c 0,-0.54614 0.3398,-0.85916 0.866,-0.85916 0.493,0 0.8061,0.2664 0.8328,0.73262 h 0.5996 c -0.027,-0.77924 -0.5863,-1.26543 -1.4324,-1.26543 -0.886,0 -1.4656,0.52615 -1.4656,1.39863 v 0.99903 c 0,0.87248 0.5796,1.39863 1.4656,1.39863 z m 3.9439,-0.0133 c 0.8794,0 1.439,-0.53948 1.439,-1.46524 v -0.83918 c 0,-0.93242 -0.5529,-1.46524 -1.439,-1.46524 -0.886,0 -1.439,0.53282 -1.439,1.46524 v 0.83918 c 0,0.92576 0.5596,1.46524 1.439,1.46524 z m 0,-0.53282 c -0.5196,0 -0.8394,-0.2997 -0.8394,-0.86582 v -0.97238 c 0,-0.56612 0.3198,-0.86582 0.8394,-0.86582 0.5197,0 0.8394,0.2997 0.8394,0.86582 v 0.97238 c 0,0.56612 -0.3197,0.86582 -0.8394,0.86582 z m 2.6115,0.47953 h 0.5996 v -2.33105 c 0,-0.56611 0.3064,-0.89247 0.8061,-0.89247 0.4796,0 0.7794,0.30637 0.7794,0.86583 v 2.35769 h 0.5996 v -2.46425 c 0,-0.77924 -0.473,-1.26543 -1.2058,-1.26543 -0.5596,0 -0.9127,0.27972 -0.9727,0.76591 h -0.01 v -0.69931 h -0.5996 z m 5.7493,0 h 1.0659 v -0.54613 h -1.0659 c -0.2399,0 -0.3998,-0.1665 -0.3998,-0.41959 v -2.15123 h 1.499 v -0.54613 h -1.499 v -1.03233 h -0.5995 v 1.03233 h -1.0526 v 0.54613 h 1.0526 v 2.15123 c 0,0.5861 0.393,0.96572 0.9993,0.96572 z m 3.3109,0.0666 c 0.6263,0 1.0326,-0.27973 1.0993,-0.73262 h 0.013 v 0.66601 h 0.5929 v -2.51754 c 0,-0.76591 -0.493,-1.21214 -1.379,-1.21214 -0.8194,0 -1.3391,0.42624 -1.3857,0.99902 h 0.5996 c 0.02,-0.29971 0.3197,-0.47953 0.7861,-0.47953 0.5263,0 0.7794,0.23311 0.7794,0.71264 v 0.28638 h -1.1325 c -0.7128,0 -1.2058,0.45955 -1.2058,1.13223 0,0.686 0.473,1.14555 1.2324,1.14555 z m 0.1466,-0.50617 c -0.4796,0 -0.7661,-0.25309 -0.7661,-0.65936 0,-0.38629 0.2665,-0.64603 0.6595,-0.64603 h 1.0659 v 0.51282 c 0,0.4862 -0.373,0.79257 -0.9593,0.79257 z m 4.2703,-3.88288 c 0.2931,0 0.473,-0.15984 0.473,-0.41959 0,-0.26641 -0.1799,-0.43291 -0.473,-0.43291 -0.2931,0 -0.473,0.1665 -0.473,0.43291 0,0.25975 0.1799,0.41959 0.473,0.41959 z m -1.5322,4.32244 h 3.1311 v -0.54613 h -1.2325 v -3.11695 h -1.7654 v 0.54613 h 1.1658 v 2.57082 h -1.299 z m 4.0438,0 h 0.5995 v -2.33105 c 0,-0.56611 0.3065,-0.89247 0.8061,-0.89247 0.4797,0 0.7795,0.30637 0.7795,0.86583 v 2.35769 h 0.5996 v -2.46425 c 0,-0.77924 -0.473,-1.26543 -1.2059,-1.26543 -0.5596,0 -0.9126,0.27972 -0.9726,0.76591 h -0.01 v -0.69931 h -0.5995 z m 5.3828,0.0666 c 0.7728,0 1.3324,-0.38629 1.4124,-0.99903 h -0.5996 c -0.06,0.29305 -0.3664,0.47954 -0.8128,0.47954 -0.5196,0 -0.8527,-0.33967 -0.8527,-0.87914 v -0.34634 h 2.2917 v -0.65269 c 0,-0.84584 -0.5729,-1.39863 -1.439,-1.39863 -0.866,0 -1.439,0.55279 -1.439,1.46523 v 0.86583 c 0,0.91243 0.573,1.46523 1.439,1.46523 z m -0.8527,-2.21117 v -0.18649 c 0,-0.57943 0.3131,-0.90578 0.8527,-0.90578 0.5396,0 0.8527,0.32635 0.8527,0.90578 v 0.18649 z m 3.5974,2.14456 h 0.5996 v -2.33105 c 0,-0.56611 0.2798,-0.87914 0.8061,-0.87914 0.5063,0 0.7795,0.25974 0.7795,0.79922 v 0.31302 h 0.5995 v -0.31302 c 0,-0.83918 -0.433,-1.31871 -1.1925,-1.31871 -0.5662,0 -0.9193,0.29304 -0.9793,0.76591 h -0.013 v -0.69931 h -0.5996 z"
       id="text18"
       aria-label="mongodb://container" /></g><style
     type="text/css"
     id="style1">
	.st0{fill:#009FE3;}
</style></svg>
